<?xml version="1.0" standalone="no"?><!DOCTYPE svg PUBLIC "-//W3C//DTD SVG 1.1//EN" "http://www.w3.org/Graphics/SVG/1.1/DTD/svg11.dtd"><svg t="1660152775996" class="icon" viewBox="0 0 1024 1024" version="1.1" xmlns="http://www.w3.org/2000/svg" p-id="50095" xmlns:xlink="http://www.w3.org/1999/xlink" width="200" height="200"><defs><style type="text/css"></style></defs><path d="M512 85.333333C229.248 85.333333 85.333333 229.248 85.333333 512s143.914667 426.666667 426.666667 426.666667 426.666667-143.914667 426.666667-426.666667S794.752 85.333333 512 85.333333z m0 85.333334c235.648 0 341.333333 105.685333 341.333333 341.333333s-105.685333 341.333333-341.333333 341.333333-341.333333-105.685333-341.333333-341.333333 105.685333-341.333333 341.333333-341.333333z" fill="#000000" p-id="50096"></path><path d="M469.333333 597.333333V341.333333a42.666667 42.666667 0 0 1 85.333334 0v256a42.666667 42.666667 0 0 1-85.333334 0z" fill="#FA6400" p-id="50097"></path><path d="M649.898667 556.501333a42.666667 42.666667 0 0 1 0 60.330667l-90.496 90.496a42.666667 42.666667 0 0 1-45.269334 9.770667 42.666667 42.666667 0 0 1-45.226666-9.770667l-90.538667-90.453333a42.666667 42.666667 0 0 1 60.330667-60.373334l75.434666 75.434667 75.434667-75.434667a42.666667 42.666667 0 0 1 60.330667 0z" fill="#FA6400" p-id="50098"></path></svg>