<?xml version="1.0" standalone="no"?><!DOCTYPE svg PUBLIC "-//W3C//DTD SVG 1.1//EN" "http://www.w3.org/Graphics/SVG/1.1/DTD/svg11.dtd"><svg t="1660152705078" class="icon" viewBox="0 0 1456 1024" version="1.1" xmlns="http://www.w3.org/2000/svg" p-id="37397" xmlns:xlink="http://www.w3.org/1999/xlink" width="284.375" height="200"><defs><style type="text/css"></style></defs><path d="M1130.951111 26.168889c-72.817778 0-130.844444 55.751111-130.844444 128.568889v119.466666l113.777777 95.573334h45.511112c37.546667 0 67.128889-34.133333 67.128888-72.817778v-40.96h23.893334c37.546667 0 68.266667-35.271111 68.266666-73.955556v-45.511111c62.577778 0 113.777778-42.097778 113.777778-111.502222H1130.951111v1.137778zM323.128889 26.168889c72.817778 0 130.844444 55.751111 130.844444 128.568889v119.466666l-113.777777 95.573334h-45.511112c-37.546667 0-67.128889-34.133333-67.128888-72.817778v-40.96h-23.893334c-37.546667 0-68.266667-35.271111-68.266666-73.955556v-45.511111C68.266667 136.533333 22.755556 94.435556 22.755556 26.168889h300.373333z" fill="#FAEDD6" p-id="37398"></path><path d="M1068.373333 319.715556c-88.746667-89.884444-232.106667-89.884444-320.853333 0l-23.893333 23.893333c-9.102222-10.24-15.928889-15.928889-15.928889-15.928889-88.746667-89.884444-232.106667-89.884444-320.853334 0s-88.746667 234.382222 0 324.266667l337.92 340.195555 345.884445-348.16c86.471111-89.884444 86.471111-234.382222-2.275556-324.266666z" fill="#FA004B" p-id="37399"></path><path d="M1130.951111 0C1046.755556 0 977.351111 69.404444 977.351111 154.737778v86.471111c-84.195556-25.031111-179.768889-3.413333-245.76 63.715555l-7.964444 7.964445c-65.991111-67.128889-161.564444-88.746667-245.76-63.715556v-94.435555C477.866667 69.404444 409.6 0 324.266667 0H0v22.755556c0 75.093333 61.44 136.533333 135.395556 136.533333h113.777777v-44.373333h-113.777777C93.297778 114.915556 56.888889 85.333333 47.786667 45.511111h275.342222c60.302222 0 109.226667 48.924444 109.226667 109.226667v111.502222c-22.755556 11.377778-43.235556 27.306667-62.577778 45.511111-10.24 10.24-18.204444 20.48-26.168889 30.72h-48.924445c-25.031111 0-45.511111-20.48-45.511111-46.648889H204.8c0 50.062222 40.96 91.022222 89.884444 91.022222h22.755556c-40.96 92.16-22.755556 203.662222 51.2 279.893334l352.711111 356.124444 15.928889-15.928889C750.933333 993.28 1082.026667 659.911111 1083.164444 658.773333c72.817778-72.817778 91.022222-180.906667 54.613334-271.928889h19.342222c50.062222 0 89.884444-40.96 89.884444-91.022222h-44.373333c0 25.031111-20.48 46.648889-45.511111 46.648889h-43.235556c-9.102222-13.653333-19.342222-27.306667-31.857777-38.684444-18.204444-19.342222-39.822222-34.133333-62.577778-45.511111v-103.537778c0-60.302222 48.924444-109.226667 109.226667-109.226667h275.342222c-10.24 39.822222-45.511111 69.404444-88.746667 69.404445h-113.777778V159.288889h113.777778c75.093333 0 135.395556-61.44 135.395556-136.533333V0H1130.951111z m-78.506667 628.053333c-1.137778 1.137778-262.826667 263.964444-329.955555 332.231111L400.497778 636.017778c-79.644444-80.782222-79.644444-211.626667 0-292.408889 39.822222-39.822222 92.16-60.302222 144.497778-60.302222s104.675556 20.48 144.497777 60.302222l31.857778 31.857778 39.822222-39.822223c79.644444-80.782222 210.488889-80.782222 290.133334 0 80.782222 80.782222 80.782222 211.626667 1.137777 292.408889z" fill="#232323" p-id="37400"></path><path d="M1249.28 228.693333h-113.777778V273.066667h113.777778c50.062222 0 89.884444-40.96 89.884444-91.022223h-44.373333c1.137778 26.168889-20.48 46.648889-45.511111 46.648889zM317.44 228.693333h-113.777778c-25.031111 0-45.511111-20.48-45.511111-46.648889H113.777778c0 50.062222 40.96 91.022222 89.884444 91.022223h113.777778v-44.373334z" fill="#232323" p-id="37401"></path><path d="M1044.48 480.142222h-44.373333c0-51.2-42.097778-92.16-92.16-92.16v-44.373333c77.368889 0 136.533333 62.577778 136.533333 136.533333z" fill="#FFFFFF" p-id="37402"></path><path d="M703.146667 26.168889h44.373333v137.671111h-44.373333zM810.097778 199.111111l-30.72-31.857778 68.266666-69.404444 31.857778 31.857778zM642.844444 197.973333l-68.266666-68.266666 31.857778-30.72 68.266666 68.266666z" fill="#36C9A3" p-id="37403"></path></svg>