<?xml version="1.0" standalone="no"?><!DOCTYPE svg PUBLIC "-//W3C//DTD SVG 1.1//EN" "http://www.w3.org/Graphics/SVG/1.1/DTD/svg11.dtd"><svg t="1660152570130" class="icon" viewBox="0 0 1024 1024" version="1.1" xmlns="http://www.w3.org/2000/svg" p-id="13289" xmlns:xlink="http://www.w3.org/1999/xlink" width="200" height="200"><defs><style type="text/css"></style></defs><path d="M670.254545 316.509091c-164.258909 0-297.890909 133.632-297.890909 297.890909s133.632 297.890909 297.890909 297.890909 297.890909-133.632 297.89091-297.890909-133.632-297.890909-297.89091-297.890909z m186.181819 353.745454h-130.327273v130.327273h-111.709091v-130.327273H484.072727v-111.70909h130.327273V428.218182h111.709091v130.327273h130.327273v111.70909z" fill="#FCC24C" p-id="13290"></path><path d="M837.818182 260.654545c71.866182 0 130.327273-58.461091 130.327273-130.327272S909.684364 0 837.818182 0s-130.327273 58.461091-130.327273 130.327273 58.461091 130.327273 130.327273 130.327272z" fill="#8F89F5" p-id="13291"></path><path d="M446.836364 223.418182c51.325673 0 93.090909-41.765236 93.090909-93.090909S498.162036 37.236364 446.836364 37.236364s-93.090909 41.765236-93.090909 93.090909 41.765236 93.090909 93.090909 93.090909zM297.890909 837.818182c-51.325673 0-93.090909 41.765236-93.090909 93.090909s41.765236 93.090909 93.090909 93.090909 93.090909-41.765236 93.090909-93.090909-41.765236-93.090909-93.090909-93.090909z" fill="#FF6B97" p-id="13292"></path><path d="M130.327273 465.454545c-41.0624 0-74.472727 33.410327-74.472728 74.472728 0 41.076364 33.410327 74.472727 74.472728 74.472727s74.472727-33.401018 74.472727-74.472727c0-41.0624-33.410327-74.472727-74.472727-74.472728z" fill="#8F89F5" p-id="13293"></path><path d="M726.109091 428.218182h-111.709091v130.327273H484.072727v111.70909h130.327273v130.327273h111.709091v-130.327273h130.327273v-111.70909h-130.327273z" fill="#FD5A5A" p-id="13294"></path></svg>