<?xml version="1.0" standalone="no"?><!DOCTYPE svg PUBLIC "-//W3C//DTD SVG 1.1//EN" "http://www.w3.org/Graphics/SVG/1.1/DTD/svg11.dtd"><svg t="1660152580805" class="icon" viewBox="0 0 1024 1024" version="1.1" xmlns="http://www.w3.org/2000/svg" p-id="15059" xmlns:xlink="http://www.w3.org/1999/xlink" width="200" height="200"><defs><style type="text/css"></style></defs><path d="M883.675625 511.990723c40.741245-58.466844 74.040896-116.677082 98.122446-172.242298 57.085116-131.678703 56.216601-236.512401-2.408155-295.137157s-163.458454-59.493271-295.156896-2.408155C628.687544 66.284663 570.457567 99.584314 511.990723 140.325559c-58.466844-40.741245-116.677082-74.040896-172.222559-98.122446C208.069722-14.882003 103.236025-14.033227 44.611268 44.611268s-59.493271 163.458454-2.408155 295.137157c24.08155 55.565215 57.381201 113.775453 98.122446 172.242298C99.584314 570.457567 66.284663 628.687544 42.203113 684.23302-14.882003 815.931463-14.033227 920.745421 44.611268 979.389916c29.726897 29.726897 71.316917 44.610084 122.381646 44.610084 49.544828 0 107.952455-14.073889 172.873945-42.201929 55.545476-24.08155 113.755714-57.381201 172.222559-98.122446 58.486583 40.741245 116.696821 74.040896 172.242297 98.122446 64.921489 28.12804 123.309378 42.201929 172.854206 42.201929 50.966034 0 92.575794-14.883187 122.381646-44.610084 58.624756-58.644495 59.493271-163.458454 2.408155-295.156896-24.259201-55.545476-57.558852-113.775453-98.300097-172.242297z m-168.037895-397.345571C770.433125 90.80047 819.168655 78.957085 857.00827 78.957085c29.233422 0 52.110894 7.145509 66.540085 21.5747 33.181217 33.161478 27.851694 110.893563-14.192323 207.930365-19.087589 44.037654-44.629823 90.049205-75.541058 136.652925a1571.992245 1571.992245 0 0 0-120.210359-134.619811 1569.248527 1569.248527 0 0 0-134.63955-120.210359c46.60372-31.00993 92.635011-56.552164 136.672665-75.639753z m70.329968 397.345571a1476.139781 1476.139781 0 0 1-128.204644 145.772331 1476.139781 1476.139781 0 0 1-145.772331 128.204644 1478.449241 1478.449241 0 0 1-145.772332-128.204644 1475.883175 1475.883175 0 0 1-128.184905-145.772331 1514.966345 1514.966345 0 0 1 273.957237-273.957237 1473.317108 1473.317108 0 0 1 145.772331 128.184905 1478.449241 1478.449241 0 0 1 128.204644 145.772332zM114.645152 308.363455c-42.063756-97.036802-47.37354-174.768886-14.212062-207.930365C114.862281 86.003899 137.739753 78.957085 166.973175 78.957085c37.93831 0 86.594884 12.040775 141.39028 35.786762 44.037654 19.087589 90.068944 44.629823 136.672664 75.541058A1597.475262 1597.475262 0 0 0 190.18621 445.01638c-30.911235-46.60372-56.453469-92.615272-75.541058-136.652925z m193.718303 600.992577c-97.036802 42.044017-174.768886 47.37354-207.930365 14.192323s-27.851694-110.873824 14.212062-207.910625c19.087589-44.037654 44.629823-90.068944 75.541058-136.672665a1569.248527 1569.248527 0 0 0 120.210359 134.63955 1569.248527 1569.248527 0 0 0 134.63955 120.210359c-46.60372 30.911235-92.635011 56.413991-136.672664 75.541058z m615.204639 14.192323c-33.161478 33.181217-110.893563 27.871433-207.930364-14.192323-44.037654-19.087589-90.068944-44.629823-136.672665-75.541058a1569.248527 1569.248527 0 0 0 134.63955-120.210359 1569.248527 1569.248527 0 0 0 120.210359-134.63955c30.911235 46.60372 56.453469 92.635011 75.541058 136.672665 42.063756 97.036802 47.37354 174.749147 14.212062 207.910625z" fill="#3390FF" p-id="15060"></path><path d="M511.990723 511.990723m-78.955901 0a78.955901 78.955901 0 1 0 157.911801 0 78.955901 78.955901 0 1 0-157.911801 0Z" fill="#FF9041" p-id="15061"></path></svg>