<?xml version="1.0" standalone="no"?><!DOCTYPE svg PUBLIC "-//W3C//DTD SVG 1.1//EN" "http://www.w3.org/Graphics/SVG/1.1/DTD/svg11.dtd"><svg t="1661099671301" class="icon" viewBox="0 0 1024 1024" version="1.1" xmlns="http://www.w3.org/2000/svg" p-id="4967" xmlns:xlink="http://www.w3.org/1999/xlink" width="200" height="200"><defs><style type="text/css"></style></defs><path d="M511.996 0C794.772 0 1024 229.228 1024 511.996 1024 794.772 794.772 1024 511.996 1024 229.228 1024 0 794.772 0 511.996 0 229.228 229.228 0 511.996 0z" fill="#3EBCF6" p-id="4968"></path><path d="M147.97 523.16l0.018 8.99c0.046 22.84 1.772 27.856 4.97 41.47l0.246-0.028c27.418 160.698 160.24 285.426 324.802 300.528l1.38 0.128c2.166 0.182 4.348 0.366 6.532 0.52l2.896 0.174c1.854 0.128 3.71 0.228 5.582 0.328 1.196 0.054 2.412 0.074 3.628 0.138 1.672 0.046 3.326 0.118 4.998 0.174 1.928 0.028 3.856 0.046 5.792 0.054 0.942 0.028 1.9 0.046 2.842 0.046l0.42-0.01c2.732 0 5.464-0.046 8.168-0.092l1.298-0.028c2.586-0.082 5.134-0.182 7.684-0.302l2.184-0.1c2.266-0.128 4.54-0.274 6.806-0.438l3.206-0.246a336.06 336.06 0 0 0 4.422-0.402c163.128-15.202 294.982-138.13 323.688-296.974 3.49-13.622 3.526-17.88 5.28-39.486h0.018l0.392-0.01h0.01c0.054-1.38 0.082-2.722 0.1-4.084V531.922h0.01v-0.694c2.294-27.116-1.252-71.674-10.442-106.144l-0.484-1.846c-39.624-157.938-182.534-274.928-352.76-274.928-174.356 0-320.034 122.728-355.446 286.494H156.2a17.948 17.948 0 0 1-0.11 0.374l-0.584 2.22-0.356 1.352-0.64 2.384c-4.496 18.564-5.92 40.702-6.35 60.062-0.11 3.6-0.174 7.2-0.174 10.808v0.694c-0.016 3.674-0.016 7.172-0.016 10.462z" fill="#51C3F7" p-id="4969"></path><path d="M301.286 518.464l0.01 5.198c0.028 13.22 1.032 16.126 2.888 24l0.138-0.018c15.87 93.016 92.752 165.21 188.006 173.954l0.794 0.074c1.252 0.11 2.522 0.21 3.782 0.302l1.672 0.11c1.078 0.074 2.156 0.128 3.234 0.182 0.704 0.036 1.398 0.046 2.102 0.082 0.968 0.028 1.928 0.064 2.896 0.1 1.114 0.018 2.23 0.028 3.352 0.036 0.548 0.01 1.096 0.018 1.636 0.018h0.246c1.58 0 3.162-0.028 4.732-0.054l0.758-0.018c1.49-0.046 2.97-0.1 4.44-0.174l1.26-0.054c1.306-0.082 2.632-0.164 3.938-0.256l1.854-0.146c0.868-0.074 1.708-0.146 2.568-0.228 94.424-8.808 170.738-79.952 187.358-171.898 2.02-7.884 2.038-10.352 3.052-22.858H722.25c0.028-0.804 0.046-1.58 0.064-2.366V523.134c1.324-15.686-0.722-41.488-6.048-61.432l-0.274-1.068c-22.932-91.426-105.652-159.136-204.196-159.136-100.92 0-185.238 71.034-205.73 165.822h-0.01c-0.018 0.074-0.036 0.156-0.064 0.22l-0.338 1.288-0.21 0.776-0.366 1.388c-2.604 10.736-3.426 23.562-3.672 34.764a203.558 203.558 0 0 0-0.11 6.25v0.402c-0.01 2.118-0.01 4.146-0.01 6.056z" fill="#62C9F8" p-id="4970"></path><path d="M21.416 530.194s72.688-72.222 124.91-79.294c52.222-7.072 156.668 67.682 200.368 71.72 43.698 4.038 168.4-127.278 217.416-105.058 49.026 22.228 162.004 85.862 224.88 96.972 62.884 11.11 157.738-111.116 202.496-125.248a199.452 199.452 0 0 1 16.582-4.496c10.398 40.674 15.934 83.296 15.934 127.204 0 16.454-0.804 32.716-2.33 48.778-217.086 41.35-747.664 119.768-862.554 72.962-116.324-47.388-137.702-103.54-137.702-103.54z" fill="#4CB5AB" p-id="4971"></path><path d="M0.612 536.956c28.926-22.082 100.626-46.084 149.642-12.736 43.442 29.546 51.62 32.124 79.796 25.198 131.508-84.674 199.326-56.964 261.434 19.15 22.228 19.56 50.698 30.268 80.764 36.462 47.718-24.486 101.11-51.51 150.474-76.57 138.322-70.222 216.712-21.434 301.104-29.538 0.11 4.348 0.174 8.706 0.174 13.074 0 46.43-6.212 91.4-17.798 134.156H17.798a511.236 511.236 0 0 1-17.186-109.196z" fill="#26A599" p-id="4972"></path><path d="M17.798 646.152h988.406C947.256 863.842 748.35 1024 511.996 1024 275.65 1024 76.744 863.842 17.798 646.152z" fill="#7FDDE9" p-id="4973"></path><path d="M394.942 228.544c52.314 0 94.724 42.41 94.724 94.724s-42.41 94.724-94.724 94.724-94.716-42.41-94.716-94.724 42.402-94.724 94.716-94.724zM167.34 182.286a8.48 8.48 0 1 1 0 16.966 8.48 8.48 0 0 1-8.478-8.488 8.472 8.472 0 0 1 8.478-8.478z m753.558 205.876a8.474 8.474 0 0 1 8.478 8.478 8.48 8.48 0 1 1-16.966 0 8.48 8.48 0 0 1 8.488-8.478zM103.102 339.868c4.686 0 8.488 3.8 8.488 8.488s-3.8 8.478-8.488 8.478c-4.686 0-8.478-3.792-8.478-8.478s3.792-8.488 8.478-8.488z m740.22-167.466a8.48 8.48 0 0 1 8.478 8.488c0 4.686-3.792 8.478-8.478 8.478a8.48 8.48 0 1 1 0-16.966z m-16.966 155.15c4.678 0 8.478 3.8 8.478 8.488a8.48 8.48 0 0 1-8.478 8.478 8.48 8.48 0 1 1 0-16.966zM656.64 46.942a8.48 8.48 0 1 1 0 16.966c-4.688 0-8.478-3.8-8.478-8.488s3.792-8.478 8.478-8.478z m-279.184-3.646c4.686 0 8.478 3.8 8.478 8.488s-3.792 8.478-8.478 8.478a8.48 8.48 0 1 1 0-16.966zM205.74 327.552c4.686 0 8.488 3.8 8.488 8.488a8.48 8.48 0 0 1-8.488 8.478 8.48 8.48 0 0 1-8.478-8.478 8.486 8.486 0 0 1 8.478-8.488z" fill="#FFFFFF" p-id="4974"></path><path d="M104.728 822.262c15.158 8.624 30.624 15.202 44.63 17.104 52.222 7.072 156.668-67.682 200.368-71.72s168.4 127.278 217.416 105.058c49.026-22.228 162.004-85.862 224.88-96.972 33.822-5.976 76.9 26.624 116.45 60.236a512.316 512.316 0 0 0 70.98-114.806c-237.944-42.52-709.758-108.438-817.302-64.63-60.116 24.486-94.862 51.318-114.422 71.528a511.626 511.626 0 0 0 57 94.202z" fill="#64BFB6" p-id="4975"></path><path d="M76.488 781.278c26.102 3.398 53.922 0.328 76.8-15.23 43.442-29.546 51.62-32.124 79.796-25.198 131.508 84.674 199.326 56.964 261.434-19.15 22.22-19.56 50.698-30.268 80.764-36.462 47.718 24.486 101.11 51.51 150.464 76.57 90.084 45.736 154.74 40.986 212.198 34.344a509.814 509.814 0 0 0 68.814-152.036H17.24a509.076 509.076 0 0 0 59.248 137.162zM37.596 565.972l-0.036-0.01a327.766 327.766 0 0 0-3.006 6.97 599.794 599.794 0 0 1 3.042-6.96z" fill="#4CB5AE" p-id="4976"></path><path d="M474.638 1022.638a94.3 94.3 0 0 0 18.062-55.64c0-52.314-42.41-94.724-94.724-94.724s-94.716 42.41-94.716 94.724c0 4.412 0.302 8.762 0.886 13.02 52.734 23.462 110.164 38.262 170.492 42.62z" fill="#DFF5F9" p-id="4977"></path><path d="M15.888 639.034h992.214c-0.712 2.824-1.48 5.638-2.256 8.432H18.154a423.984 423.984 0 0 1-2.266-8.432z" fill="#00877A" p-id="4978"></path><path d="M511.978 655.17l-39.386 27.664 39.386-27.664z m-48.898 34.342l-187.796 131.854 187.796-131.854z m-194.876 136.834l-96.752 67.938 96.752-67.938z m243.774-171.176v26.814-26.814z m0 35.548v52.662-52.662z m0 61.844V1024 752.562z m0-97.392l37.86 26.65-37.86-26.65z m50.66 35.658l132.448 93.208-132.448-93.208z m139.218 97.968l87.882 61.852-87.882-61.852z m95.036 66.896l55.292 38.912-55.292-38.912z m-560.92-135.5c59.696 0 108.082 1.352 108.082 3.024s-48.386 3.034-108.082 3.034c-59.688 0-108.072-1.362-108.072-3.034s48.384-3.024 108.072-3.024z m740.574 7.282a520.144 520.144 0 0 1-8.898 18.264c-18.282-1.434-31.146-4.87-31.146-8.872 0-4.624 17.186-8.488 40.044-9.392z m-79.102 121.512a544.98 544.98 0 0 1-7.2 8.076c-35.878-0.01-68.166-0.502-90.87-1.288l-2.486-0.082c-19.36-0.722-31.108-1.644-31.108-2.668 0-0.886 8.89-1.708 23.956-2.376l2.384-0.1c22.914-0.96 58.7-1.562 98.918-1.562h6.406z m-125.156 103.97a524.682 524.682 0 0 1-20.282 11.384c-21.672 1.736-51.62 2.814-84.712 2.814-66.11 0-119.694-4.294-119.694-9.594s53.584-9.594 119.694-9.594c45.26 0.002 84.646 2.022 104.994 4.99zM199.554 917.6a517.066 517.066 0 0 1-18.126-14.646c9-0.284 18.692-0.438 28.798-0.438 47.144 0 85.36 3.39 85.36 7.574 0 4.184-38.216 7.574-85.36 7.574-3.61 0-7.172-0.02-10.672-0.064z m-112.422-119.814a502.086 502.086 0 0 1-13.868-21.754c8.24-0.512 17.212-0.794 26.604-0.794 40.026 0 72.478 5.088 72.478 11.366s-32.452 11.356-72.478 11.356c-4.348 0-8.596-0.054-12.736-0.174z m537.322 72.99c29.336 0 53.128 3.262 53.128 7.272s-23.79 7.272-53.128 7.272c-29.346 0-53.136-3.262-53.136-7.272s23.79-7.272 53.136-7.272zM185.474 660.094c84.52 0 153.032 2.942 153.032 6.56 0 3.628-68.512 6.568-153.032 6.568s-153.032-2.942-153.032-6.568c0-3.618 68.514-6.56 153.032-6.56z m363.13 82.83c48.54 0 87.882 2.256 87.882 5.044 0 2.796-39.34 5.052-87.882 5.052-11.622 0-22.712-0.128-32.864-0.366l-3.764-0.092c-30.24-0.794-51.246-2.55-51.246-4.596 0-2.038 21.004-3.792 51.246-4.586l3.882-0.1a1465.006 1465.006 0 0 1 32.746-0.356z m223.748 40.4c66.11 0 119.704 1.352 119.704 3.024s-53.594 3.034-119.704 3.034c-25.152 0-48.486-0.202-67.754-0.53l-2.74-0.054c-29.82-0.548-49.198-1.444-49.198-2.448 0-0.922 16.482-1.754 42.428-2.312l2.696-0.054c20.454-0.414 46.372-0.66 74.568-0.66z m110.1-97.978c49.93 0 90.404 2.028 90.404 4.54s-40.474 4.55-90.404 4.55-90.404-2.038-90.404-4.55 40.474-4.54 90.404-4.54z m-518.254 135.262c77.018 0 139.456 1.49 139.456 3.326s-62.438 3.326-139.456 3.326c-36.27 0-69.308-0.338-94.112-0.878l-1.882-0.036c-26.778-0.612-43.47-1.462-43.47-2.412 0-1.032 19.68-1.956 50.55-2.568l2.102-0.036c23.818-0.456 53.986-0.722 86.812-0.722z m178.35-138.798l7.29 0.01 4.156 0.01c55.704 0.238 99.164 2.174 99.164 4.522 0 2.174-37.056 3.984-86.584 4.44l-3.938 0.036a2730.34 2730.34 0 0 1-46.502-0.054l-4.158-0.054c-17.094-0.202-32.506-0.566-45.124-1.05l-3.774-0.156c-19.278-0.822-31.146-1.928-31.146-3.162 0-1.416 15.842-2.696 40.656-3.518l4.312-0.138c10.442-0.32 22.284-0.558 35.074-0.712l4.258-0.046c8.436-0.09 17.252-0.128 26.316-0.128z" fill="#B1E9F1" p-id="4979"></path></svg>