<?xml version="1.0" standalone="no"?><!DOCTYPE svg PUBLIC "-//W3C//DTD SVG 1.1//EN" "http://www.w3.org/Graphics/SVG/1.1/DTD/svg11.dtd"><svg t="1661100169666" class="icon" viewBox="0 0 1024 1024" version="1.1" xmlns="http://www.w3.org/2000/svg" p-id="3211" xmlns:xlink="http://www.w3.org/1999/xlink" width="200" height="200"><defs><style type="text/css"></style></defs><path d="M512 181.817678c-182.350087 0-330.182322 147.832236-330.182322 330.182322S329.649913 842.182322 512 842.182322 842.182322 694.350087 842.182322 512 694.350087 181.817678 512 181.817678z" fill="#FFEA43" p-id="3212"></path><path d="M512 1010.689775c-67.261005 0-132.658579-13.22149-194.15182-39.220798-59.363605-25.111958-112.693241-61.049567-158.480416-106.836741C113.580589 818.845061 77.642981 765.515425 52.531023 706.15182 26.531716 644.658579 13.310225 579.261005 13.310225 512s13.22149-132.658579 39.220798-194.15182c25.111958-59.363605 61.049567-112.693241 106.836741-158.480416S258.484575 77.642981 317.84818 52.531023C379.341421 26.531716 444.738995 13.310225 512 13.310225s132.658579 13.22149 194.15182 39.220798c59.363605 25.111958 112.693241 61.049567 158.480416 106.836741 45.787175 45.787175 81.724783 99.116811 106.836741 158.480416 25.999307 61.493241 39.220797 126.80208 39.220798 194.15182s-13.22149 132.658579-39.220798 194.15182c-25.111958 59.363605-61.049567 112.693241-106.836741 158.480416-45.787175 45.787175-99.116811 81.724783-158.480416 106.836741-61.493241 25.999307-126.890815 39.220797-194.15182 39.220798z m0-908.644714c-226.007626 0-409.954939 183.947314-409.954939 409.954939s183.947314 409.954939 409.954939 409.954939 409.954939-183.947314 409.954939-409.954939-183.947314-409.954939-409.954939-409.954939z" fill="#FFF391" p-id="3213"></path></svg>