<?xml version="1.0" standalone="no"?><!DOCTYPE svg PUBLIC "-//W3C//DTD SVG 1.1//EN" "http://www.w3.org/Graphics/SVG/1.1/DTD/svg11.dtd"><svg t="1661100293888" class="icon" viewBox="0 0 1024 1024" version="1.1" xmlns="http://www.w3.org/2000/svg" p-id="5599" xmlns:xlink="http://www.w3.org/1999/xlink" width="200" height="200"><defs><style type="text/css"></style></defs><path d="M511.925344 256.111984c-141.398046 0-255.962672 114.564626-255.962672 255.962672s114.564626 255.962672 255.962672 255.962672 255.962672-114.564626 255.962672-255.962672-114.564626-255.962672-255.962672-255.962672z" fill="#FFBB00" p-id="5600"></path><path d="M511.925344 239.602391c150.228758 0 272.472264 122.222176 272.450934 272.472265 0 150.228758-122.222176 272.472264-272.450934 272.472264-150.228758 0-272.472264-122.222176-272.472264-272.472264 0-150.228758 122.222176-272.472264 272.472264-272.472265z m0 478.92749c113.839398 0 206.476556-92.615827 206.476556-206.455225 0-113.839398-92.637157-206.476556-206.476556-206.476556s-206.476556 92.637157-206.476555 206.476556 92.637157 206.476556 206.476555 206.476555z m0-521.758577a32.997854 32.997854 0 0 1-32.997854-32.997854V33.147166a32.997854 32.997854 0 1 1 65.995709 0v130.626284c0 18.21601-14.781844 32.997854-32.997855 32.997854z m0 630.606703c18.21601 0 32.997854 14.781844 32.997855 33.019185v130.604954a32.997854 32.997854 0 0 1-65.995709 0V860.397192c0-18.23734 14.760514-33.019185 32.997854-33.019185z m478.92749-348.322536a32.997854 32.997854 0 0 1 0 66.017039h-130.626284a32.997854 32.997854 0 0 1 0-65.995709h130.626284zM196.621993 512.074656c0 18.23734-14.781844 32.997854-32.997855 32.997854H32.997854a32.997854 32.997854 0 0 1 0-65.995709h130.626284c18.21601 0 32.997854 14.781844 32.997855 32.997855zM759.142625 297.833899a32.997854 32.997854 0 0 1-23.335264-56.333118l92.359865-92.359864a32.997854 32.997854 0 1 1 46.670527 46.670527l-92.359864 92.359864a32.912534 32.912534 0 0 1-23.335264 9.662591zM243.249859 734.079613a32.997854 32.997854 0 1 1 46.670528 46.670528l-92.359865 92.359864a32.891203 32.891203 0 0 1-23.335263 9.662591 32.997854 32.997854 0 0 1-23.335264-56.333118l92.359864-92.359865z m539.24936 0l92.359864 92.359865a32.997854 32.997854 0 0 1-46.670527 46.670527l-92.359864-92.359864a32.997854 32.997854 0 1 1 46.670527-46.670528zM243.249859 288.171308l-92.359864-92.359864a32.997854 32.997854 0 1 1 46.670527-46.670527l92.359865 92.359864a32.997854 32.997854 0 1 1-46.670528 46.670527z" fill="#000000" p-id="5601"></path></svg>