<svg xmlns="http://www.w3.org/2000/svg" width="150" height="100"><rect width="100%" height="100%" fill="#5752ff"/><path fill="#3dffc5" d="M6.775 75.74a4.817 4.817 0 0 0-4.811 4.812 4.817 4.817 0 0 0 4.81 4.81 4.817 4.817 0 0 0 4.812-4.81 6.3 6.3 0 0 1 6.292-6.292 4.817 4.817 0 0 0 4.811-4.812 4.817 4.817 0 0 0-4.811-4.811 4.817 4.817 0 0 0-4.811 4.811 6.3 6.3 0 0 1-6.292 6.292m32.862 6.382a4.817 4.817 0 0 0 4.812 4.811 6.3 6.3 0 0 1 6.291 6.292 4.817 4.817 0 0 0 4.812 4.811 4.817 4.817 0 0 0 4.81-4.81 4.817 4.817 0 0 0-4.81-4.812 6.3 6.3 0 0 1-6.292-6.292 4.817 4.817 0 0 0-4.811-4.811 4.817 4.817 0 0 0-4.812 4.811m17.138-6.382a4.817 4.817 0 0 0-4.811 4.812 4.817 4.817 0 0 0 4.81 4.81 4.817 4.817 0 0 0 4.812-4.81 6.3 6.3 0 0 1 6.292-6.292 4.817 4.817 0 0 0 4.811-4.812 4.817 4.817 0 0 0-4.811-4.811 4.817 4.817 0 0 0-4.811 4.811 6.3 6.3 0 0 1-6.292 6.292m7.862 6.382a4.817 4.817 0 0 0 4.812 4.811 6.3 6.3 0 0 1 6.291 6.292 4.817 4.817 0 0 0 4.812 4.811 4.817 4.817 0 0 0 4.811-4.81 4.817 4.817 0 0 0-4.811-4.812 6.3 6.3 0 0 1-6.292-6.292 4.817 4.817 0 0 0-4.811-4.811 4.817 4.817 0 0 0-4.812 4.811m17.138-6.382a4.817 4.817 0 0 0-4.811 4.812 4.817 4.817 0 0 0 4.811 4.81 4.817 4.817 0 0 0 4.811-4.81 6.3 6.3 0 0 1 6.292-6.292 4.817 4.817 0 0 0 4.811-4.812 4.817 4.817 0 0 0-4.81-4.811 4.817 4.817 0 0 0-4.812 4.811 6.3 6.3 0 0 1-6.292 6.292m-50-75a4.817 4.817 0 0 0-4.811 4.811 4.817 4.817 0 0 0 4.81 4.812 4.817 4.817 0 0 0 4.812-4.812A6.3 6.3 0 0 1 42.878-.74a4.817 4.817 0 0 0 4.811-4.812 4.817 4.817 0 0 0-4.811-4.811 4.817 4.817 0 0 0-4.811 4.811A6.3 6.3 0 0 1 31.775.74m7.862 6.382a4.817 4.817 0 0 0 4.812 4.811 6.3 6.3 0 0 1 6.291 6.292 4.817 4.817 0 0 0 4.812 4.811 4.817 4.817 0 0 0 4.81-4.81 4.817 4.817 0 0 0-4.81-4.812 6.3 6.3 0 0 1-6.292-6.292 4.817 4.817 0 0 0-4.811-4.811 4.817 4.817 0 0 0-4.812 4.81zM81.775.74a4.817 4.817 0 0 0-4.811 4.811 4.817 4.817 0 0 0 4.811 4.812 4.817 4.817 0 0 0 4.811-4.812A6.3 6.3 0 0 1 92.878-.74a4.817 4.817 0 0 0 4.811-4.812 4.817 4.817 0 0 0-4.81-4.811 4.817 4.817 0 0 0-4.812 4.811A6.3 6.3 0 0 1 81.775.74m32.862 6.382a4.817 4.817 0 0 0 4.812 4.811 6.3 6.3 0 0 1 6.291 6.292 4.817 4.817 0 0 0 4.812 4.811 4.817 4.817 0 0 0 4.811-4.81 4.817 4.817 0 0 0-4.811-4.812 6.3 6.3 0 0 1-6.292-6.292 4.817 4.817 0 0 0-4.811-4.811 4.817 4.817 0 0 0-4.812 4.81zM131.775.74a4.817 4.817 0 0 0-4.811 4.811 4.817 4.817 0 0 0 4.811 4.812 4.817 4.817 0 0 0 4.811-4.812 6.3 6.3 0 0 1 6.292-6.291 4.817 4.817 0 0 0 4.812-4.812 4.817 4.817 0 0 0-4.812-4.811 4.817 4.817 0 0 0-4.811 4.811A6.3 6.3 0 0 1 131.775.74m-50 100a4.817 4.817 0 0 0-4.811 4.812 4.817 4.817 0 0 0 4.811 4.81 4.817 4.817 0 0 0 4.811-4.81 6.3 6.3 0 0 1 6.292-6.292 4.817 4.817 0 0 0 4.811-4.812 4.817 4.817 0 0 0-4.81-4.81 4.817 4.817 0 0 0-4.812 4.81 6.3 6.3 0 0 1-6.292 6.292m50 0a4.817 4.817 0 0 0-4.811 4.812 4.817 4.817 0 0 0 4.811 4.81 4.817 4.817 0 0 0 4.811-4.81 6.3 6.3 0 0 1 6.292-6.292 4.817 4.817 0 0 0 4.812-4.812 4.817 4.817 0 0 0-4.812-4.81 4.817 4.817 0 0 0-4.811 4.81 6.3 6.3 0 0 1-6.292 6.292m-17.138-18.618a4.817 4.817 0 0 0 4.812 4.811 6.3 6.3 0 0 1 6.291 6.292 4.817 4.817 0 0 0 4.812 4.811 4.817 4.817 0 0 0 4.811-4.81 4.817 4.817 0 0 0-4.811-4.812 6.3 6.3 0 0 1-6.292-6.292 4.817 4.817 0 0 0-4.811-4.811 4.817 4.817 0 0 0-4.812 4.811m17.138-6.382a4.817 4.817 0 0 0-4.811 4.812 4.817 4.817 0 0 0 4.811 4.81 4.817 4.817 0 0 0 4.811-4.81 6.3 6.3 0 0 1 6.292-6.292 4.817 4.817 0 0 0 4.812-4.812 4.817 4.817 0 0 0-4.812-4.811 4.817 4.817 0 0 0-4.811 4.811 6.3 6.3 0 0 1-6.292 6.292m0-50a4.817 4.817 0 0 0-4.811 4.811 4.817 4.817 0 0 0 4.811 4.812 4.817 4.817 0 0 0 4.811-4.812 6.3 6.3 0 0 1 6.292-6.291 4.817 4.817 0 0 0 4.812-4.812 4.817 4.817 0 0 0-4.812-4.811 4.817 4.817 0 0 0-4.811 4.811 6.3 6.3 0 0 1-6.292 6.292m-75 25a4.817 4.817 0 0 0-4.811 4.812 4.817 4.817 0 0 0 4.81 4.81 4.817 4.817 0 0 0 4.812-4.81 6.3 6.3 0 0 1 6.292-6.292 4.817 4.817 0 0 0 4.811-4.812 4.817 4.817 0 0 0-4.811-4.811 4.817 4.817 0 0 0-4.811 4.811 6.3 6.3 0 0 1-6.292 6.292m50 0a4.817 4.817 0 0 0-4.811 4.812 4.817 4.817 0 0 0 4.811 4.81 4.817 4.817 0 0 0 4.811-4.81 6.3 6.3 0 0 1 6.292-6.292 4.817 4.817 0 0 0 4.812-4.812 4.817 4.817 0 0 0-4.812-4.811 4.817 4.817 0 0 0-4.811 4.811 6.3 6.3 0 0 1-6.292 6.292m7.862 6.382a4.817 4.817 0 0 0 4.812 4.811 6.3 6.3 0 0 1 6.291 6.292 4.817 4.817 0 0 0 4.812 4.811 4.817 4.817 0 0 0 4.811-4.81 4.817 4.817 0 0 0-4.811-4.812 6.3 6.3 0 0 1-6.292-6.292 4.817 4.817 0 0 0-4.811-4.811 4.817 4.817 0 0 0-4.812 4.81zM31.775 100.74a4.817 4.817 0 0 0-4.811 4.812 4.817 4.817 0 0 0 4.81 4.81 4.817 4.817 0 0 0 4.812-4.81 6.3 6.3 0 0 1 6.292-6.292 4.817 4.817 0 0 0 4.811-4.812 4.817 4.817 0 0 0-4.811-4.81 4.817 4.817 0 0 0-4.811 4.81 6.3 6.3 0 0 1-6.292 6.292m-25-75a4.817 4.817 0 0 0-4.811 4.811 4.817 4.817 0 0 0 4.81 4.812 4.817 4.817 0 0 0 4.812-4.812 6.3 6.3 0 0 1 6.292-6.291 4.817 4.817 0 0 0 4.811-4.812 4.817 4.817 0 0 0-4.811-4.811 4.817 4.817 0 0 0-4.811 4.811 6.3 6.3 0 0 1-6.292 6.292m32.862 6.382a4.817 4.817 0 0 0 4.812 4.811 6.3 6.3 0 0 1 6.291 6.292 4.817 4.817 0 0 0 4.812 4.811 4.817 4.817 0 0 0 4.81-4.81 4.817 4.817 0 0 0-4.81-4.812 6.3 6.3 0 0 1-6.292-6.292 4.817 4.817 0 0 0-4.811-4.811 4.817 4.817 0 0 0-4.812 4.81zm17.138-6.382a4.817 4.817 0 0 0-4.811 4.811 4.817 4.817 0 0 0 4.81 4.812 4.817 4.817 0 0 0 4.812-4.812 6.3 6.3 0 0 1 6.292-6.291 4.817 4.817 0 0 0 4.811-4.812 4.817 4.817 0 0 0-4.811-4.811 4.817 4.817 0 0 0-4.811 4.811 6.3 6.3 0 0 1-6.292 6.292m7.862 6.382a4.817 4.817 0 0 0 4.812 4.811 6.3 6.3 0 0 1 6.291 6.292 4.817 4.817 0 0 0 4.812 4.811 4.817 4.817 0 0 0 4.811-4.81 4.817 4.817 0 0 0-4.811-4.812 6.3 6.3 0 0 1-6.292-6.292 4.817 4.817 0 0 0-4.811-4.811 4.817 4.817 0 0 0-4.812 4.81zM6.775 50.74a4.817 4.817 0 0 0-4.811 4.812 4.817 4.817 0 0 0 4.81 4.81 4.817 4.817 0 0 0 4.812-4.81 6.3 6.3 0 0 1 6.292-6.292 4.817 4.817 0 0 0 4.811-4.812 4.817 4.817 0 0 0-4.811-4.811 4.817 4.817 0 0 0-4.811 4.811 6.3 6.3 0 0 1-6.292 6.292m7.862 6.382a4.817 4.817 0 0 0 4.811 4.811 6.3 6.3 0 0 1 6.292 6.292 4.817 4.817 0 0 0 4.812 4.811 4.817 4.817 0 0 0 4.81-4.81 4.817 4.817 0 0 0-4.81-4.812 6.3 6.3 0 0 1-6.292-6.292 4.817 4.817 0 0 0-4.812-4.811 4.817 4.817 0 0 0-4.81 4.81zm17.138-6.382a4.817 4.817 0 0 0-4.811 4.812 4.817 4.817 0 0 0 4.81 4.81 4.817 4.817 0 0 0 4.812-4.81 6.3 6.3 0 0 1 6.292-6.292 4.817 4.817 0 0 0 4.811-4.812 4.817 4.817 0 0 0-4.811-4.811 4.817 4.817 0 0 0-4.811 4.811 6.3 6.3 0 0 1-6.292 6.292m32.862 6.382a4.817 4.817 0 0 0 4.812 4.811 6.3 6.3 0 0 1 6.291 6.292 4.817 4.817 0 0 0 4.812 4.811 4.817 4.817 0 0 0 4.811-4.81 4.817 4.817 0 0 0-4.811-4.812 6.3 6.3 0 0 1-6.292-6.292 4.817 4.817 0 0 0-4.811-4.811 4.817 4.817 0 0 0-4.812 4.81z"/><path fill="#fff" d="M144.448 26.91a5.22 5.22 0 0 0-5.212 5.212 5.22 5.22 0 0 0 5.212 5.212 5.894 5.894 0 0 1 5.892 5.892 5.22 5.22 0 0 0 5.212 5.212 5.22 5.22 0 0 0 5.21-5.212 5.22 5.22 0 0 0-5.21-5.212 5.894 5.894 0 0 1-5.892-5.892 5.22 5.22 0 0 0-5.212-5.21zm0 .8a4.413 4.413 0 0 1 4.412 4.412 6.704 6.704 0 0 0 6.692 6.692 4.412 4.412 0 1 1-4.412 4.412 6.704 6.704 0 0 0-6.692-6.692 4.412 4.412 0 0 1 0-8.822zm0-25.8a5.22 5.22 0 0 0-5.212 5.212 5.22 5.22 0 0 0 5.212 5.212 5.894 5.894 0 0 1 5.892 5.892 5.22 5.22 0 0 0 5.212 5.212 5.22 5.22 0 0 0 5.21-5.212 5.22 5.22 0 0 0-5.21-5.212 5.894 5.894 0 0 1-5.892-5.892 5.22 5.22 0 0 0-5.212-5.21zm0 .8a4.413 4.413 0 0 1 4.412 4.412 6.704 6.704 0 0 0 6.692 6.692 4.412 4.412 0 1 1-4.412 4.412 6.704 6.704 0 0 0-6.692-6.692 4.412 4.412 0 0 1 0-8.822zm-150 74.2a5.22 5.22 0 0 0-5.212 5.212 5.22 5.22 0 0 0 5.212 5.212A5.894 5.894 0 0 1 .34 93.226a5.22 5.22 0 0 0 5.212 5.212 5.22 5.22 0 0 0 5.21-5.212 5.22 5.22 0 0 0-5.21-5.212A5.894 5.894 0 0 1-.34 82.122a5.22 5.22 0 0 0-5.212-5.21zm0 .8a4.413 4.413 0 0 1 4.412 4.412 6.704 6.704 0 0 0 6.692 6.692 4.412 4.412 0 1 1-4.412 4.412 6.704 6.704 0 0 0-6.692-6.692 4.412 4.412 0 0 1 0-8.822zm25-.8a5.22 5.22 0 0 0-5.212 5.212 5.22 5.22 0 0 0 5.212 5.212 5.894 5.894 0 0 1 5.892 5.892 5.22 5.22 0 0 0 5.212 5.212 5.22 5.22 0 0 0 5.21-5.212 5.22 5.22 0 0 0-5.21-5.212 5.894 5.894 0 0 1-5.892-5.892 5.22 5.22 0 0 0-5.212-5.21zm0 .8a4.413 4.413 0 0 1 4.412 4.412 6.704 6.704 0 0 0 6.692 6.692 4.412 4.412 0 1 1-4.412 4.412 6.704 6.704 0 0 0-6.692-6.692 4.412 4.412 0 0 1 0-8.822zm23.43-13.472a5.22 5.22 0 0 0-5.212 5.212 5.894 5.894 0 0 1-5.892 5.89 5.22 5.22 0 0 0-5.21 5.212 5.22 5.22 0 0 0 5.21 5.212 5.22 5.22 0 0 0 5.212-5.212 5.894 5.894 0 0 1 5.892-5.892 5.22 5.22 0 0 0 5.212-5.21 5.22 5.22 0 0 0-5.212-5.212m0 .8a4.412 4.412 0 0 1 0 8.822 6.704 6.704 0 0 0-6.692 6.692 4.412 4.412 0 1 1-4.412-4.412 6.704 6.704 0 0 0 6.692-6.69 4.413 4.413 0 0 1 4.412-4.412m51.57 11.874a5.22 5.22 0 0 0-5.212 5.21 5.22 5.22 0 0 0 5.212 5.212 5.894 5.894 0 0 1 5.892 5.892 5.22 5.22 0 0 0 5.212 5.212 5.22 5.22 0 0 0 5.21-5.212 5.22 5.22 0 0 0-5.21-5.212 5.894 5.894 0 0 1-5.892-5.892 5.22 5.22 0 0 0-5.212-5.21m0 .8a4.41 4.41 0 0 1 4.412 4.41 6.704 6.704 0 0 0 6.692 6.692 4.412 4.412 0 1 1-4.412 4.412 6.704 6.704 0 0 0-6.692-6.692 4.412 4.412 0 0 1 0-8.822m-100-75.8a5.22 5.22 0 0 0-5.212 5.21 5.22 5.22 0 0 0 5.212 5.212A5.894 5.894 0 0 1 .34 18.226a5.22 5.22 0 0 0 5.212 5.212 5.22 5.22 0 0 0 5.21-5.212 5.22 5.22 0 0 0-5.21-5.212A5.894 5.894 0 0 1-.34 7.122a5.22 5.22 0 0 0-5.212-5.21m0 .8a4.41 4.41 0 0 1 4.412 4.41 6.704 6.704 0 0 0 6.692 6.692 4.412 4.412 0 1 1-4.412 4.412 6.704 6.704 0 0 0-6.692-6.692 4.412 4.412 0 0 1 0-8.822m23.43 86.526a5.22 5.22 0 0 0-5.212 5.212 5.894 5.894 0 0 1-5.892 5.89 5.22 5.22 0 0 0-5.21 5.212 5.22 5.22 0 0 0 5.21 5.212 5.22 5.22 0 0 0 5.212-5.212 5.894 5.894 0 0 1 5.892-5.892 5.22 5.22 0 0 0 5.212-5.21 5.22 5.22 0 0 0-5.212-5.212m0 .8a4.412 4.412 0 0 1 0 8.822 6.704 6.704 0 0 0-6.692 6.692 4.412 4.412 0 1 1-4.412-4.412 6.704 6.704 0 0 0 6.692-6.69 4.413 4.413 0 0 1 4.412-4.412m0-100.8a5.22 5.22 0 0 0-5.212 5.212A5.894 5.894 0 0 1 6.774.34a5.22 5.22 0 0 0-5.21 5.212 5.22 5.22 0 0 0 5.21 5.212 5.22 5.22 0 0 0 5.212-5.212A5.894 5.894 0 0 1 17.878-.34a5.22 5.22 0 0 0 5.212-5.21 5.22 5.22 0 0 0-5.212-5.212m0 .8a4.412 4.412 0 0 1 0 8.822 6.704 6.704 0 0 0-6.692 6.692A4.412 4.412 0 1 1 6.774 1.14a6.704 6.704 0 0 0 6.692-6.69 4.413 4.413 0 0 1 4.412-4.412m1.57 11.874a5.22 5.22 0 0 0-5.212 5.21 5.22 5.22 0 0 0 5.212 5.212 5.894 5.894 0 0 1 5.892 5.892 5.22 5.22 0 0 0 5.212 5.212 5.22 5.22 0 0 0 5.21-5.212 5.22 5.22 0 0 0-5.21-5.212 5.894 5.894 0 0 1-5.892-5.892 5.22 5.22 0 0 0-5.212-5.21m0 .8a4.41 4.41 0 0 1 4.412 4.41 6.704 6.704 0 0 0 6.692 6.692 4.412 4.412 0 1 1-4.412 4.412 6.704 6.704 0 0 0-6.692-6.692 4.412 4.412 0 0 1 0-8.822m48.43 86.526a5.22 5.22 0 0 0-5.212 5.212 5.894 5.894 0 0 1-5.892 5.89 5.22 5.22 0 0 0-5.21 5.212 5.22 5.22 0 0 0 5.21 5.212 5.22 5.22 0 0 0 5.212-5.212 5.894 5.894 0 0 1 5.892-5.892 5.22 5.22 0 0 0 5.212-5.21 5.22 5.22 0 0 0-5.212-5.212m0 .8a4.412 4.412 0 0 1 0 8.822 6.704 6.704 0 0 0-6.692 6.692 4.412 4.412 0 1 1-4.412-4.412 6.704 6.704 0 0 0 6.692-6.69 4.413 4.413 0 0 1 4.412-4.412m0-100.8a5.22 5.22 0 0 0-5.212 5.212A5.894 5.894 0 0 1 56.774.34a5.22 5.22 0 0 0-5.21 5.212 5.22 5.22 0 0 0 5.21 5.212 5.22 5.22 0 0 0 5.212-5.212A5.894 5.894 0 0 1 67.878-.34a5.22 5.22 0 0 0 5.212-5.21 5.22 5.22 0 0 0-5.212-5.212m0 .8a4.412 4.412 0 0 1 0 8.822 6.704 6.704 0 0 0-6.692 6.692 4.412 4.412 0 1 1-4.412-4.412 6.704 6.704 0 0 0 6.692-6.69 4.413 4.413 0 0 1 4.412-4.412m1.57 11.874a5.22 5.22 0 0 0-5.212 5.21 5.22 5.22 0 0 0 5.212 5.212 5.894 5.894 0 0 1 5.892 5.892 5.22 5.22 0 0 0 5.212 5.212 5.22 5.22 0 0 0 5.21-5.212 5.22 5.22 0 0 0-5.21-5.212 5.894 5.894 0 0 1-5.892-5.892 5.22 5.22 0 0 0-5.212-5.21m0 .8a4.41 4.41 0 0 1 4.412 4.41 6.704 6.704 0 0 0 6.692 6.692 4.412 4.412 0 1 1-4.412 4.412 6.704 6.704 0 0 0-6.692-6.692 4.412 4.412 0 0 1 0-8.822m25-.8a5.22 5.22 0 0 0-5.212 5.21 5.22 5.22 0 0 0 5.212 5.212 5.894 5.894 0 0 1 5.892 5.892 5.22 5.22 0 0 0 5.212 5.212 5.22 5.22 0 0 0 5.21-5.212 5.22 5.22 0 0 0-5.21-5.212 5.894 5.894 0 0 1-5.892-5.892 5.22 5.22 0 0 0-5.212-5.21m0 .8a4.41 4.41 0 0 1 4.412 4.41 6.704 6.704 0 0 0 6.692 6.692 4.412 4.412 0 1 1-4.412 4.412 6.704 6.704 0 0 0-6.692-6.692 4.412 4.412 0 0 1 0-8.822m23.43-13.474a5.22 5.22 0 0 0-5.212 5.212 5.894 5.894 0 0 1-5.892 5.89 5.22 5.22 0 0 0-5.21 5.212 5.22 5.22 0 0 0 5.21 5.212 5.22 5.22 0 0 0 5.212-5.212 5.894 5.894 0 0 1 5.892-5.892 5.22 5.22 0 0 0 5.212-5.21 5.22 5.22 0 0 0-5.212-5.212m0 .8a4.412 4.412 0 0 1 0 8.822 6.704 6.704 0 0 0-6.692 6.692 4.412 4.412 0 1 1-4.412-4.412 6.704 6.704 0 0 0 6.692-6.69 4.413 4.413 0 0 1 4.412-4.412m0 99.2a5.22 5.22 0 0 0-5.212 5.212 5.894 5.894 0 0 1-5.892 5.89 5.22 5.22 0 0 0-5.21 5.212 5.22 5.22 0 0 0 5.21 5.212 5.22 5.22 0 0 0 5.212-5.212 5.894 5.894 0 0 1 5.892-5.892 5.22 5.22 0 0 0 5.212-5.21 5.22 5.22 0 0 0-5.212-5.212m0 .8a4.412 4.412 0 0 1 0 8.822 6.704 6.704 0 0 0-6.692 6.692 4.412 4.412 0 1 1-4.412-4.412 6.704 6.704 0 0 0 6.692-6.69 4.413 4.413 0 0 1 4.412-4.412m-23.43-13.126a5.22 5.22 0 0 0-5.212 5.21 5.22 5.22 0 0 0 5.212 5.212 5.894 5.894 0 0 1 5.892 5.892 5.22 5.22 0 0 0 5.212 5.212 5.22 5.22 0 0 0 5.21-5.212 5.22 5.22 0 0 0-5.21-5.212 5.894 5.894 0 0 1-5.892-5.892 5.22 5.22 0 0 0-5.212-5.21m0 .8a4.41 4.41 0 0 1 4.412 4.41 6.704 6.704 0 0 0 6.692 6.692 4.412 4.412 0 1 1-4.412 4.412 6.704 6.704 0 0 0-6.692-6.692 4.412 4.412 0 0 1 0-8.822m23.43-13.474a5.22 5.22 0 0 0-5.212 5.212 5.894 5.894 0 0 1-5.892 5.89 5.22 5.22 0 0 0-5.21 5.212 5.22 5.22 0 0 0 5.21 5.212 5.22 5.22 0 0 0 5.212-5.212 5.894 5.894 0 0 1 5.892-5.892 5.22 5.22 0 0 0 5.212-5.21 5.22 5.22 0 0 0-5.212-5.212m0 .8a4.412 4.412 0 0 1 0 8.822 6.704 6.704 0 0 0-6.692 6.692 4.412 4.412 0 1 1-4.412-4.412 6.704 6.704 0 0 0 6.692-6.69 4.413 4.413 0 0 1 4.412-4.412m26.57 11.874a5.22 5.22 0 0 0-5.212 5.21 5.22 5.22 0 0 0 5.212 5.212 5.894 5.894 0 0 1 5.892 5.892 5.22 5.22 0 0 0 5.212 5.212 5.22 5.22 0 0 0 5.21-5.212 5.22 5.22 0 0 0-5.21-5.212 5.894 5.894 0 0 1-5.892-5.892 5.22 5.22 0 0 0-5.212-5.21m0 .8a4.41 4.41 0 0 1 4.412 4.41 6.704 6.704 0 0 0 6.692 6.692 4.412 4.412 0 1 1-4.412 4.412 6.704 6.704 0 0 0-6.692-6.692 4.412 4.412 0 0 1 0-8.822m-51.57-63.474a5.22 5.22 0 0 0-5.212 5.212 5.894 5.894 0 0 1-5.892 5.89 5.22 5.22 0 0 0-5.21 5.212 5.22 5.22 0 0 0 5.21 5.212 5.22 5.22 0 0 0 5.212-5.212 5.894 5.894 0 0 1 5.892-5.892 5.22 5.22 0 0 0 5.212-5.21 5.22 5.22 0 0 0-5.212-5.212m0 .8a4.412 4.412 0 0 1 0 8.822 6.704 6.704 0 0 0-6.692 6.692 4.412 4.412 0 1 1-4.412-4.412 6.704 6.704 0 0 0 6.692-6.69 4.41 4.41 0 0 1 4.412-4.412m1.57 11.874a5.22 5.22 0 0 0-5.212 5.21 5.22 5.22 0 0 0 5.212 5.212 5.894 5.894 0 0 1 5.892 5.892 5.22 5.22 0 0 0 5.212 5.212 5.22 5.22 0 0 0 5.21-5.212 5.22 5.22 0 0 0-5.21-5.212 5.894 5.894 0 0 1-5.892-5.892 5.22 5.22 0 0 0-5.212-5.21m0 .8a4.41 4.41 0 0 1 4.412 4.41 6.704 6.704 0 0 0 6.692 6.692 4.412 4.412 0 1 1-4.412 4.412 6.704 6.704 0 0 0-6.692-6.692 4.412 4.412 0 0 1 0-8.822m23.43-13.474a5.22 5.22 0 0 0-5.212 5.212 5.894 5.894 0 0 1-5.892 5.89 5.22 5.22 0 0 0-5.21 5.212 5.22 5.22 0 0 0 5.21 5.212 5.22 5.22 0 0 0 5.212-5.212 5.894 5.894 0 0 1 5.892-5.892 5.22 5.22 0 0 0 5.212-5.21 5.22 5.22 0 0 0-5.212-5.212m0 .8a4.412 4.412 0 0 1 0 8.822 6.704 6.704 0 0 0-6.692 6.692 4.412 4.412 0 1 1-4.412-4.412 6.704 6.704 0 0 0 6.692-6.69 4.41 4.41 0 0 1 4.412-4.412m1.57 11.874a5.22 5.22 0 0 0-5.212 5.21 5.22 5.22 0 0 0 5.212 5.212 5.894 5.894 0 0 1 5.892 5.892 5.22 5.22 0 0 0 5.212 5.212 5.22 5.22 0 0 0 5.21-5.212 5.22 5.22 0 0 0-5.21-5.212 5.894 5.894 0 0 1-5.892-5.892 5.22 5.22 0 0 0-5.212-5.21m0 .8a4.41 4.41 0 0 1 4.412 4.41 6.704 6.704 0 0 0 6.692 6.692 4.412 4.412 0 1 1-4.412 4.412 6.704 6.704 0 0 0-6.692-6.692 4.412 4.412 0 0 1 0-8.822m-26.57 11.526a5.22 5.22 0 0 0-5.212 5.212 5.894 5.894 0 0 1-5.892 5.89 5.22 5.22 0 0 0-5.21 5.212 5.22 5.22 0 0 0 5.21 5.212 5.22 5.22 0 0 0 5.212-5.212 5.894 5.894 0 0 1 5.892-5.892 5.22 5.22 0 0 0 5.212-5.21 5.22 5.22 0 0 0-5.212-5.212m0 .8a4.412 4.412 0 0 1 0 8.822 6.704 6.704 0 0 0-6.692 6.692 4.412 4.412 0 1 1-4.412-4.412 6.704 6.704 0 0 0 6.692-6.69 4.413 4.413 0 0 1 4.412-4.412m1.57 11.874a5.22 5.22 0 0 0-5.212 5.21 5.22 5.22 0 0 0 5.212 5.212 5.894 5.894 0 0 1 5.892 5.892 5.22 5.22 0 0 0 5.212 5.212 5.22 5.22 0 0 0 5.21-5.212 5.22 5.22 0 0 0-5.21-5.212 5.894 5.894 0 0 1-5.892-5.892 5.22 5.22 0 0 0-5.212-5.21m0 .8a4.41 4.41 0 0 1 4.412 4.41 6.704 6.704 0 0 0 6.692 6.692 4.412 4.412 0 1 1-4.412 4.412 6.704 6.704 0 0 0-6.692-6.692 4.412 4.412 0 0 1 0-8.822m48.43-13.474a5.22 5.22 0 0 0-5.212 5.212 5.894 5.894 0 0 1-5.892 5.89 5.22 5.22 0 0 0-5.21 5.212 5.22 5.22 0 0 0 5.21 5.212 5.22 5.22 0 0 0 5.212-5.212 5.894 5.894 0 0 1 5.892-5.892 5.22 5.22 0 0 0 5.212-5.21 5.22 5.22 0 0 0-5.212-5.212m0 .8a4.412 4.412 0 0 1 0 8.822 6.704 6.704 0 0 0-6.692 6.692 4.412 4.412 0 1 1-4.412-4.412 6.704 6.704 0 0 0 6.692-6.69 4.413 4.413 0 0 1 4.412-4.412m1.57 11.874a5.22 5.22 0 0 0-5.212 5.21 5.22 5.22 0 0 0 5.212 5.212 5.894 5.894 0 0 1 5.892 5.892 5.22 5.22 0 0 0 5.212 5.212 5.22 5.22 0 0 0 5.21-5.212 5.22 5.22 0 0 0-5.21-5.212 5.894 5.894 0 0 1-5.892-5.892 5.22 5.22 0 0 0-5.212-5.21m0 .8a4.41 4.41 0 0 1 4.412 4.41 6.704 6.704 0 0 0 6.692 6.692 4.412 4.412 0 1 1-4.412 4.412 6.704 6.704 0 0 0-6.692-6.692 4.412 4.412 0 0 1 0-8.822m-150-25.8a5.22 5.22 0 0 0-5.212 5.21 5.22 5.22 0 0 0 5.212 5.212A5.894 5.894 0 0 1 .34 43.226a5.22 5.22 0 0 0 5.212 5.212 5.22 5.22 0 0 0 5.21-5.212 5.22 5.22 0 0 0-5.21-5.212A5.894 5.894 0 0 1-.34 32.122a5.22 5.22 0 0 0-5.212-5.21m0 .8a4.41 4.41 0 0 1 4.412 4.41 6.704 6.704 0 0 0 6.692 6.692 4.412 4.412 0 1 1-4.412 4.412 6.704 6.704 0 0 0-6.692-6.692 4.412 4.412 0 0 1 0-8.822m25-.8a5.22 5.22 0 0 0-5.212 5.21 5.22 5.22 0 0 0 5.212 5.212 5.894 5.894 0 0 1 5.892 5.892 5.22 5.22 0 0 0 5.212 5.212 5.22 5.22 0 0 0 5.21-5.212 5.22 5.22 0 0 0-5.21-5.212 5.894 5.894 0 0 1-5.892-5.892 5.22 5.22 0 0 0-5.212-5.21m0 .8a4.41 4.41 0 0 1 4.412 4.41 6.704 6.704 0 0 0 6.692 6.692 4.412 4.412 0 1 1-4.412 4.412 6.704 6.704 0 0 0-6.692-6.692 4.412 4.412 0 0 1 0-8.822m23.43-13.474a5.22 5.22 0 0 0-5.212 5.212 5.894 5.894 0 0 1-5.892 5.89 5.22 5.22 0 0 0-5.21 5.212 5.22 5.22 0 0 0 5.21 5.212 5.22 5.22 0 0 0 5.212-5.212 5.894 5.894 0 0 1 5.892-5.892 5.22 5.22 0 0 0 5.212-5.21 5.22 5.22 0 0 0-5.212-5.212m0 .8a4.412 4.412 0 0 1 0 8.822 6.704 6.704 0 0 0-6.692 6.692 4.412 4.412 0 1 1-4.412-4.412 6.704 6.704 0 0 0 6.692-6.69 4.41 4.41 0 0 1 4.412-4.412m50-.8a5.22 5.22 0 0 0-5.212 5.212 5.894 5.894 0 0 1-5.892 5.89 5.22 5.22 0 0 0-5.21 5.212 5.22 5.22 0 0 0 5.21 5.212 5.22 5.22 0 0 0 5.212-5.212 5.894 5.894 0 0 1 5.892-5.892 5.22 5.22 0 0 0 5.212-5.21 5.22 5.22 0 0 0-5.212-5.212m0 .8a4.412 4.412 0 0 1 0 8.822 6.704 6.704 0 0 0-6.692 6.692 4.412 4.412 0 1 1-4.412-4.412 6.704 6.704 0 0 0 6.692-6.69 4.41 4.41 0 0 1 4.412-4.412m1.57 11.874a5.22 5.22 0 0 0-5.212 5.21 5.22 5.22 0 0 0 5.212 5.212 5.894 5.894 0 0 1 5.892 5.892 5.22 5.22 0 0 0 5.212 5.212 5.22 5.22 0 0 0 5.21-5.212 5.22 5.22 0 0 0-5.21-5.212 5.894 5.894 0 0 1-5.892-5.892 5.22 5.22 0 0 0-5.212-5.21m0 .8a4.41 4.41 0 0 1 4.412 4.41 6.704 6.704 0 0 0 6.692 6.692 4.412 4.412 0 1 1-4.412 4.412 6.704 6.704 0 0 0-6.692-6.692 4.412 4.412 0 0 1 0-8.822m-100 24.2a5.22 5.22 0 0 0-5.212 5.21 5.22 5.22 0 0 0 5.212 5.212A5.894 5.894 0 0 1 .34 68.226a5.22 5.22 0 0 0 5.212 5.212 5.22 5.22 0 0 0 5.21-5.212 5.22 5.22 0 0 0-5.21-5.212A5.894 5.894 0 0 1-.34 57.122a5.22 5.22 0 0 0-5.212-5.21m0 .8a4.41 4.41 0 0 1 4.412 4.41 6.704 6.704 0 0 0 6.692 6.692 4.412 4.412 0 1 1-4.412 4.412 6.704 6.704 0 0 0-6.692-6.692 4.412 4.412 0 0 1 0-8.822m50-.8a5.22 5.22 0 0 0-5.212 5.21 5.22 5.22 0 0 0 5.212 5.212 5.894 5.894 0 0 1 5.892 5.892 5.22 5.22 0 0 0 5.212 5.212 5.22 5.22 0 0 0 5.21-5.212 5.22 5.22 0 0 0-5.21-5.212 5.894 5.894 0 0 1-5.892-5.892 5.22 5.22 0 0 0-5.212-5.21m0 .8a4.41 4.41 0 0 1 4.412 4.41 6.704 6.704 0 0 0 6.692 6.692 4.412 4.412 0 1 1-4.412 4.412 6.704 6.704 0 0 0-6.692-6.692 4.412 4.412 0 0 1 0-8.822"/></svg>