<?xml version="1.0" standalone="no"?><!DOCTYPE svg PUBLIC "-//W3C//DTD SVG 1.1//EN" "http://www.w3.org/Graphics/SVG/1.1/DTD/svg11.dtd"><svg t="1676131288168" class="icon" viewBox="0 0 1024 1024" version="1.1" xmlns="http://www.w3.org/2000/svg" p-id="34798" xmlns:xlink="http://www.w3.org/1999/xlink" width="200" height="200"><path d="M743.04 421.12l-45.44-45.44-275.2 276.48H339.84V569.6l332.8-332.8 128 128 60.8-60.8c23.04-23.04 35.84-53.76 35.84-86.4 0-32.64-12.8-63.36-35.84-86.4-46.08-46.08-126.72-46.08-172.8 0L275.84 542.72v173.44h172.8l294.4-295.04z m-10.24-245.12c21.76-22.4 60.16-22.4 82.56 0a58.56 58.56 0 0 1 0 83.2l-15.36 14.72-82.56-82.56 15.36-15.36zM96 864h832v64h-832z" p-id="34799"></path></svg>