<?xml version="1.0" standalone="no"?><!DOCTYPE svg PUBLIC "-//W3C//DTD SVG 1.1//EN" "http://www.w3.org/Graphics/SVG/1.1/DTD/svg11.dtd"><svg t="1659949789323" class="icon" viewBox="0 0 1024 1024" version="1.1" xmlns="http://www.w3.org/2000/svg" p-id="9391" xmlns:xlink="http://www.w3.org/1999/xlink" width="200" height="200"><defs><style type="text/css"></style></defs><path d="M889.753333 560.913333A21.333333 21.333333 0 0 1 896 576v320a85.426667 85.426667 0 0 1-85.333333 85.333333H618.666667a21.333333 21.333333 0 0 1-21.333334-21.333333v-234.666667a42.713333 42.713333 0 0 0-42.666666-42.666666H469.333333a42.713333 42.713333 0 0 0-42.666666 42.666666v234.666667a21.333333 21.333333 0 0 1-21.333334 21.333333H213.333333a85.426667 85.426667 0 0 1-85.333333-85.333333V576a21.333333 21.333333 0 0 1 6.246667-15.086667l362.666666-362.666666a21.333333 21.333333 0 0 1 30.173334 0z m106.666667-64L896 396.493333V192a21.333333 21.333333 0 0 0-42.666667 0v161.826667L563.62 64.113333a73.093333 73.093333 0 0 0-103.24 0l-432.8 432.8a21.333333 21.333333 0 0 0 30.173333 30.173334l432.8-432.8a30.36 30.36 0 0 1 42.893334 0l432.8 432.8a21.333333 21.333333 0 1 0 30.173333-30.173334z" fill="#5C5C66" p-id="9392"></path></svg>