<?xml version="1.0" standalone="no"?><!DOCTYPE svg PUBLIC "-//W3C//DTD SVG 1.1//EN" "http://www.w3.org/Graphics/SVG/1.1/DTD/svg11.dtd"><svg t="1638548664337" class="icon" viewBox="0 0 1024 1024" version="1.1" xmlns="http://www.w3.org/2000/svg" p-id="9917" xmlns:xlink="http://www.w3.org/1999/xlink" width="200" height="200"><defs><style type="text/css"></style></defs><path d="M808.6 324.34c-27.64-43.62-65.32-81.3-108.94-108.94-1.6-1.02-3.46-1.56-5.36-1.56h-364.6c-1.9 0-3.76 0.54-5.36 1.56-43.62 27.64-81.3 65.32-108.94 108.94-1.02 1.6-1.56 3.46-1.56 5.36v364.6c0 1.9 0.54 3.76 1.56 5.36 27.64 43.62 65.32 81.3 108.94 108.94 1.6 1.02 3.46 1.56 5.36 1.56h364.6c1.9 0 3.76-0.54 5.36-1.56 43.62-27.64 81.3-65.32 108.94-108.94 1.02-1.6 1.56-3.46 1.56-5.36v-364.6c0-1.9-0.54-3.76-1.56-5.36z m-18.44 91.16h-64.02l-44.06-44.08a10.006 10.006 0 0 0-14.14 14.16l46.98 46.98c0.48 0.48 0.98 0.88 1.54 1.26 0.24 0.16 0.5 0.28 0.76 0.42 0.32 0.16 0.62 0.36 0.96 0.5 0.32 0.14 0.66 0.2 1 0.3 0.3 0.1 0.56 0.2 0.86 0.26 0.66 0.14 1.3 0.2 1.96 0.2h68.16V502h-81.14c-4.66-23.9-25.76-42-51.02-42-28.68 0-52 23.32-52 52s23.32 52 52 52c25.26 0 46.36-18.1 51.02-42h81.14v66.5H722c-0.66 0-1.32 0.06-1.96 0.2-0.3 0.06-0.56 0.16-0.86 0.26-0.34 0.1-0.68 0.16-1 0.3-0.34 0.14-0.66 0.34-0.98 0.52-0.24 0.14-0.5 0.24-0.74 0.4-0.56 0.38-1.08 0.8-1.54 1.26l-46.98 46.98a9.994 9.994 0 0 0 0 14.16c1.94 1.94 4.5 2.92 7.06 2.92 2.56 0 5.12-0.98 7.08-2.92l44.06-44.08h64.02v82.88c-25.4 39.32-59.46 73.38-98.78 98.78h-82.88v-64.02l44.08-44.06a10.006 10.006 0 0 0 0-14.14 9.97 9.97 0 0 0-14.14 0l-47 46.98c-0.46 0.46-0.88 0.98-1.26 1.54-0.16 0.24-0.26 0.48-0.4 0.72-0.18 0.34-0.36 0.64-0.52 1-0.12 0.32-0.2 0.66-0.3 1-0.08 0.28-0.2 0.56-0.26 0.86-0.12 0.66-0.2 1.3-0.2 1.96v68.16H522v-81.14c23.9-4.66 42-25.76 42-51.02 0-28.68-23.32-52-52-52s-52 23.32-52 52c0 25.26 18.1 46.36 42 51.02v81.14h-66.5V722c0-0.66-0.06-1.3-0.2-1.96-0.06-0.28-0.16-0.56-0.24-0.84-0.1-0.34-0.18-0.68-0.32-1.02s-0.32-0.64-0.5-0.94c-0.14-0.26-0.26-0.54-0.42-0.78a9.22 9.22 0 0 0-1.26-1.54l-46.98-46.98a9.97 9.97 0 0 0-14.14 0 9.97 9.97 0 0 0 0 14.14l44.06 44.06v64.02h-82.88c-39.32-25.4-73.38-59.46-98.78-98.78v-82.88h64.02l44.06 44.08a10.044 10.044 0 0 0 14.16 0 10.032 10.032 0 0 0 0-14.16l-47-46.98a9.22 9.22 0 0 0-1.54-1.26c-0.24-0.16-0.5-0.26-0.74-0.4-0.32-0.18-0.64-0.38-0.98-0.52-0.32-0.14-0.66-0.2-1-0.3-0.28-0.1-0.56-0.2-0.86-0.26-0.64-0.14-1.3-0.2-1.96-0.2h-68.16V522h81.14c4.68 23.9 25.76 42 51.02 42 28.68 0 52-23.32 52-52s-23.32-52-52-52c-25.26 0-46.34 18.1-51.02 42h-81.14v-66.5H302c0.66 0 1.32-0.06 1.96-0.2 0.3-0.06 0.56-0.16 0.84-0.24 0.34-0.1 0.7-0.18 1.02-0.32 0.34-0.14 0.64-0.32 0.94-0.5 0.26-0.14 0.54-0.26 0.78-0.42 0.52-0.36 1-0.74 1.46-1.18 0.02-0.02 0.04-0.04 0.08-0.06l47-47a10.032 10.032 0 0 0 0-14.16 10.032 10.032 0 0 0-14.16 0l-44.06 44.08h-64.02v-82.88c25.4-39.32 59.46-73.38 98.78-98.78h82.88v64.02l-44.06 44.06a9.994 9.994 0 0 0 0 14.16c1.94 1.94 4.5 2.92 7.06 2.92s5.12-0.98 7.08-2.92l47-47c0.02-0.04 0.04-0.06 0.06-0.08 0.44-0.46 0.84-0.94 1.18-1.46 0.16-0.24 0.28-0.52 0.44-0.8 0.16-0.3 0.34-0.6 0.48-0.92 0.14-0.34 0.22-0.68 0.32-1.04 0.08-0.28 0.18-0.54 0.24-0.82 0.14-0.64 0.2-1.3 0.2-1.96v-68.16H502v81.14c-23.9 4.68-42 25.76-42 51.02 0 28.68 23.32 52 52 52s52-23.32 52-52c0-25.26-18.1-46.34-42-51.02v-81.14h66.5V302c0 0.66 0.08 1.32 0.2 1.96 0.06 0.3 0.16 0.56 0.26 0.86 0.1 0.34 0.18 0.68 0.3 1 0.14 0.34 0.34 0.64 0.52 0.96 0.14 0.26 0.24 0.52 0.4 0.76 0.38 0.56 0.78 1.06 1.26 1.54l47 47c1.94 1.94 4.5 2.92 7.06 2.92 2.56 0 5.12-0.98 7.08-2.92a10.032 10.032 0 0 0 0-14.16l-44.08-44.06v-64.02h82.88c39.32 25.4 73.38 59.48 98.78 98.78v82.88zM690 512c0 17.64-14.36 32-32 32s-32-14.36-32-32 14.36-32 32-32 32 14.36 32 32z m-178 178c-17.64 0-32-14.36-32-32s14.36-32 32-32 32 14.36 32 32-14.36 32-32 32z m-178-178c0-17.64 14.36-32 32-32s32 14.36 32 32-14.36 32-32 32-32-14.36-32-32z m178-178c17.64 0 32 14.36 32 32s-14.36 32-32 32-32-14.36-32-32 14.36-32 32-32z" fill="#23130D" p-id="9918"></path><path d="M522 546v30c0 5.52-4.48 10-10 10s-10-4.48-10-10v-30c0-5.52 4.48-10 10-10s10 4.48 10 10zM522 448v30c0 5.52-4.48 10-10 10s-10-4.48-10-10v-30c0-5.52 4.48-10 10-10s10 4.48 10 10zM586 512c0 5.52-4.48 10-10 10h-30c-5.52 0-10-4.48-10-10s4.48-10 10-10h30c5.52 0 10 4.48 10 10zM488 512c0 5.52-4.48 10-10 10h-30c-5.52 0-10-4.48-10-10s4.48-10 10-10h30c5.52 0 10 4.48 10 10z" fill="#23130D" p-id="9919"></path><path d="M958.8 410.1c5.52 0 10-4.48 10-10s-4.48-10-10-10h-61.64v-54.6h61.64c5.52 0 10-4.48 10-10s-4.48-10-10-10h-61.64v-40.84c0-1.9-0.54-3.74-1.56-5.34-35.74-56.44-84.48-105.16-140.92-140.92-1.6-1.02-3.44-1.56-5.34-1.56h-40.84V65.2c0-5.52-4.48-10-10-10s-10 4.48-10 10v61.64h-54.6V65.2c0-5.52-4.48-10-10-10s-10 4.48-10 10v61.64h-54.6V65.2c0-5.52-4.48-10-10-10s-10 4.48-10 10v61.64h-54.6V65.2c0-5.52-4.48-10-10-10s-10 4.48-10 10v61.64h-54.6V65.2c0-5.52-4.48-10-10-10s-10 4.48-10 10v61.64h-54.6V65.2c0-5.52-4.48-10-10-10s-10 4.48-10 10v61.64h-40.84c-1.9 0-3.74 0.54-5.34 1.56-56.44 35.74-105.16 84.48-140.92 140.92-1.02 1.6-1.56 3.44-1.56 5.34v40.84H65.2c-5.52 0-10 4.48-10 10s4.48 10 10 10h61.64v54.6H65.2c-5.52 0-10 4.48-10 10s4.48 10 10 10h61.64v54.6H65.2c-5.52 0-10 4.48-10 10s4.48 10 10 10h61.64v54.6H65.2c-5.52 0-10 4.48-10 10s4.48 10 10 10h61.64v54.6H65.2c-5.52 0-10 4.48-10 10s4.48 10 10 10h61.64v54.6H65.2c-5.52 0-10 4.48-10 10s4.48 10 10 10h61.64v40.84c0 1.9 0.54 3.74 1.56 5.34 35.76 56.44 84.48 105.16 140.92 140.92 1.6 1.02 3.44 1.56 5.34 1.56h40.84v61.64c0 5.52 4.48 10 10 10s10-4.48 10-10v-61.64h54.6v61.64c0 5.52 4.48 10 10 10s10-4.48 10-10v-61.64h54.6v61.64c0 5.52 4.48 10 10 10s10-4.48 10-10v-61.64h54.6v61.64c0 5.52 4.48 10 10 10s10-4.48 10-10v-61.64h54.6v61.64c0 5.52 4.48 10 10 10s10-4.48 10-10v-61.64h54.6v61.64c0 5.52 4.48 10 10 10s10-4.48 10-10v-61.64h40.84c1.9 0 3.74-0.54 5.34-1.56 56.44-35.76 105.16-84.48 140.92-140.92 1.02-1.6 1.56-3.44 1.56-5.34v-40.84h61.64c5.52 0 10-4.48 10-10s-4.48-10-10-10h-61.64v-54.6h61.64c5.52 0 10-4.48 10-10s-4.48-10-10-10h-61.64v-54.6h61.64c5.52 0 10-4.48 10-10s-4.48-10-10-10h-61.64v-54.6h61.64c5.52 0 10-4.48 10-10s-4.48-10-10-10h-61.64v-54.6h61.64z m-81.64 336.32c-33.52 52.1-78.64 97.22-130.74 130.74H277.58c-52.1-33.52-97.22-78.64-130.74-130.74V277.58c33.52-52.1 78.64-97.22 130.74-130.74h468.84c52.1 33.52 97.22 78.64 130.74 130.74v468.84z" fill="#23130D" p-id="9920"></path><path d="M746.42 146.84H277.58c-52.1 33.52-97.22 78.64-130.74 130.74v468.84c33.52 52.1 78.64 97.22 130.74 130.74h468.84c52.1-33.52 97.22-78.64 130.74-130.74V277.58c-33.52-52.1-78.64-97.22-130.74-130.74z m63.74 547.46c0 1.9-0.54 3.76-1.56 5.36-27.64 43.62-65.32 81.3-108.94 108.94-1.6 1.02-3.46 1.56-5.36 1.56h-364.6c-1.9 0-3.76-0.54-5.36-1.56-43.62-27.64-81.3-65.32-108.94-108.94-1.02-1.6-1.56-3.46-1.56-5.36v-364.6c0-1.9 0.54-3.76 1.56-5.36 27.64-43.62 65.32-81.3 108.94-108.94 1.6-1.02 3.46-1.56 5.36-1.56h364.6c1.9 0 3.76 0.54 5.36 1.56 43.62 27.64 81.3 65.32 108.94 108.94 1.02 1.6 1.56 3.46 1.56 5.36v364.6z" fill="#E1E1E5" p-id="9921"></path><path d="M743.462 156.84c49.004 32.018 91.68 74.694 123.698 123.698v462.924c-32.018 49.004-74.694 91.68-123.698 123.698H280.538c-49.004-32.018-91.68-74.694-123.698-123.698V280.538c32.018-49.004 74.694-91.68 123.698-123.698h462.924M329.7 820.16h364.6a19.906 19.906 0 0 0 10.712-3.114c44.864-28.428 83.606-67.17 112.02-112.012a19.94 19.94 0 0 0 3.128-10.736v-364.6a19.906 19.906 0 0 0-3.114-10.712c-28.428-44.864-67.17-83.606-112.012-112.02a19.94 19.94 0 0 0-10.736-3.128h-364.6a19.906 19.906 0 0 0-10.712 3.114c-44.864 28.428-83.606 67.17-112.02 112.012a19.94 19.94 0 0 0-3.128 10.736v364.6c0 3.814 1.082 7.526 3.114 10.712 28.428 44.864 67.17 83.606 112.012 112.02a19.94 19.94 0 0 0 10.736 3.128M746.42 146.84H277.58c-52.1 33.52-97.22 78.64-130.74 130.74v468.84c33.52 52.1 78.64 97.22 130.74 130.74h468.84c52.1-33.52 97.22-78.64 130.74-130.74V277.58c-33.52-52.1-78.64-97.22-130.74-130.74zM329.7 810.16c-1.9 0-3.76-0.54-5.36-1.56-43.62-27.64-81.3-65.32-108.94-108.94-1.02-1.6-1.56-3.46-1.56-5.36v-364.6c0-1.9 0.54-3.76 1.56-5.36 27.64-43.62 65.32-81.3 108.94-108.94 1.6-1.02 3.46-1.56 5.36-1.56h364.6c1.9 0 3.76 0.54 5.36 1.56 43.62 27.64 81.3 65.32 108.94 108.94 1.02 1.6 1.56 3.46 1.56 5.36v364.6c0 1.9-0.54 3.76-1.56 5.36-27.64 43.62-65.32 81.3-108.94 108.94-1.6 1.02-3.46 1.56-5.36 1.56h-364.6z" opacity=".2" p-id="9922"></path><path d="M690 512c0 17.64-14.36 32-32 32s-32-14.36-32-32 14.36-32 32-32 32 14.36 32 32zM544 658c0 1.68-0.14 3.34-0.4 4.96a30.9 30.9 0 0 1-3.46 10.22c-0.96 1.82-2.12 3.54-3.44 5.12-1.22 1.5-2.58 2.88-4.08 4.14-0.76 0.64-1.54 1.26-2.36 1.8-2.16 1.52-4.5 2.76-7 3.7-3.5 1.34-7.3 2.06-11.26 2.06-17.64 0-32-14.36-32-32 0-3.96 0.72-7.76 2.06-11.26 0.94-2.5 2.18-4.84 3.7-7 0.54-0.82 1.16-1.6 1.8-2.36 1.26-1.5 2.64-2.86 4.14-4.08 1.58-1.32 3.3-2.48 5.12-3.44a30.9 30.9 0 0 1 10.22-3.46c1.62-0.26 3.28-0.4 4.96-0.4 17.64 0 32 14.36 32 32zM398 512c0 17.64-14.36 32-32 32s-32-14.36-32-32 14.36-32 32-32 32 14.36 32 32zM544 366c0 17.64-14.36 32-32 32s-32-14.36-32-32 14.36-32 32-32 32 14.36 32 32z" fill="#F9C139" p-id="9923"></path><path d="M658 486c14.336 0 26 11.664 26 26s-11.664 26-26 26-26-11.664-26-26 11.664-26 26-26m0-6c-17.64 0-32 14.36-32 32s14.36 32 32 32 32-14.36 32-32-14.36-32-32-32zM512 632c14.336 0 26 11.664 26 26s-11.664 26-26 26-26-11.664-26-26 11.664-26 26-26m0-6c-17.64 0-32 14.36-32 32s14.36 32 32 32 32-14.36 32-32-14.36-32-32-32zM366 486c14.336 0 26 11.664 26 26s-11.664 26-26 26-26-11.664-26-26 11.664-26 26-26m0-6c-17.64 0-32 14.36-32 32s14.36 32 32 32 32-14.36 32-32-14.36-32-32-32zM512 340c14.336 0 26 11.664 26 26s-11.664 26-26 26-26-11.664-26-26 11.664-26 26-26m0-6c-17.64 0-32 14.36-32 32s14.36 32 32 32 32-14.36 32-32-14.36-32-32-32z" opacity=".2" p-id="9924"></path><path d="M682.08 371.42l44.06 44.08h64.02v-82.88c-25.4-39.3-59.46-73.38-98.78-98.78h-82.88v64.02l44.08 44.06a10.032 10.032 0 0 1 0 14.16c-1.96 1.94-4.52 2.92-7.08 2.92-2.56 0-5.12-0.98-7.06-2.92l-47-47c-0.48-0.48-0.88-0.98-1.26-1.54-0.16-0.24-0.26-0.5-0.4-0.76-0.18-0.32-0.38-0.62-0.52-0.96-0.12-0.32-0.2-0.66-0.3-1-0.1-0.3-0.2-0.56-0.26-0.86-0.12-0.64-0.2-1.3-0.2-1.96v-68.16H522v81.14c22.96 4.5 40.56 24.12 41.9 48.06 0.08 0.98 0.1 1.96 0.1 2.96 0 28.68-23.32 52-52 52s-52-23.32-52-52c0-25.26 18.1-46.34 42-51.02v-81.14h-66.5V302c0 0.66-0.06 1.32-0.2 1.96-0.06 0.28-0.16 0.54-0.24 0.82-0.1 0.36-0.18 0.7-0.32 1.04-0.14 0.32-0.32 0.62-0.48 0.92-0.16 0.28-0.28 0.56-0.44 0.8-0.34 0.52-0.74 1-1.18 1.46-0.02 0.02-0.04 0.04-0.06 0.08l-29.14 29.16-17.86 17.84c-1.96 1.94-4.52 2.92-7.08 2.92s-5.12-0.98-7.06-2.92a9.994 9.994 0 0 1 0-14.16l44.06-44.06v-64.02h-82.88a336.16 336.16 0 0 0-19.76 13.82 336.336 336.336 0 0 0-44.56 40.46 334.814 334.814 0 0 0-34.46 44.5v82.88h64.02l8.1-8.12 35.96-35.96c1.88-1.86 4.32-2.84 6.78-2.9 2.66-0.1 5.34 0.88 7.38 2.9a9.936 9.936 0 0 1 2.9 7.38 9.886 9.886 0 0 1-2.9 6.78l-35.96 35.96-11.04 11.04c-0.04 0.02-0.06 0.04-0.08 0.06-0.46 0.44-0.94 0.82-1.46 1.18-0.24 0.16-0.52 0.28-0.78 0.42-0.3 0.18-0.6 0.36-0.94 0.5-0.32 0.14-0.68 0.22-1.02 0.32-0.28 0.08-0.54 0.18-0.84 0.24-0.64 0.14-1.3 0.2-1.96 0.2h-68.16V502h81.14a52.03 52.03 0 0 1 15.96-28.36 51.84 51.84 0 0 1 28.08-13.18h0.02c2.28-0.3 4.6-0.46 6.96-0.46 28.68 0 52 23.32 52 52 0 2.36-0.16 4.66-0.48 6.94-1.42 10.76-6.18 20.5-13.14 28.14-9.52 10.38-23.2 16.92-38.38 16.92-25.26 0-46.34-18.1-51.02-42h-81.14v66.5H302c0.66 0 1.32 0.06 1.96 0.2 0.3 0.06 0.58 0.16 0.86 0.26 0.34 0.1 0.68 0.16 1 0.3 0.34 0.14 0.66 0.34 0.98 0.52 0.24 0.14 0.5 0.24 0.74 0.4 0.56 0.36 1.06 0.78 1.54 1.26l47 46.98a10.032 10.032 0 0 1 0 14.16 10.044 10.044 0 0 1-14.16 0l-44.06-44.08h-64.02v82.88c25.4 39.32 59.46 73.38 98.78 98.78h82.88v-64.02l-44.06-44.06a9.97 9.97 0 0 1 0-14.14 9.97 9.97 0 0 1 14.14 0l46.98 46.98c0.48 0.48 0.9 0.98 1.26 1.54 0.16 0.24 0.28 0.52 0.42 0.78 0.18 0.3 0.36 0.6 0.5 0.94s0.22 0.68 0.32 1.02c0.08 0.28 0.18 0.56 0.24 0.84 0.14 0.66 0.2 1.3 0.2 1.96v68.16H502v-81.14c-23.9-4.66-42-25.76-42-51.02 0-15.18 6.54-28.86 16.92-38.38 7.64-6.96 17.38-11.72 28.14-13.14 2.28-0.32 4.58-0.48 6.94-0.48 28.68 0 52 23.32 52 52 0 2.36-0.16 4.68-0.46 6.96v0.02c-1.46 10.74-6.2 20.46-13.18 28.08a52.014 52.014 0 0 1-28.36 15.96v81.14h66.5V722c0-0.66 0.08-1.3 0.2-1.96 0.06-0.3 0.18-0.58 0.26-0.86 0.1-0.34 0.18-0.68 0.3-1 0.16-0.36 0.34-0.66 0.52-1 0.14-0.24 0.24-0.48 0.4-0.72 0.38-0.56 0.8-1.08 1.26-1.54l11.04-11.02 35.96-35.96c1.88-1.88 4.3-2.86 6.76-2.92a9.88 9.88 0 0 1 7.38 2.92 9.862 9.862 0 0 1 2.9 7.36 9.976 9.976 0 0 1-2.9 6.78l-35.96 35.96-8.12 8.1v64.02h82.88c15.74-10.18 30.64-21.74 44.5-34.46 14.78-13.62 28.36-28.54 40.46-44.56 4.84-6.42 9.46-13.02 13.82-19.76v-82.88h-64.02l-26.22 26.22-17.84 17.86c-1.96 1.94-4.52 2.92-7.08 2.92-2.56 0-5.12-0.98-7.06-2.92a9.994 9.994 0 0 1 0-14.16l46.98-46.98c0.46-0.46 0.98-0.88 1.54-1.26 0.24-0.16 0.5-0.26 0.74-0.4 0.32-0.18 0.64-0.38 0.98-0.52 0.32-0.14 0.66-0.2 1-0.3 0.3-0.1 0.56-0.2 0.86-0.26 0.64-0.14 1.3-0.2 1.96-0.2h68.16V522h-81.14c-4.66 23.9-25.76 42-51.02 42-28.68 0-52-23.32-52-52s23.32-52 52-52c1 0 1.98 0.02 2.96 0.1 23.94 1.34 43.58 18.94 48.06 41.9h81.14v-66.5H722c-0.66 0-1.3-0.06-1.96-0.2-0.3-0.06-0.56-0.16-0.86-0.26-0.34-0.1-0.68-0.16-1-0.3-0.34-0.14-0.64-0.34-0.96-0.5-0.26-0.14-0.52-0.26-0.76-0.42-0.56-0.38-1.06-0.78-1.54-1.26l-46.98-46.98a10.006 10.006 0 0 1 14.14-14.16zM512 438c5.52 0 10 4.48 10 10v30c0 5.52-4.48 10-10 10s-10-4.48-10-10v-30c0-3.06 1.38-5.82 3.56-7.64A9.88 9.88 0 0 1 512 438z m-24 74c0 5.52-4.48 10-10 10h-30c-5.52 0-10-4.48-10-10s4.48-10 10-10h30c2.76 0 5.26 1.12 7.08 2.92 1.8 1.82 2.92 4.32 2.92 7.08z m34 34v30c0 5.52-4.48 10-10 10s-10-4.48-10-10v-30c0-5.52 4.48-10 10-10 2.76 0 5.26 1.12 7.08 2.92 1.8 1.82 2.92 4.32 2.92 7.08z m54-24h-30c-5.52 0-10-4.48-10-10s4.48-10 10-10h30c5.52 0 10 4.48 10 10 0 2.46-0.88 4.7-2.36 6.44A9.94 9.94 0 0 1 576 522z" fill="#72AF5F" p-id="9925"></path><path d="M530.26 684.24c-2.16 1.52-4.5 2.76-7 3.7l-41.2-41.2c0.94-2.5 2.18-4.84 3.7-7l44.5 44.5zM536.7 678.3c-1.22 1.5-2.58 2.88-4.08 4.14l-45.06-45.06c1.26-1.5 2.64-2.86 4.14-4.08l45 45zM543.6 662.96a30.9 30.9 0 0 1-3.46 10.22l-43.32-43.32a30.9 30.9 0 0 1 10.22-3.46l36.56 36.56z" fill="#FFFFFF" opacity=".4" p-id="9926"></path><path d="M530.26 392.196c-2.16 1.52-4.5 2.76-7 3.7l-41.2-41.2c0.94-2.5 2.18-4.84 3.7-7l44.5 44.5zM536.7 386.256c-1.22 1.5-2.58 2.88-4.08 4.14l-45.06-45.06c1.26-1.5 2.64-2.86 4.14-4.08l45 45zM543.6 370.914a30.9 30.9 0 0 1-3.46 10.22l-43.32-43.32a30.9 30.9 0 0 1 10.22-3.46l36.56 36.56z" fill="#FFFFFF" opacity=".4" p-id="9927"></path><path d="M676.452 538.15c-2.16 1.52-4.5 2.76-7 3.7l-41.2-41.2c0.94-2.5 2.18-4.84 3.7-7l44.5 44.5zM682.892 532.21c-1.22 1.5-2.58 2.88-4.08 4.14l-45.06-45.06c1.26-1.5 2.64-2.86 4.14-4.08l45 45zM689.792 516.87a30.9 30.9 0 0 1-3.46 10.22l-43.32-43.32a30.9 30.9 0 0 1 10.22-3.46l36.56 36.56z" fill="#FFFFFF" opacity=".4" p-id="9928"></path><path d="M384.364 538.35c-2.16 1.52-4.5 2.76-7 3.7l-41.2-41.2c0.94-2.5 2.18-4.84 3.7-7l44.5 44.5zM390.804 532.41c-1.22 1.5-2.58 2.88-4.08 4.14l-45.06-45.06c1.26-1.5 2.64-2.86 4.14-4.08l45 45zM397.704 517.07a30.9 30.9 0 0 1-3.46 10.22l-43.32-43.32a30.9 30.9 0 0 1 10.22-3.46l36.56 36.56z" fill="#FFFFFF" opacity=".4" p-id="9929"></path><path d="M272.8 415.5h-38.96v-38.96zM314.98 502h-61.84l-19.3-19.3v-47.2h58.96l38.14 38.14a52.03 52.03 0 0 0-15.96 28.36zM502 709.02v41.84L273.14 522h41.84c4.68 23.9 25.76 42 51.02 42 15.18 0 28.86-6.54 38.38-16.92l72.54 72.54c-10.38 9.52-16.92 23.2-16.92 38.38 0 25.26 18.1 46.36 42 51.02zM588.5 731.2v58.96h-47.2l-19.3-19.3v-61.84c11.14-2.18 21-7.92 28.36-15.96l38.14 38.14zM647.46 790.16h-38.96V751.2zM341.92 371.42l-35.96 35.96-72.12-72.12v-2.64c10.18-15.74 21.74-30.64 34.46-44.5l80.4 80.4c-2.46 0.06-4.9 1.04-6.78 2.9zM645.2 665.02c-2.46 0.06-4.88 1.04-6.76 2.92l-35.96 35.96-38.94-38.92v-0.02c0.3-2.28 0.46-4.6 0.46-6.96 0-28.68-23.32-52-52-52-2.36 0-4.66 0.16-6.94 0.48l-87.54-87.54c0.32-2.28 0.48-4.58 0.48-6.94 0-28.68-23.32-52-52-52-2.36 0-4.68 0.16-6.96 0.46h-0.02l-38.9-38.92 35.96-35.96c1.88-1.88 2.84-4.32 2.9-6.78l126.1 126.12c-1.82-1.8-4.32-2.92-7.08-2.92h-30c-5.52 0-10 4.48-10 10s4.48 10 10 10h30c5.52 0 10-4.48 10-10 0-2.76-1.12-5.26-2.92-7.08l34 34c-1.82-1.8-4.32-2.92-7.08-2.92-5.52 0-10 4.48-10 10v30c0 5.52 4.48 10 10 10s10-4.48 10-10v-30c0-2.76-1.12-5.26-2.92-7.08l126.12 126.1zM735.88 755.7a334.814 334.814 0 0 1-44.5 34.46h-2.64l-72.12-72.12 35.96-35.96c1.86-1.88 2.84-4.32 2.9-6.78l80.4 80.4zM415.5 297.86l-26.22 26.22-76.42-76.42c6.42-4.84 13.02-9.46 19.76-13.82h82.88v64.02zM789.36 588.5H722c-0.66 0-1.32 0.06-1.96 0.2-0.3 0.06-0.56 0.16-0.86 0.26-0.34 0.1-0.68 0.16-1 0.3-0.34 0.14-0.66 0.34-0.98 0.52-0.24 0.14-0.5 0.24-0.74 0.4-0.56 0.38-1.08 0.8-1.54 1.26l-29.14 29.14-102.14-102.14A9.88 9.88 0 0 0 586 512c0-5.52-4.48-10-10-10h-8.8L522 456.8V448c0-5.52-4.48-10-10-10-2.46 0-4.7 0.88-6.44 2.36l-102.12-102.12 29.14-29.16c0.02-0.04 0.04-0.06 0.06-0.08 0.44-0.46 0.84-0.94 1.18-1.46 0.16-0.24 0.28-0.52 0.44-0.8 0.16-0.3 0.34-0.6 0.48-0.92 0.14-0.34 0.22-0.68 0.32-1.04 0.08-0.28 0.18-0.54 0.24-0.82 0.14-0.64 0.2-1.3 0.2-1.96v-67.36L502 301.14v13.84c-23.9 4.68-42 25.76-42 51.02 0 28.68 23.32 52 52 52s52-23.32 52-52c0-1-0.02-1.98-0.1-2.96l97.06 97.06c-0.98-0.08-1.96-0.1-2.96-0.1-28.68 0-52 23.32-52 52s23.32 52 52 52c25.26 0 46.36-18.1 51.02-42h13.84l66.5 66.5zM790.16 608.5v82.88a336.16 336.16 0 0 1-13.82 19.76l-76.42-76.42 26.22-26.22h64.02z" fill="#FFFFFF" opacity=".4" p-id="9930"></path></svg>