<?xml version="1.0" standalone="no"?><!DOCTYPE svg PUBLIC "-//W3C//DTD SVG 1.1//EN" "http://www.w3.org/Graphics/SVG/1.1/DTD/svg11.dtd"><svg t="1638549107671" class="icon" viewBox="0 0 1024 1024" version="1.1" xmlns="http://www.w3.org/2000/svg" p-id="2116" xmlns:xlink="http://www.w3.org/1999/xlink" width="200" height="200"><defs><style type="text/css"></style></defs><path d="M864 120h-64a8 8 0 0 1 0-16h64a8 8 0 0 1 0 16z" fill="#263238" p-id="2117"></path><path d="M832 152a8 8 0 0 1-8-8V80a8 8 0 0 1 16 0v64a8 8 0 0 1-8 8zM944 200h-64a8 8 0 0 1 0-16h64a8 8 0 0 1 0 16z" fill="#263238" p-id="2118"></path><path d="M912 232a8 8 0 0 1-8-8v-64a8 8 0 0 1 16 0v64a8 8 0 0 1-8 8z" fill="#263238" p-id="2119"></path><path d="M512 232a24 24 0 0 1-24-24V88a24 24 0 0 1 48 0V208a24 24 0 0 1-24 24z" fill="#FFD740" p-id="2120"></path><path d="M512 240c-17.648 0-32-14.352-32-32V88c0-17.648 14.352-32 32-32s32 14.352 32 32V208c0 17.648-14.336 32-32 32z m0-168c-8.816 0-16 7.184-16 16V208c0 8.816 7.184 16 16 16s16-7.184 16-16V88c0-8.816-7.168-16-16-16z" fill="#263238" p-id="2121"></path><path d="M512 960a24 24 0 0 1-24-24V816a24 24 0 1 1 48 0v120A24 24 0 0 1 512 960z" fill="#FFD740" p-id="2122"></path><path d="M512 968c-17.648 0-32-14.352-32-32V816c0-17.648 14.352-32 32-32s32 14.352 32 32v120c0 17.648-14.336 32-32 32zM512 800c-8.816 0-16 7.184-16 16v120c0 8.816 7.184 16 16 16s16-7.184 16-16V816c0-8.816-7.168-16-16-16z" fill="#263238" p-id="2123"></path><path d="M792 512a24 24 0 0 1 24-24h120a24 24 0 1 1 0 48H816a24 24 0 0 1-24-24z" fill="#FFD740" p-id="2124"></path><path d="M936 544H816c-17.648 0-32-14.352-32-32s14.352-32 32-32h120c17.648 0 32 14.352 32 32s-14.336 32-32 32zM816 496c-8.816 0-16 7.184-16 16s7.184 16 16 16h120c8.816 0 16-7.184 16-16s-7.184-16-16-16H816z" fill="#263238" p-id="2125"></path><path d="M64 512a24 24 0 0 1 24-24H208a24 24 0 1 1 0 48H88A24 24 0 0 1 64 512z" fill="#FFD740" p-id="2126"></path><path d="M208 544H88c-17.648 0-32-14.352-32-32s14.352-32 32-32H208c17.648 0 32 14.352 32 32s-14.336 32-32 32z m-120-48c-8.816 0-16 7.184-16 16s7.184 16 16 16H208c8.816 0 16-7.184 16-16s-7.184-16-16-16H88zM131.104 464a8 8 0 0 1-7.936-8.992c21.728-174.112 158.112-313.44 331.68-338.816a8 8 0 1 1 2.32 15.824C290.688 156.352 159.872 290 139.04 456.992a8 8 0 0 1-7.936 7.008z" fill="#263238" p-id="2127"></path><path d="M179.824 464a8.016 8.016 0 0 1-7.92-9.136 342.032 342.032 0 0 1 282.784-289.712 8 8 0 0 1 2.656 15.776 326.08 326.08 0 0 0-269.6 276.208 8 8 0 0 1-7.92 6.864zM892.912 464a8 8 0 0 1-7.936-7.008c-20.848-167.008-151.664-300.64-318.128-324.976a8 8 0 0 1 2.32-15.824c173.568 25.36 309.952 164.688 331.68 338.816a8 8 0 0 1-7.936 8.992z" fill="#263238" p-id="2128"></path><path d="M844.176 464a8.032 8.032 0 0 1-7.92-6.864 326.064 326.064 0 0 0-269.584-276.208 8 8 0 0 1 2.656-15.776 342.016 342.016 0 0 1 282.768 289.712 8.016 8.016 0 0 1-7.92 9.136zM568 842.96a8 8 0 0 1-1.328-15.888c134.096-22.544 241.472-127.264 267.216-260.592a7.984 7.984 0 1 1 15.696 3.024c-26.992 139.84-139.632 249.68-280.272 273.328a6.08 6.08 0 0 1-1.312 0.128z" fill="#263238" p-id="2129"></path><path d="M568 891.888a8 8 0 0 1-1.152-15.92 374.272 374.272 0 0 0 315.856-309.296 8 8 0 1 1 15.792 2.64 390.176 390.176 0 0 1-329.328 322.48 5.856 5.856 0 0 1-1.168 0.096zM456.016 842.96a7.568 7.568 0 0 1-1.328-0.112c-140.64-23.648-253.28-133.488-280.272-273.328a7.984 7.984 0 1 1 15.696-3.024c25.744 133.328 133.12 238.032 267.216 260.592a8 8 0 0 1-1.312 15.872z" fill="#263238" p-id="2130"></path><path d="M456.016 891.888a7.296 7.296 0 0 1-1.168-0.08A390.208 390.208 0 0 1 125.52 569.328a8.016 8.016 0 0 1 15.776-2.656 374.24 374.24 0 0 0 315.856 309.312 8 8 0 0 1-1.136 15.904zM512 336a8 8 0 0 1-8-8v-48a8 8 0 0 1 16 0v48a8 8 0 0 1-8 8zM512 432a8 8 0 0 1-8-8v-48a8 8 0 0 1 16 0v48a8 8 0 0 1-8 8zM512 656a8 8 0 0 1-8-8v-48a8 8 0 0 1 16 0v48a8 8 0 0 1-8 8zM512 752a8 8 0 0 1-8-8v-48a8 8 0 0 1 16 0v48a8 8 0 0 1-8 8zM744 520h-48a8 8 0 0 1 0-16h48a8 8 0 0 1 0 16z" fill="#263238" p-id="2131"></path><path d="M648 520h-48a8 8 0 0 1 0-16h48a8 8 0 0 1 0 16z" fill="#263238" p-id="2132"></path><path d="M424 520h-48a8 8 0 0 1 0-16h48a8 8 0 0 1 0 16z" fill="#263238" p-id="2133"></path><path d="M328 520h-48a8 8 0 0 1 0-16h48a8 8 0 0 1 0 16z" fill="#263238" p-id="2134"></path><path d="M512 512m-40 0a40 40 0 1 0 80 0 40 40 0 1 0-80 0Z" fill="#FF5252" p-id="2135"></path></svg>