<?xml version="1.0" standalone="no"?><!DOCTYPE svg PUBLIC "-//W3C//DTD SVG 1.1//EN" "http://www.w3.org/Graphics/SVG/1.1/DTD/svg11.dtd"><svg t="1660198018145" class="icon" viewBox="0 0 1024 1024" version="1.1" xmlns="http://www.w3.org/2000/svg" p-id="63754" xmlns:xlink="http://www.w3.org/1999/xlink" width="200" height="200"><defs><style type="text/css"></style></defs><path d="M618.666667 512c0-53.333333-36.266667-96-85.333334-106.666667v-106.666666c29.866667-8.533333 53.333333-40.533333 53.333334-72.533334 0-42.666667-34.133333-76.8-74.666667-76.8s-74.666667 34.133333-74.666667 76.8c0 34.133333 23.466667 64 53.333334 72.533334v106.666666c-49.066667 10.666667-85.333333 55.466667-85.333334 106.666667s36.266667 96 85.333334 106.666667v106.666666c-29.866667 8.533333-53.333333 40.533333-53.333334 72.533334 0 42.666667 34.133333 76.8 74.666667 76.8s74.666667-34.133333 74.666667-76.8c0-34.133333-23.466667-64-53.333334-72.533334v-106.666666c49.066667-10.666667 85.333333-53.333333 85.333334-106.666667z m-138.666667-285.866667c0-17.066667 14.933333-32 32-32s32 14.933333 32 32-14.933333 32-32 32-32-14.933333-32-32z m64 571.733334c0 17.066667-14.933333 32-32 32s-32-14.933333-32-32 14.933333-32 32-32 32 14.933333 32 32zM512 578.133333c-36.266667 0-64-27.733333-64-66.133333s27.733333-66.133333 64-66.133333 64 27.733333 64 66.133333-27.733333 66.133333-64 66.133333zM106.666667 445.866667c-36.266667 0-64 27.733333-64 66.133333s27.733333 66.133333 64 66.133333 64-27.733333 64-66.133333-27.733333-66.133333-64-66.133333z m0 110.933333c-23.466667 0-42.666667-19.2-42.666667-44.8s19.2-44.8 42.666667-44.8 42.666667 19.2 42.666666 44.8-19.2 44.8-42.666666 44.8z m192 2.133333V490.666667h-21.333334v68.266666c-29.866667 4.266667-53.333333 32-53.333333 64 0 38.4 27.733333 66.133333 64 66.133334s64-27.733333 64-66.133334c0-34.133333-23.466667-59.733333-53.333333-64z m-10.666667 106.666667c-23.466667 0-42.666667-19.2-42.666667-44.8 0-23.466667 19.2-44.8 42.666667-44.8s42.666667 19.2 42.666667 44.8c0 25.6-19.2 44.8-42.666667 44.8zM917.333333 445.866667c-36.266667 0-64 27.733333-64 66.133333s27.733333 66.133333 64 66.133333 64-27.733333 64-66.133333-27.733333-66.133333-64-66.133333z m0 110.933333c-23.466667 0-42.666667-19.2-42.666666-44.8s19.2-44.8 42.666666-44.8 42.666667 19.2 42.666667 44.8-19.2 44.8-42.666667 44.8z m-181.333333 21.333333c-36.266667 0-64 27.733333-64 66.133334s27.733333 66.133333 64 66.133333 64-27.733333 64-66.133333-27.733333-66.133333-64-66.133334z m0 108.8c-23.466667 0-42.666667-19.2-42.666667-44.8s19.2-44.8 42.666667-44.8 42.666667 19.2 42.666667 44.8-19.2 44.8-42.666667 44.8z m-448-373.333333c-36.266667 0-64 27.733333-64 66.133333s27.733333 66.133333 64 66.133334 64-27.733333 64-66.133334-27.733333-66.133333-64-66.133333z m0 110.933333c-23.466667 0-42.666667-19.2-42.666667-44.8s19.2-44.8 42.666667-44.8 42.666667 19.2 42.666667 44.8-19.2 44.8-42.666667 44.8z m448-110.933333c-36.266667 0-64 27.733333-64 66.133333 0 32 23.466667 59.733333 53.333333 64V512h21.333334v-66.133333c29.866667-4.266667 53.333333-32 53.333333-64 0-38.4-27.733333-68.266667-64-68.266667z m0 110.933333c-23.466667 0-42.666667-19.2-42.666667-44.8s19.2-44.8 42.666667-44.8 42.666667 19.2 42.666667 44.8-19.2 44.8-42.666667 44.8z" p-id="63755"></path></svg>