<?xml version="1.0" standalone="no"?><!DOCTYPE svg PUBLIC "-//W3C//DTD SVG 1.1//EN" "http://www.w3.org/Graphics/SVG/1.1/DTD/svg11.dtd"><svg t="1660197900033" class="icon" viewBox="0 0 1024 1024" version="1.1" xmlns="http://www.w3.org/2000/svg" p-id="63598" xmlns:xlink="http://www.w3.org/1999/xlink" width="200" height="200"><defs><style type="text/css"></style></defs><path d="M678.4 432c-22.4 0-44.8-9.6-60.8-25.6-35.2-35.2-35.2-89.6 0-124.8s89.6-35.2 124.8 0 35.2 89.6 0 124.8c-16 16-41.6 25.6-64 25.6z m48-41.6z m-48-86.4c-9.6 0-19.2 3.2-28.8 12.8-16 16-16 41.6 0 57.6s41.6 16 57.6 0 16-41.6 0-57.6c-6.4-9.6-16-12.8-28.8-12.8zM515.2 848c-6.4 0-12.8-3.2-16-6.4l-313.6-313.6c-9.6-9.6-9.6-25.6 0-35.2L259.2 416c9.6-9.6 25.6-9.6 35.2 0l313.6 313.6c9.6 9.6 9.6 25.6 0 35.2l-76.8 76.8c-3.2 6.4-9.6 6.4-16 6.4zM233.6 508.8l281.6 281.6 44.8-44.8-281.6-281.6-44.8 44.8z" fill="#FF9F43" p-id="63599"></path><path d="M409.6 928c-25.6 0-48-9.6-67.2-28.8L128 684.8c-38.4-38.4-38.4-96-3.2-131.2L553.6 121.6c16-16 41.6-25.6 67.2-25.6l262.4 19.2c12.8 0 22.4 9.6 22.4 22.4l19.2 262.4c3.2 25.6-6.4 51.2-25.6 70.4L470.4 902.4c-16 16-38.4 25.6-60.8 25.6z m204.8-784c-9.6 0-22.4 3.2-28.8 12.8L156.8 585.6c-16 16-16 44.8 3.2 64l214.4 214.4c19.2 19.2 48 19.2 64 3.2l432-432c9.6-9.6 12.8-19.2 12.8-32L864 160l-243.2-19.2c-3.2 3.2-3.2 3.2-6.4 3.2z" fill="#5F27CD" p-id="63600"></path></svg>