<?xml version="1.0" standalone="no"?><!DOCTYPE svg PUBLIC "-//W3C//DTD SVG 1.1//EN" "http://www.w3.org/Graphics/SVG/1.1/DTD/svg11.dtd"><svg t="1676131409924" class="icon" viewBox="0 0 1024 1024" version="1.1" xmlns="http://www.w3.org/2000/svg" p-id="44954" xmlns:xlink="http://www.w3.org/1999/xlink" width="200" height="200"><path d="M287.964 653.855c1.34 76.02 41.362 149.47 112.002 190.254 107.138 61.856 244.134 25.148 305.99-81.99 19.734-34.18 29.436-71.4 30.02-108.25C715.4 658.536 693.988 661 672 661c-59.205 0-114.237-17.865-160-48.498C466.237 643.135 411.205 661 352 661c-22.01 0-43.442-2.469-64.036-7.145z m-63.448-22.536C129.406 584.292 64 486.284 64 373 64 213.942 192.942 85 352 85c59.205 0 114.237 17.865 160 48.498C557.763 102.865 612.795 85 672 85c159.058 0 288 128.942 288 288 0 113.323-65.452 211.36-160.614 258.368 3.634 54.929-8.413 111.497-38.004 162.751-79.53 137.748-255.667 184.944-393.416 105.415-98.12-56.65-150.295-162.319-143.45-268.215z m402.719-173.266c-12.898 41.786-35.05 79.51-64.062 110.78C595.393 586.778 632.503 597 672 597c19.247 0 37.927-2.427 55.75-6.993-14.868-53.383-49.432-101.32-100.515-131.954z m12.16-66.22a292.347 292.347 0 0 1 16.571 8.87c65.501 37.818 110.527 97.48 131.19 164.47C852.365 526.013 896 454.603 896 373c0-123.712-100.288-224-224-224-39.497 0-76.607 10.223-108.827 28.166C610.85 228.554 640 297.373 640 373c0 6.327-0.204 12.607-0.606 18.832zM236.733 565.105c6.246-20.158 14.82-39.94 25.817-58.987 29.613-51.29 72.62-90.026 122.051-114.34-0.4-6.208-0.602-12.47-0.602-18.779 0-75.627 29.15-144.446 76.827-195.834C428.607 159.223 391.497 149 352 149c-123.712 0-224 100.288-224 224 0 81.556 43.585 152.932 108.734 192.106z m59.4 24.872C313.994 594.562 332.713 597 352 597c39.497 0 76.607-10.223 108.827-28.166-29.03-31.289-51.19-69.04-64.084-110.855-31.633 18.931-59.026 45.95-78.766 80.14-9.638 16.694-16.884 34.112-21.842 51.859zM575.97 369.242c-0.98-59.545-25.193-113.439-63.969-153.01-38.79 39.585-63.007 93.503-63.97 153.072 41.579-9.477 85.314-9.79 127.94-0.062z m-8.134 63.897c-37.134-9.583-75.557-9.248-111.66 0.039 10.271 36.913 29.758 69.988 55.825 96.59 26.076-26.611 45.567-59.7 55.835-96.629z" fill="#000000" p-id="44955"></path></svg>