<?xml version="1.0" standalone="no"?><!DOCTYPE svg PUBLIC "-//W3C//DTD SVG 1.1//EN" "http://www.w3.org/Graphics/SVG/1.1/DTD/svg11.dtd"><svg t="1638548755316" class="icon" viewBox="0 0 1024 1024" version="1.1" xmlns="http://www.w3.org/2000/svg" p-id="47635" data-spm-anchor-id="a313x.7781069.0.i24" xmlns:xlink="http://www.w3.org/1999/xlink" width="200" height="200"><defs><style type="text/css"></style></defs><path d="M840.064 160.64l-35.2-12.8a53.077 53.077 0 0 0-51.52-41.173 52.373 52.373 0 0 0-52.352 52.757 52.693 52.693 0 0 0 52.757 52.757c13.59 0 25.984-5.205 35.563-13.994l33.173 11.989c22.4 8 41.963 38.763 41.963 65.152v467.627c0 26.368-19.584 56.746-41.963 64.725l-29.973 10.39a52.48 52.48 0 0 0-38.763-17.174 52.373 52.373 0 0 0-52.352 52.757 52.693 52.693 0 0 0 52.758 52.736 52.224 52.224 0 0 0 49.557-35.968l36.373-12.8c43.563-15.168 77.12-65.536 77.12-114.282V275.712c-0.789-49.152-33.962-99.499-77.12-115.093M280.107 800.896c-16.79 0-31.574 7.979-41.174 20.373l-38.357-13.589c-22.4-8-41.173-35.179-41.173-58.752v-479.19c0-23.594 19.2-51.562 41.173-59.562l41.557-15.19c9.6 10.39 23.19 16.79 38.358 16.79a52.373 52.373 0 0 0 52.373-52.757 52.373 52.373 0 0 0-52.757-52.352c-23.595 0-43.179 15.573-49.963 36.778l-47.573 17.174c-42.731 15.594-75.904 63.552-75.904 109.12v478.784c0 45.568 33.173 93.525 76.33 108.309l49.174 17.195a51.776 51.776 0 0 0 47.957 31.573 52.373 52.373 0 0 0 52.352-52.757c0-29.184-23.19-51.947-52.352-51.947" fill="#347DFF" p-id="47636" data-spm-anchor-id="a313x.7781069.0.i25" class=""></path><path d="M609.067 500.33a36.672 36.672 0 0 1-36.779-36.757 36.693 36.693 0 0 1 36.757-36.778 36.674 36.674 0 0 1 36.779 36.778c0 19.99-16.384 36.758-36.779 36.758m-99.52 175.061c-67.136 0-121.898-58.752-121.898-121.899h243.797c0 63.147-54.741 121.899-121.899 121.899m-137.088-211.84c0-20.373 16.384-36.757 36.779-36.757 20.373 0 36.757 16.384 36.757 36.778a36.665 36.665 0 0 1-36.757 36.758 36.928 36.928 0 0 1-36.779-36.758m137.088-195.05c-130.688 0-236.586 105.92-236.586 236.608s105.898 236.586 236.586 236.586c130.688 0 236.608-105.898 236.608-236.586 0-130.688-105.92-236.587-236.586-236.587" fill="#f25b33" p-id="47637" data-spm-anchor-id="a313x.7781069.0.i26" class=""></path></svg>