<?xml version="1.0" standalone="no"?><!DOCTYPE svg PUBLIC "-//W3C//DTD SVG 1.1//EN" "http://www.w3.org/Graphics/SVG/1.1/DTD/svg11.dtd"><svg t="1638548748735" class="icon" viewBox="0 0 1062 1024" version="1.1" xmlns="http://www.w3.org/2000/svg" p-id="46829" xmlns:xlink="http://www.w3.org/1999/xlink" width="207.421875" height="200"><defs><style type="text/css"></style></defs><path d="M460.550548 994.377588c-2.494519 0-63.610231-0.311815-111.00609-40.535931-4.053593-3.429963-7.483557-5.924482-10.91352-7.171742l-34.61145-15.902558v-405.359318l49.578563-42.406821 132.209501-245.08648c3.741778-5.924482 6.236297-12.472594 8.107186-19.332521 1.559074-6.859927 2.182704-13.719854 1.559074-20.891596l-12.472594-165.261876 9.042631-7.483556c19.332521-15.902558 43.65408-24.945189 68.599269-24.945189C647.015834 0.311815 714.056029 115.683313 714.056029 215.152253c0 12.784409-0.935445 25.880633-2.806334 38.665043l-15.590743 100.404385h240.721072c30.557856 0 60.803898 12.784409 82.942753 34.923264 21.20341 21.20341 32.74056 48.954933 32.428746 77.953715-0.311815 25.257004-8.730816 48.954933-23.69793 67.97564 21.20341 20.891596 33.676005 49.578563 33.676005 79.824604 0 39.912302-20.579781 75.459196-53.320341 95.415347 5.924482 13.719854 8.730816 28.375152 8.730816 43.342265 0 45.52497-27.127893 85.437272-67.663825 102.587089 2.182704 8.419001 3.118149 17.461632 3.118149 26.192449 0 59.244823-46.460414 108.199756-105.705237 111.629719h-1.24726l-385.091352 0.311815zM349.232643 901.45676l8.107186 3.741778c7.171742 3.118149 14.031669 7.795371 21.203411 14.031669 33.98782 28.998782 80.760049 29.934227 81.695493 29.934227H845.01827c34.923264-2.182704 62.362972-31.181486 62.362972-66.416566 0-10.601705-2.494519-20.891596-7.483556-30.557856l-14.343484-27.439707 30.557856-4.989038c32.116931-5.300853 55.81486-33.052375 55.81486-65.792936 0-14.655298-4.677223-28.375152-13.408039-39.912302l-19.332521-25.568818 30.557856-9.666261c28.063337-8.730816 46.772229-34.299635 46.772229-63.610231 0-24.009744-13.096224-46.148599-33.987819-57.997564l-29.934227-16.838003 27.439708-20.579781c16.838002-12.784409 26.504263-31.805116 26.504263-52.696711 0-16.838002-6.859927-33.052375-19.332521-45.836784-13.408039-13.719854-32.116931-21.515225-50.825823-21.515226h-293.417783l23.386115-152.477466c1.559074-10.28989 2.494519-21.20341 2.494519-31.805116 0-76.394641-50.202192-169.939099-108.511572-169.939098-10.91352 0-21.515225 2.806334-30.869671 8.107186l10.601705 140.628502c0.935445 11.848965 0 23.386114-2.806333 34.923264-2.806334 11.225335-7.171742 21.82704-13.096224 31.493301L389.144945 511.688185 349.232643 545.98782v355.46894z" fill="#32363B" p-id="46830"></path><path d="M24.009744 476.141291c-0.62363 0-1.559074 0.62363-1.559074 1.24726v522.91352c0 0.62363 0.62363 1.247259 1.559074 1.247259h301.213155c0.62363 0 1.559074-0.62363 1.559074-1.247259V477.388551c0-0.62363-0.62363-1.247259-1.559074-1.24726H24.009744z" fill="#758FB5" p-id="46831"></path><path d="M302.772229 1024H46.460414c-25.568819 0-46.460414-20.891596-46.460414-46.460414V493.914738c0-25.568819 20.891596-46.460414 46.460414-46.460414h256.62363c25.568819 0 46.460414 20.891596 46.460414 46.460414v483.936663c-0.311815 25.568819-21.20341 46.148599-46.772229 46.148599zM46.460414 492.667479c-0.62363 0-1.247259 0.62363-1.247259 1.247259v483.936663c0 0.62363 0.62363 1.247259 1.247259 1.247259h256.62363c0.62363 0 1.247259-0.62363 1.247259-1.247259V493.914738c0-0.62363-0.62363-1.247259-1.247259-1.247259H46.460414z" fill="#32363B" p-id="46832"></path></svg>