<?xml version="1.0" standalone="no"?><!DOCTYPE svg PUBLIC "-//W3C//DTD SVG 1.1//EN" "http://www.w3.org/Graphics/SVG/1.1/DTD/svg11.dtd"><svg t="1676130831107" class="icon" viewBox="0 0 1024 1024" version="1.1" xmlns="http://www.w3.org/2000/svg" p-id="1957" xmlns:xlink="http://www.w3.org/1999/xlink" width="200" height="200"><path d="M434 855.304h-65.024l-16.464-16.464 585.2-589.44C993.36 193.36 1024 118.992 1024 40a40 40 0 0 0-40-40h-3.72c-79.2 0-153.704 30.784-209.8 86.68L184.376 670.704l-16.424-16.424V590a40 40 0 1 0-80 0v80.848a40 40 0 0 0 11.72 28.288L184.32 783.792l-83.088 83.08A79.968 79.968 0 0 0 80 864c-44.176 0-80 35.824-80 80s35.824 80 80 80 80-35.824 80-80c0-6.968-0.896-13.736-2.568-20.176l83.456-83.464 83.24 83.232a40.008 40.008 0 0 0 28.288 11.712H434a40 40 0 1 0 0-80z m392.944-711.952c31.232-31.12 70.256-51.584 112.664-59.568-8.368 41.056-28.488 78.856-58.688 109.28L295.944 782.272l-55.008-55.008 586.008-583.92zM85.936 249.248C30.544 193.304 0 119.04 0 40.208V40a40 40 0 0 1 40-40h3.52c79.336 0 153.952 30.88 210.08 86.96l180.688 180.76a40 40 0 0 1-56.576 56.56L197.04 143.536c-31.208-31.176-70.248-51.704-112.68-59.72 8.32 41.04 28.384 78.808 58.496 109.224L324.72 377.712a40 40 0 1 1-57 56.128L85.936 249.248zM1024 944c0 44.176-35.824 80-80 80s-80-35.824-80-80c0-6.968 0.896-13.736 2.568-20.176L783.12 840.36l-83.24 83.232a40.008 40.008 0 0 1-28.288 11.712H592a40 40 0 1 1 0-80h63.024l16.488-16.488-79.92-80.656a40 40 0 1 1 56.824-56.32l79.672 80.4 54.712-54.712-82.768-80.936a40 40 0 0 1 55.936-57.2l83.4 81.568 16.68-16.68V590a40 40 0 1 1 80 0v80.848a39.992 39.992 0 0 1-11.712 28.288L839.68 783.792l83.088 83.08A79.968 79.968 0 0 1 944 864c44.176 0 80 35.824 80 80z" p-id="1958"></path></svg>