<?xml version="1.0" standalone="no"?><!DOCTYPE svg PUBLIC "-//W3C//DTD SVG 1.1//EN" "http://www.w3.org/Graphics/SVG/1.1/DTD/svg11.dtd"><svg t="1661097894889" class="icon" viewBox="0 0 1024 1024" version="1.1" xmlns="http://www.w3.org/2000/svg" p-id="51772" xmlns:xlink="http://www.w3.org/1999/xlink" width="200" height="200"><defs><style type="text/css"></style></defs><path d="M549.376 29.696C536.576 8.704 509.44 2.56 488.448 15.36c-5.632 3.584-10.752 8.704-14.336 14.336L396.288 159.744h230.912L549.376 29.696z" fill="#3366FF" p-id="51773"></path><path d="M953.344 294.4c11.776-20.48 4.608-46.592-15.872-58.368-6.144-3.584-13.312-5.632-20.992-5.632h-155.648l115.2 198.656 77.312-134.656zM147.968 429.568L264.192 230.4H107.52c-23.552 0.512-42.496 19.456-41.984 43.52 0 7.168 2.048 14.336 5.632 20.992l76.8 134.656z" fill="#AEC9FF" p-id="51774"></path><path d="M834.56 512.512c-2.56-2.56-5.12-5.632-7.168-9.216l-158.72-272.896H354.304c-1.024 4.096-2.048 7.68-4.096 11.264L193.024 510.976l156.672 269.312h322.048c1.536 0 3.072 0 4.608 0.512l151.04-259.072c2.048-3.584 4.608-6.656 7.168-9.216zM57.344 717.312c-11.776 19.968-5.12 45.568 14.848 57.344 6.656 4.096 14.848 6.144 22.528 5.632h162.816l-117.76-201.728-82.432 138.752zM966.656 717.312l-81.408-136.704-116.224 199.68h160.256c23.04 1.024 42.496-17.408 43.52-40.448 0-7.68-2.048-15.872-6.144-22.528z" fill="#3366FF" p-id="51775"></path><path d="M475.648 994.304c11.264 19.968 36.864 27.136 56.832 15.872 6.656-3.584 12.288-9.216 15.872-15.872l81.408-143.36H394.24l81.408 143.36z" fill="#AEC9FF" p-id="51776"></path></svg>