<?xml version="1.0" standalone="no"?><!DOCTYPE svg PUBLIC "-//W3C//DTD SVG 1.1//EN" "http://www.w3.org/Graphics/SVG/1.1/DTD/svg11.dtd"><svg t="1660201125874" class="icon" viewBox="0 0 1024 1024" version="1.1" xmlns="http://www.w3.org/2000/svg" p-id="67986" xmlns:xlink="http://www.w3.org/1999/xlink" width="200" height="200"><defs><style type="text/css"></style></defs><path d="M768 298.666667a292.693333 292.693333 0 0 0-204.373333 95.573333c12.373333 13.653333 24.746667 26.88 36.693333 40.533333s13.653333 14.933333 20.48 22.613334A217.6 217.6 0 0 1 768 384a128 128 0 0 1 0 256c-76.8 0-137.813333-58.88-199.253333-128l-24.746667-28.16-32-36.266667C441.6 369.493333 365.226667 298.666667 256 298.666667a213.333333 213.333333 0 0 0 0 426.666666c109.226667 0 185.6-70.826667 256-148.906666 70.4 78.08 146.773333 148.906667 256 148.906666a213.333333 213.333333 0 0 0 0-426.666666zM256 640a128 128 0 0 1 0-256c76.8 0 137.813333 58.88 199.253333 128C393.813333 581.12 332.8 640 256 640z" p-id="67987"></path></svg>