<?xml version="1.0" standalone="no"?><!DOCTYPE svg PUBLIC "-//W3C//DTD SVG 1.1//EN" "http://www.w3.org/Graphics/SVG/1.1/DTD/svg11.dtd"><svg t="1644578664167" class="icon" viewBox="0 0 1024 1024" version="1.1" xmlns="http://www.w3.org/2000/svg" p-id="3629" xmlns:xlink="http://www.w3.org/1999/xlink" width="200" height="200"><defs><style type="text/css"></style></defs><path d="M512 512.021029m-413.982996 0a413.982996 413.982996 0 1 0 827.965992 0 413.982996 413.982996 0 1 0-827.965992 0Z" fill="#F0C48A" p-id="3630"></path><path d="M459.202169 1012.200485H65.418343v-98.395959c0-43.998193 35.598538-79.796722 79.796722-79.796722h234.190381c43.998193 0 79.796722 35.598538 79.796723 79.796722v98.395959z" fill="#FD919E" p-id="3631"></path><path d="M430.603343 858.006818v154.193667h28.398834v-119.195104c0.199992-16.199335-11.799515-29.798776-28.398834-34.998563zM159.614474 1012.200485h-18.99922v-79.196747c10.399573 0 18.99922 8.399655 18.99922 18.999219v60.197528z" fill="#E8677D" p-id="3632"></path><path d="M459.202169 1024H65.418343c-6.399737 0-11.799515-5.199786-11.799515-11.799515v-98.395959c0-50.39793 40.998316-91.396246 91.396246-91.396246h234.19038c50.39793 0 91.396246 40.998316 91.396246 91.396246v98.395959c0.199992 6.599729-4.999795 11.799515-11.399531 11.799515z m-381.984311-23.399039h370.184795v-86.796435c0-37.598456-30.598743-67.997207-67.997207-67.997207H145.215065c-37.598456 0-67.997207 30.598743-67.997207 67.997207v86.796435z" fill="#4C4372" p-id="3633"></path><path d="M140.815246 1024c-6.399737 0-11.799515-5.199786-11.799515-11.799515v-79.196747c0-6.399737 5.199786-11.799515 11.799515-11.799516 6.399737 0 11.799515 5.199786 11.799515 11.799516v79.196747c-0.199992 6.599729-5.399778 11.799515-11.799515 11.799515zM377.205537 1024c-6.399737 0-11.799515-5.199786-11.799516-11.799515v-79.196747c0-6.399737 5.199786-11.799515 11.799516-11.799516s11.799515 5.199786 11.799515 11.799516v79.196747c0 6.599729-5.199786 11.799515-11.799515 11.799515zM262.21026 967.002341c-6.399737 0-11.799515-5.199786-11.799515-11.799515v-41.998275c0-6.399737 5.199786-11.799515 11.799515-11.799516 6.399737 0 11.799515 5.199786 11.799515 11.799516v41.998275c0 6.599729-5.199786 11.799515-11.799515 11.799515z" fill="#4C4372" p-id="3634"></path><path d="M312.208206 863.206604v-106.795613h-99.795901v106.795613l49.797955 49.997947z" fill="#D3E6F8" p-id="3635"></path><path d="M278.809578 896.605233l33.398628-42.198267v-61.397478h-33.398628z" fill="#A4CFF2" p-id="3636"></path><path d="M262.21026 924.804074c-3.199869 0-5.999754-1.199951-8.199663-3.39986l-49.997947-49.997946c-2.19991-2.19991-3.39986-5.199786-3.39986-8.199664v-106.795613c0-6.399737 5.199786-11.799515 11.799515-11.799515h99.795901c6.399737 0 11.799515 5.199786 11.799516 11.799515v106.795613c0 3.199869-1.199951 5.999754-3.399861 8.199664l-49.997946 49.997946c-2.19991 2.19991-5.199786 3.39986-8.399655 3.39986zM224.011829 858.406802l38.198431 38.198431 38.198431-38.198431v-90.196296H224.011829v90.196296z m88.196377 4.799802z" fill="#4C4372" p-id="3637"></path><path d="M262.21026 838.807607c-50.797914 0-91.996221-41.198308-91.996221-91.996222v-51.397889c0-50.797914 41.198308-91.996221 91.996221-91.996221s91.996221 41.198308 91.996221 91.996221v51.397889c0 50.797914-41.198308 91.996221-91.996221 91.996222z" fill="#D3E6F8" p-id="3638"></path><path d="M262.21026 603.617267c-50.797914 0-91.996221 41.198308-91.996221 91.996221v51.397889c0 20.599154 6.799721 39.598374 18.199252 54.997741 14.999384 10.799556 33.59862 17.199294 53.597799 17.199294 50.797914 0 91.996221-41.198308 91.996221-91.996222v-51.397889c0-20.599154-6.799721-39.598374-18.199253-54.997741-14.999384-10.799556-33.59862-17.199294-53.597798-17.199293z" fill="#FFFFFF" p-id="3639"></path><path d="M262.21026 850.40713c-57.197651 0-103.595745-46.598086-103.595745-103.595745v-51.397889c0-57.197651 46.598086-103.595745 103.595745-103.595744s103.595745 46.598086 103.595745 103.595744v51.397889c0.199992 57.197651-46.398094 103.595745-103.595745 103.595745z m0-235.19034c-44.198185 0-80.196706 35.998521-80.196706 80.196706v51.397889c0 44.198185 35.998521 80.196706 80.196706 80.196706s80.196706-35.998521 80.196706-80.196706v-51.397889c0-44.198185-35.998521-80.196706-80.196706-80.196706z" fill="#4C4372" p-id="3640"></path><path d="M958.581657 1012.200485H564.797831v-98.395959c0-43.998193 35.598538-79.796722 79.796723-79.796722h234.190381c43.998193 0 79.796722 35.598538 79.796722 79.796722v98.395959z" fill="#FD919E" p-id="3641"></path><path d="M930.182823 858.006818v154.193667h28.398834v-119.195104c0-16.199335-11.999507-29.798776-28.398834-34.998563zM659.193954 1012.200485h-18.999219v-79.196747c10.399573 0 18.99922 8.399655 18.999219 18.999219v60.197528z" fill="#E8677D" p-id="3642"></path><path d="M958.581657 1024H564.797831c-6.399737 0-11.799515-5.199786-11.799515-11.799515v-98.395959c0-50.39793 40.998316-91.396246 91.396246-91.396246h234.190381c50.39793 0 91.396246 40.998316 91.396246 91.396246v98.395959c0.199992 6.599729-4.999795 11.799515-11.399532 11.799515z m-381.98431-23.399039h370.184795v-86.796435c0-37.598456-30.598743-67.997207-67.997207-67.997207H644.594554c-37.598456 0-67.997207 30.598743-67.997207 67.997207v86.796435z" fill="#4C4372" p-id="3643"></path><path d="M640.194735 1024c-6.399737 0-11.799515-5.199786-11.799516-11.799515v-79.196747c0-6.399737 5.199786-11.799515 11.799516-11.799516 6.399737 0 11.799515 5.199786 11.799515 11.799516v79.196747c0 6.599729-5.399778 11.799515-11.799515 11.799515zM876.785017 1024c-6.399737 0-11.799515-5.199786-11.799516-11.799515v-79.196747c0-6.399737 5.199786-11.799515 11.799516-11.799516s11.799515 5.199786 11.799515 11.799516v79.196747c-0.199992 6.599729-5.399778 11.799515-11.799515 11.799515zM761.78974 967.002341c-6.399737 0-11.799515-5.199786-11.799515-11.799515v-41.998275c0-6.399737 5.199786-11.799515 11.799515-11.799516 6.399737 0 11.799515 5.199786 11.799515 11.799516v41.998275c-0.199992 6.599729-5.399778 11.799515-11.799515 11.799515z" fill="#4C4372" p-id="3644"></path><path d="M811.587695 863.206604v-106.795613h-99.795901v106.795613l49.997946 49.997947z" fill="#D3E6F8" p-id="3645"></path><path d="M778.189066 896.605233l33.398629-42.198267v-61.397478h-33.398629z" fill="#A4CFF2" p-id="3646"></path><path d="M761.78974 924.804074c-3.199869 0-5.999754-1.199951-8.199663-3.39986l-49.997946-49.997946c-2.19991-2.19991-3.39986-5.199786-3.399861-8.199664v-106.795613c0-6.399737 5.199786-11.799515 11.799515-11.799515h99.795901c6.399737 0 11.799515 5.199786 11.799516 11.799515v106.795613c0 3.199869-1.199951 5.999754-3.399861 8.199664l-49.997946 49.997946c-2.399901 2.19991-5.399778 3.39986-8.399655 3.39986z m-38.198431-66.397272l38.198431 38.198431 38.198431-38.198431v-90.196296h-76.396862v90.196296z m87.996386 4.799802z" fill="#4C4372" p-id="3647"></path><path d="M761.78974 838.807607c-50.797914 0-91.996221-41.198308-91.996221-91.996222v-51.397889c0-50.797914 41.198308-91.996221 91.996221-91.996221s91.996221 41.198308 91.996221 91.996221v51.397889c-0.199992 50.797914-41.198308 91.996221-91.996221 91.996222z" fill="#D3E6F8" p-id="3648"></path><path d="M761.78974 603.617267c-50.797914 0-91.996221 41.198308-91.996221 91.996221v51.397889c0 20.599154 6.799721 39.598374 18.199252 54.997741 14.999384 10.799556 33.59862 17.199294 53.597799 17.199294 50.797914 0 91.996221-41.198308 91.996221-91.996222v-51.397889c0-20.599154-6.799721-39.598374-18.199252-54.997741-15.199376-10.799556-33.59862-17.199294-53.597799-17.199293z" fill="#FFFFFF" p-id="3649"></path><path d="M761.78974 850.40713c-57.197651 0-103.595745-46.598086-103.595745-103.595745v-51.397889c0-57.197651 46.598086-103.595745 103.595745-103.595744s103.595745 46.598086 103.595745 103.595744v51.397889c0 57.197651-46.598086 103.595745-103.595745 103.595745z m0-235.19034c-44.198185 0-80.196706 35.998521-80.196706 80.196706v51.397889c0 44.198185 35.998521 80.196706 80.196706 80.196706s80.196706-35.998521 80.196706-80.196706v-51.397889c0-44.198185-35.998521-80.196706-80.196706-80.196706z" fill="#4C4372" p-id="3650"></path><path d="M765.389592 1012.200485H258.610408v-126.794792c0-56.797667 45.998111-102.595786 102.595786-102.595786h301.587612c56.797667 0 102.595786 45.998111 102.595786 102.595786v126.794792z" fill="#FD919E" p-id="3651"></path><path d="M728.791095 813.608642v198.591843h36.598497v-153.3937c0-20.799146-15.199376-38.598415-36.598497-45.198143zM380.005422 1012.200485h-24.398998v-101.995811c13.39945 0 24.398998 10.999548 24.398998 24.398998v77.596813z" fill="#E8677D" p-id="3652"></path><path d="M765.389592 1024H258.610408c-6.399737 0-11.799515-5.199786-11.799516-11.799515v-126.794792c0-62.997412 51.397889-114.395301 114.395302-114.395302h301.587612c62.997412 0 114.395301 51.397889 114.395302 114.395302v126.794792c0 6.599729-5.199786 11.799515-11.799516 11.799515z m-495.179661-23.399039h483.380146v-114.995277c0-50.197938-40.798324-90.996262-90.996263-90.996262H361.206194c-50.197938 0-90.996262 40.798324-90.996263 90.996262v114.995277z" fill="#4C4372" p-id="3653"></path><path d="M355.606424 1024c-6.399737 0-11.799515-5.199786-11.799516-11.799515v-101.995811c0-6.399737 5.199786-11.799515 11.799516-11.799515s11.799515 5.199786 11.799515 11.799515v101.995811c-0.199992 6.599729-5.399778 11.799515-11.799515 11.799515zM659.993921 1024c-6.399737 0-11.799515-5.199786-11.799515-11.799515v-101.995811c0-6.399737 5.199786-11.799515 11.799515-11.799515s11.799515 5.199786 11.799516 11.799515v101.995811c0 6.599729-5.199786 11.799515-11.799516 11.799515zM512 950.603015c-6.399737 0-11.799515-5.199786-11.799515-11.799516v-54.197773c0-6.399737 5.199786-11.799515 11.799515-11.799516 6.399737 0 11.799515 5.199786 11.799515 11.799516v54.197773c0 6.599729-5.399778 11.799515-11.799515 11.799516z" fill="#4C4372" p-id="3654"></path><path d="M576.197363 820.408362v-137.394356h-128.394726v137.394356l64.197363 64.197364z" fill="#D3E6F8" p-id="3655"></path><path d="M533.199129 863.406596l42.998234-54.597757V730.012075h-42.998234z" fill="#A4CFF2" p-id="3656"></path><path d="M512 896.405241c-3.199869 0-5.999754-1.199951-8.199663-3.39986l-64.197363-64.197364c-2.19991-2.19991-3.39986-5.199786-3.399861-8.199663v-137.394356c0-6.399737 5.199786-11.799515 11.799516-11.799516h128.594718c6.399737 0 11.799515 5.199786 11.799515 11.799516v137.394356c0 3.199869-1.199951 5.999754-3.39986 8.199663l-64.197363 64.197364c-2.799885 2.19991-5.59977 3.39986-8.799639 3.39986z m-52.59784-80.796681L512 868.006407l52.59784-52.597839v-120.795039h-104.995688v120.995031z m116.795203 4.799802z" fill="#4C4372" p-id="3657"></path><path d="M512 788.80966c-65.397314 0-118.395137-52.997823-118.395137-118.395137v-65.997289c0-65.397314 52.997823-118.395137 118.395137-118.395137s118.395137 52.997823 118.395137 118.395137v65.997289c0 65.397314-52.997823 118.395137-118.395137 118.395137z" fill="#D3E6F8" p-id="3658"></path><path d="M512 486.022097c-65.397314 0-118.395137 52.997823-118.395137 118.395137v65.997289c0 26.598907 8.799639 50.997905 23.599031 70.797092 19.399203 13.999425 43.198226 22.199088 68.997166 22.199089 65.397314 0 118.395137-52.997823 118.395137-118.395138v-65.997289c0-26.598907-8.799639-50.997905-23.599031-70.797092-19.399203-13.999425-43.198226-22.199088-68.997166-22.199088z" fill="#FFFFFF" p-id="3659"></path><path d="M512 800.609176c-71.797051 0-129.994661-58.397601-129.994661-129.994661v-65.997289c0-71.797051 58.397601-129.994661 129.994661-129.994661s129.994661 58.397601 129.994661 129.994661v65.997289c0 71.597059-58.19761 129.994661-129.994661 129.994661z m0-302.787564c-58.797585 0-106.595622 47.798037-106.595622 106.595622v65.997289c0 58.797585 47.798037 106.595622 106.595622 106.595622s106.595622-47.798037 106.595622-106.595622v-65.997289c0-58.797585-47.798037-106.595622-106.595622-106.595622z" fill="#4C4372" p-id="3660"></path><path d="M273.609792 222.832907a238.390208 86.996427 0 1 0 476.780416 0 238.390208 86.996427 0 1 0-476.780416 0Z" fill="#D3E6F8" p-id="3661"></path><path d="M436.66774 266.320174a238.390208 86.996427 60 1 0 150.682232-86.996427 238.390208 86.996427 60 1 0-150.682232 86.996427Z" fill="#D3E6F8" p-id="3662"></path><path d="M392.836607 429.275812a86.996427 238.390208 30 1 0 238.390209-412.903953 86.996427 238.390208 30 1 0-238.390209 412.903953Z" fill="#D3E6F8" p-id="3663"></path><path d="M460.098175 244.325691a56.197692 56.197692 0 1 0 103.839794-43.011851 56.197692 56.197692 0 1 0-103.839794 43.011851Z" fill="#7BABF1" p-id="3664"></path><path d="M512 290.830114c-37.398464 0-67.997207-30.398751-67.997207-67.997207s30.398751-67.997207 67.997207-67.997207 67.997207 30.398751 67.997207 67.997207-30.598743 67.997207-67.997207 67.997207z m0-112.595375c-24.59899 0-44.598168 19.999179-44.598168 44.598168s19.999179 44.598168 44.598168 44.598168 44.598168-19.999179 44.598168-44.598168-19.999179-44.598168-44.598168-44.598168z" fill="#4C4372" p-id="3665"></path><path d="M512 321.428858c-64.99733 0-126.394808-9.199622-172.592911-26.198924-49.997946-18.199252-77.596813-43.998193-77.596813-72.397027s27.598866-54.197774 77.596813-72.397026C385.605192 133.436579 447.00267 124.036965 512 124.036965s126.394808 9.199622 172.592911 26.198924c49.997946 18.199252 77.596813 43.998193 77.596813 72.397027s-27.598866 54.197774-77.596813 72.397026c-46.198102 17.199294-107.595581 26.398916-172.592911 26.398916z m0-173.792862c-133.594513 0-226.790685 39.598374-226.790685 75.196911S378.405487 298.029819 512 298.029819c133.594513 0 226.790685-39.598374 226.790685-75.196912S645.594513 147.635996 512 147.635996z" fill="#4C4372" p-id="3666"></path><path d="M613.195843 445.623756c-21.799105 0-48.598004-12.599482-77.796804-36.99848-37.798447-31.598702-76.396862-80.196706-108.995523-136.394398s-55.197733-113.995318-63.597388-162.593321c-9.199622-52.397848-0.599975-89.196336 23.999014-103.395753 24.59899-14.199417 60.797503-3.199869 101.595827 30.998726 37.798447 31.598702 76.396862 80.196706 108.995523 136.394398 32.598661 56.397684 55.197733 113.995318 63.597388 162.593322 9.199622 52.397848 0.599975 89.196336-23.999014 103.395753-6.999712 3.799844-14.999384 5.999754-23.799023 5.999753zM411.004148 23.441097c-4.799803 0-8.799639 0.999959-12.199499 2.999877-14.999384 8.799639-19.799187 38.198431-12.599482 78.996755 7.999671 45.998111 29.598784 100.995852 60.797503 154.993634 31.198719 53.997782 67.997207 100.195885 103.795736 130.194652 31.798694 26.598907 59.597552 37.198472 74.796928 28.598826 30.798735-17.799269 18.599236-118.195145-48.19802-233.990389-31.198719-53.997782-67.997207-100.195885-103.795737-130.194653-24.59899-20.599154-46.798078-31.598702-62.597429-31.598702z" fill="#4C4372" p-id="3667"></path><path d="M410.804157 445.623756c-8.799639 0-16.79931-1.999918-23.799023-5.999753-24.59899-14.199417-33.198636-50.997905-23.999014-103.395753 8.599647-48.598004 31.198719-106.195638 63.597388-162.593322 32.598661-56.397684 71.197076-104.795696 108.995523-136.394398C576.397355 2.841943 612.395876-8.157605 636.994866 6.041812c24.59899 14.199417 33.198636 50.997905 23.999014 103.395753-8.399655 48.598004-30.998727 106.39563-63.597388 162.593322-32.598661 56.397684-71.197076 104.795696-108.995523 136.394397-28.998809 24.59899-55.797708 37.198472-77.596812 37.198472zM612.995852 23.441097c-15.799351 0-37.998439 10.999548-62.397437 31.598702-35.79853 29.998768-72.597018 76.19687-103.795737 130.194653-31.198719 53.997782-52.797831 108.995523-60.797503 154.993633-7.199704 40.798324-2.399901 70.397108 12.599483 78.996756 3.599852 1.999918 7.79968 2.999877 12.599482 2.999876 36.798489 0 106.795613-59.39756 165.993182-161.793354 31.198719-53.997782 52.797831-108.995523 60.797503-154.993634 7.199704-40.798324 2.399901-70.397108-12.599483-78.996755-3.39986-1.999918-7.599688-2.999877-12.39949-2.999877z m-176.192763 155.793601z" fill="#4C4372" p-id="3668"></path><path d="M180.943457 433.300201a43.798201 43.798201 0 1 0 14.03369-86.464936 43.798201 43.798201 0 1 0-14.03369 86.464936Z" fill="#FFFFFF" p-id="3669"></path><path d="M188.013308 445.623756c-30.598743 0-55.597716-24.998973-55.597717-55.597716s24.998973-55.597716 55.597717-55.597716 55.597716 24.998973 55.597716 55.597716-24.998973 55.597716-55.597716 55.597716z m0-87.596402c-17.599277 0-31.998686 14.399409-31.998686 31.998686s14.399409 31.998686 31.998686 31.998686 31.998686-14.399409 31.998685-31.998686-14.399409-31.998686-31.998685-31.998686z" fill="#4C4372" p-id="3670"></path><path d="M828.947161 433.311839a43.798201 43.798201 0 1 0 14.03369-86.464936 43.798201 43.798201 0 1 0-14.03369 86.464936Z" fill="#FFFFFF" p-id="3671"></path><path d="M835.986692 445.623756c-30.598743 0-55.597716-24.998973-55.597716-55.597716s24.998973-55.597716 55.597716-55.597716 55.597716 24.998973 55.597717 55.597716-24.998973 55.597716-55.597717 55.597716z m0-87.596402c-17.599277 0-31.998686 14.399409-31.998685 31.998686s14.399409 31.998686 31.998685 31.998686 31.998686-14.399409 31.998686-31.998686-14.399409-31.998686-31.998686-31.998686z" fill="#4C4372" p-id="3672"></path></svg>