<?xml version="1.0" standalone="no"?><!DOCTYPE svg PUBLIC "-//W3C//DTD SVG 1.1//EN" "http://www.w3.org/Graphics/SVG/1.1/DTD/svg11.dtd"><svg t="1661093748049" class="icon" viewBox="0 0 1024 1024" version="1.1" xmlns="http://www.w3.org/2000/svg" p-id="4857" xmlns:xlink="http://www.w3.org/1999/xlink" width="200" height="200"><defs><style type="text/css"></style></defs><path d="M384 128v128h64V128H384zM523.328 613.824l-147.072 147.072a80 80 0 0 1-113.152-113.152l147.072-147.072-45.248-45.248-147.072 147.072a144 144 0 0 0 203.648 203.648l147.072-147.072-45.248-45.248zM613.76 523.328l45.312 45.248 147.072-147.072a144 144 0 1 0-203.648-203.648L455.424 364.928l45.248 45.248 147.072-147.072a80 80 0 0 1 113.152 113.152L613.824 523.328zM768 576h128v64h-128V576zM128 448h128V384H128v64zM640 768v128H576v-128h64zM750.848 705.6l103.808 103.744-45.312 45.248-103.68-103.68 45.184-45.312zM169.344 214.592l103.808 103.808 45.248-45.248-103.744-103.808-45.312 45.248z" p-id="4858"></path></svg>