<?xml version="1.0" standalone="no"?><!DOCTYPE svg PUBLIC "-//W3C//DTD SVG 1.1//EN" "http://www.w3.org/Graphics/SVG/1.1/DTD/svg11.dtd"><svg t="1638549098751" class="icon" viewBox="0 0 1024 1024" version="1.1" xmlns="http://www.w3.org/2000/svg" p-id="1946" xmlns:xlink="http://www.w3.org/1999/xlink" width="200" height="200"><defs><style type="text/css"></style></defs><path d="M512 1008c-91.248 0-174.816-46.272-223.504-123.744a7.968 7.968 0 1 1 13.52-8.496C347.792 948.544 426.288 992 512 992c85.728 0 164.224-43.456 209.952-116.256a8 8 0 1 1 13.552 8.496C686.832 961.728 603.264 1008 512 1008zM737.728 632a7.936 7.936 0 0 1-7.056-4.256C687.44 546.48 603.648 496 512 496s-175.424 50.48-218.656 131.744a7.984 7.984 0 1 1-14.128-7.504C325.232 533.728 414.432 480 512 480c97.584 0 186.784 53.728 232.8 140.256a8 8 0 0 1-7.072 11.744zM512.016 464a8 8 0 0 1-4.304-1.248l-176.016-112a8 8 0 0 1-3.696-6.752v-320a8 8 0 0 1 16 0v315.616l168.016 106.912L680 339.616V24a8 8 0 0 1 16 0v320a8 8 0 0 1-3.696 6.752l-175.984 112a8 8 0 0 1-4.304 1.248z" fill="#263238" p-id="1947"></path><path d="M416 394.912l96.016 61.088L608 394.912V24H416z" fill="#FF5252" p-id="1948"></path><path d="M512.016 464a8.048 8.048 0 0 1-4.304-1.248l-96.016-61.088a7.968 7.968 0 0 1-3.696-6.752V24a8 8 0 0 1 16 0v366.512l88.016 56 87.984-55.984V24a8 8 0 0 1 16 0v370.928a8 8 0 0 1-3.696 6.752l-95.984 61.072a8 8 0 0 1-4.304 1.248z" fill="#263238" p-id="1949"></path><path d="M864 720H160a32 32 0 1 1 0-64h704a32 32 0 1 1 0 64z" fill="#FFD740" p-id="1950"></path><path d="M864 728H160c-22.064 0-40-17.936-40-40s17.936-40 40-40h704c22.064 0 40 17.936 40 40s-17.936 40-40 40z m-704-64c-13.232 0-24 10.768-24 24s10.768 24 24 24h704c13.232 0 24-10.768 24-24s-10.768-24-24-24H160z" fill="#263238" p-id="1951"></path><path d="M800 784H224a32 32 0 1 1 0-64h576a32 32 0 1 1 0 64z" fill="#FFD740" p-id="1952"></path><path d="M800 792H224c-22.064 0-40-17.936-40-40s17.936-40 40-40h576c22.064 0 40 17.936 40 40s-17.936 40-40 40z m-576-64c-13.232 0-24 10.768-24 24s10.768 24 24 24h576c13.232 0 24-10.768 24-24s-10.768-24-24-24H224z" fill="#263238" p-id="1953"></path><path d="M736 848H288a32 32 0 1 1 0-64h448a32 32 0 1 1 0 64z" fill="#FFD740" p-id="1954"></path><path d="M736 856H288c-22.064 0-40-17.936-40-40s17.936-40 40-40h448c22.064 0 40 17.936 40 40s-17.936 40-40 40z m-448-64c-13.232 0-24 10.768-24 24s10.768 24 24 24h448c13.232 0 24-10.768 24-24s-10.768-24-24-24H288z" fill="#263238" p-id="1955"></path><path d="M682.528 656c-31.92-61.728-96.224-104-170.528-104s-138.592 42.272-170.528 104h341.056z" fill="#4DB6AC" p-id="1956"></path><path d="M682.528 664H341.488a8 8 0 0 1-7.12-11.664C368.928 585.52 436.992 544 512 544s143.088 41.52 177.648 108.336a7.968 7.968 0 0 1-7.12 11.664z m-327.36-16h313.664A183.248 183.248 0 0 0 512 560a183.264 183.264 0 0 0-156.832 88z" fill="#263238" p-id="1957"></path><path d="M350.768 848c34.192 52.896 93.568 88 161.248 88s127.056-35.104 161.248-88H350.768z" fill="#4DB6AC" p-id="1958"></path><path d="M512 944a199.328 199.328 0 0 1-167.952-91.664 8.048 8.048 0 0 1-0.32-8.176 8.032 8.032 0 0 1 7.024-4.176h322.48a8 8 0 0 1 6.704 12.352A199.232 199.232 0 0 1 512 944z m-145.808-88A183.168 183.168 0 0 0 512 928c57.6 0 111.056-26.656 145.824-72H366.192zM40 472h-32a8 8 0 0 1 0-16h32a8 8 0 0 1 0 16z" fill="#263238" p-id="1959"></path><path d="M216 472h-144a8 8 0 0 1 0-16h144a8 8 0 0 1 0 16z" fill="#263238" p-id="1960"></path><path d="M1016 472h-32a8 8 0 0 1 0-16h32a8 8 0 0 1 0 16z" fill="#263238" p-id="1961"></path><path d="M952 472h-144a8 8 0 0 1 0-16h144a8 8 0 0 1 0 16z" fill="#263238" p-id="1962"></path><path d="M888 320a8.032 8.032 0 0 1-7.6-5.472L871.568 288a37.392 37.392 0 0 0-23.552-23.568l-26.544-8.848a8 8 0 0 1 0-15.184l26.544-8.848a37.392 37.392 0 0 0 23.552-23.568l8.848-26.528c2.192-6.528 12.992-6.528 15.184 0L904.432 208c3.68 11.072 12.496 19.888 23.568 23.568l26.528 8.848a8 8 0 0 1 0 15.184L928 264.432A37.376 37.376 0 0 0 904.432 288l-8.848 26.528A8 8 0 0 1 888 320z m-38.688-72l3.76 1.248a53.52 53.52 0 0 1 33.664 33.68l1.248 3.76 1.248-3.76a53.584 53.584 0 0 1 33.68-33.68l3.76-1.248-3.76-1.248a53.584 53.584 0 0 1-33.68-33.68l-1.232-3.776-1.248 3.76a53.52 53.52 0 0 1-33.664 33.68l-3.776 1.264z" fill="#263238" p-id="1963"></path><path d="M136 320a8.032 8.032 0 0 1-7.6-5.472L119.568 288a37.392 37.392 0 0 0-23.552-23.568l-26.544-8.848a8 8 0 0 1 0-15.184l26.544-8.848a37.392 37.392 0 0 0 23.552-23.568l8.848-26.528c2.192-6.528 12.992-6.528 15.184 0L152.432 208c3.68 11.072 12.496 19.888 23.568 23.568l26.528 8.848a8 8 0 0 1 0 15.184L176 264.432A37.376 37.376 0 0 0 152.432 288l-8.848 26.528A8 8 0 0 1 136 320z m-38.688-72l3.76 1.248a53.52 53.52 0 0 1 33.664 33.68l1.264 3.776 1.248-3.76a53.584 53.584 0 0 1 33.68-33.68l3.76-1.248-3.76-1.248a53.584 53.584 0 0 1-33.68-33.68l-1.248-3.792-1.248 3.76a53.52 53.52 0 0 1-33.664 33.68l-3.776 1.264z" fill="#263238" p-id="1964"></path></svg>