<?xml version="1.0" standalone="no"?><!DOCTYPE svg PUBLIC "-//W3C//DTD SVG 1.1//EN" "http://www.w3.org/Graphics/SVG/1.1/DTD/svg11.dtd"><svg t="1661095422684" class="icon" viewBox="0 0 1024 1024" version="1.1" xmlns="http://www.w3.org/2000/svg" p-id="55270" xmlns:xlink="http://www.w3.org/1999/xlink" width="200" height="200"><defs><style type="text/css"></style></defs><path d="M893.44 472.96c-19.626667-177.92-160.853333-319.146667-338.773333-338.773333l0-87.893333-85.333333 0 0 87.893333c-177.92 19.626667-319.146667 160.853333-338.773333 338.773333l-87.893333 0 0 85.333333 87.893333 0c19.626667 177.92 160.853333 319.146667 338.773333 338.773333l0 87.893333 85.333333 0 0-87.893333c177.92-19.626667 319.146667-160.853333 338.773333-338.773333l87.893333 0 0-85.333333-87.893333 0zM512 814.293333c-164.906667 0-298.666667-133.76-298.666667-298.666667s133.76-298.666667 298.666667-298.666667 298.666667 133.76 298.666667 298.666667-133.76 298.666667-298.666667 298.666667z" p-id="55271"></path></svg>