<?xml version="1.0" standalone="no"?><!DOCTYPE svg PUBLIC "-//W3C//DTD SVG 1.1//EN" "http://www.w3.org/Graphics/SVG/1.1/DTD/svg11.dtd"><svg t="1660197389521" class="icon" viewBox="0 0 1024 1024" version="1.1" xmlns="http://www.w3.org/2000/svg" p-id="47928" xmlns:xlink="http://www.w3.org/1999/xlink" width="200" height="200"><defs><style type="text/css"></style></defs><path d="M511.88 232.27l281.01 151.31L511.88 534.9 230.87 383.58l281.01-151.31c-0.01 0-0.01 0 0 0m0-64a63.94 63.94 0 0 0-30.34 7.65L200.53 327.23c-44.88 24.16-44.88 88.54 0 112.7l281.01 151.31a63.97 63.97 0 0 0 30.34 7.65 63.94 63.94 0 0 0 30.34-7.65l281.01-151.31c44.88-24.16 44.88-88.54 0-112.7L542.22 175.92a63.97 63.97 0 0 0-30.34-7.65z" p-id="47929"></path><path d="M823.23 503.25L511.88 670.9 200.53 503.25c-9.64-5.19-17.21-12.24-22.71-20.35-20.09 29.62-12.53 73.38 22.71 92.35l281.01 151.31a63.99 63.99 0 0 0 60.68 0l281.01-151.31c35.23-18.97 42.8-62.73 22.71-92.35-5.51 8.1-13.07 15.15-22.71 20.35z" p-id="47930"></path><path d="M823.23 631.25L511.88 798.9 200.53 631.25c-9.64-5.19-17.21-12.24-22.71-20.35-20.09 29.62-12.53 73.38 22.71 92.35l281.01 151.31a63.99 63.99 0 0 0 60.68 0l281.01-151.31c35.23-18.97 42.8-62.73 22.71-92.35-5.51 8.1-13.07 15.15-22.71 20.35z" p-id="47931"></path></svg>