<?xml version="1.0" standalone="no"?><!DOCTYPE svg PUBLIC "-//W3C//DTD SVG 1.1//EN" "http://www.w3.org/Graphics/SVG/1.1/DTD/svg11.dtd"><svg t="1660197065706" class="icon" viewBox="0 0 1024 1024" version="1.1" xmlns="http://www.w3.org/2000/svg" p-id="43043" xmlns:xlink="http://www.w3.org/1999/xlink" width="200" height="200"><defs><style type="text/css"></style></defs><path d="M499.145143 950.436571c17.554286 0 31.707429-12.873143 37.705143-24.868571L307.145143 528.292571c-3.858286-5.997714-6.436571-11.574857-6.436572-16.292571s2.578286-10.294857 6.436572-16.274286L536.850286 98.413714c-5.997714-11.995429-20.132571-24.868571-37.705143-24.868571-13.293714 0-28.288 7.716571-37.302857 23.588571L244.169143 465.28c-10.715429 18.011429-18.432 30.866286-18.432 46.72 0 15.433143 7.716571 28.708571 18.432 46.72l217.709714 368.146286c9.856 16.274286 23.990857 23.570286 37.284572 23.570285z m214.290286-0.438857c23.570286 0 39.003429-13.714286 59.556571-48l194.998857-335.561143c12.013714-20.571429 17.572571-37.302857 17.572572-54.436571 0-17.572571-5.558857-33.865143-17.554286-54.436571L772.992 122.002286c-20.571429-34.285714-35.986286-48-59.556571-48-23.588571 0-39.003429 13.714286-59.154286 48L458.861714 457.563429c-12.013714 20.571429-17.572571 36.864-17.572571 54.436571 0 17.152 5.577143 33.865143 17.554286 54.436571l195.437714 335.561143c20.150857 34.285714 35.584 48 59.154286 48z m-423.862858-811.702857c15.433143 0 28.288-12.434286 28.288-27.867428 0-15.853714-12.854857-28.288-28.288-28.288s-28.288 12.434286-28.288 28.288c0 15.433143 12.854857 27.867429 28.288 27.867428z m-44.141714 79.268572a27.794286 27.794286 0 0 0 27.849143-27.849143c0-15.853714-12.434286-28.288-27.849143-28.288a27.977143 27.977143 0 0 0-28.288 28.288c0 15.433143 12.434286 27.849143 28.288 27.849143z m468.004572 642.870857c-2.139429 0-2.998857-1.28-4.297143-3.437715L522.294857 530.852571c-4.297143-6.857143-6.016-12.854857-6.016-18.852571 0-5.997714 1.718857-11.995429 5.997714-18.852571l186.88-326.582858c1.28-1.700571 2.139429-2.998857 4.278858-2.998857s3.419429 1.28 4.278857 2.998857l186.861714 326.582858c4.278857 6.857143 6.418286 12.854857 6.418286 18.852571 0 5.997714-2.139429 11.995429-6.418286 18.852571L717.714286 856.996571c-0.859429 2.139429-2.139429 3.437714-4.278857 3.437715zM200.411429 297.691429c15.853714 0 28.288-12.854857 28.288-28.288 0-15.414857-12.434286-28.269714-28.288-28.269715-15.433143 0-27.867429 12.854857-27.867429 28.269715 0 15.433143 12.434286 28.288 27.867429 28.288zM155.428571 376.576a27.977143 27.977143 0 0 0 28.288-28.288c0-15.433143-12.434286-27.867429-28.288-27.867429a27.794286 27.794286 0 0 0-27.849142 27.867429c0 15.853714 12.434286 28.288 27.849142 28.288z m-44.141714 79.725714c15.433143 0 28.288-12.434286 28.288-27.867428 0-15.853714-12.854857-28.288-28.288-28.288s-27.867429 12.434286-27.867428 28.288c0 15.414857 12.434286 27.849143 27.867428 27.849143z m-44.580571 79.268572a27.794286 27.794286 0 0 0 27.867428-27.849143c0-15.872-12.434286-28.288-27.849143-28.288a27.977143 27.977143 0 0 0-28.288 28.288c0 15.414857 12.434286 27.849143 28.269715 27.849143z m44.580571 79.286857c15.433143 0 28.288-12.434286 28.288-27.849143 0-15.872-12.854857-28.288-28.288-28.288s-27.867429 12.434286-27.867428 28.288c0 15.414857 12.434286 27.849143 27.867428 27.849143zM155.428571 695.003429c15.853714 0 28.288-12.854857 28.288-28.288s-12.434286-28.288-28.288-28.288c-15.433143 0-27.849143 12.854857-27.849142 28.288s12.434286 28.288 27.849142 28.288z m45.001143 78.848c15.853714 0 28.288-12.854857 28.288-28.288 0-15.414857-12.434286-28.269714-28.288-28.269715-15.433143 0-27.867429 12.854857-27.867428 28.269715 0 15.433143 12.434286 28.288 27.867428 28.288z m44.982857 79.286857c15.451429 0 27.867429-12.434286 27.867429-28.288a27.794286 27.794286 0 0 0-27.849143-27.849143c-15.853714 0-28.288 12.434286-28.288 27.849143 0 15.872 12.434286 28.288 28.288 28.288z m44.16 79.725714c15.433143 0 28.288-12.434286 28.288-28.288 0-15.853714-12.854857-28.288-28.288-28.288s-28.288 12.434286-28.288 28.288c0 15.853714 12.854857 28.288 28.288 28.288z" p-id="43044"></path></svg>