<?xml version="1.0" standalone="no"?><!DOCTYPE svg PUBLIC "-//W3C//DTD SVG 1.1//EN" "http://www.w3.org/Graphics/SVG/1.1/DTD/svg11.dtd"><svg t="1660198226990" class="icon" viewBox="0 0 1523 1024" version="1.1" xmlns="http://www.w3.org/2000/svg" p-id="66338" xmlns:xlink="http://www.w3.org/1999/xlink" width="297.4609375" height="200"><defs><style type="text/css"></style></defs><path d="M369.329049 1023.99936a63.99996 63.99996 0 0 1-49.279969-26.879983L23.729265 586.239634a127.99992 127.99992 0 0 1 0-148.479908l255.99984-357.119776A191.99988 191.99988 0 0 1 435.249008 0h895.99944a191.99988 191.99988 0 0 1 191.99988 191.99988v639.9996a191.99988 191.99988 0 0 1-191.99988 191.99988h-703.99956a63.99996 63.99996 0 1 1 0-127.99992h703.99956a63.99996 63.99996 0 0 0 63.99996-63.99996V191.99988a63.99996 63.99996 0 0 0-63.99996-63.99996h-895.99944a63.99996 63.99996 0 0 0-51.199968 26.879983L128.0492 511.99968l293.759816 410.879743A63.99996 63.99996 0 0 1 369.329049 1023.99936z m183.679885-294.399816l79.359951-79.35995a63.99996 63.99996 0 0 0-90.239944-90.879944L462.768991 639.9996a63.99996 63.99996 0 1 0 90.239943 89.599944z m260.479838-260.479837L896.04872 383.99976a63.99996 63.99996 0 0 0-89.599944-88.959944l-83.199948 83.199948a63.99996 63.99996 0 1 0 90.239944 90.239943z m72.959954 264.959834a63.99996 63.99996 0 0 0 0-90.239943l-79.35995-79.99995a63.99996 63.99996 0 0 0-90.239944 90.239943l79.35995 79.359951a63.99996 63.99996 0 0 0 90.239944 0zM625.968889 473.599704a63.99996 63.99996 0 0 0 0-89.599944l-83.199948-83.199948a63.99996 63.99996 0 1 0-90.879943 88.959944l83.199948 83.199948a63.99996 63.99996 0 0 0 90.239943 0z" p-id="66339"></path></svg>