<?xml version="1.0" standalone="no"?><!DOCTYPE svg PUBLIC "-//W3C//DTD SVG 1.1//EN" "http://www.w3.org/Graphics/SVG/1.1/DTD/svg11.dtd"><svg t="1659950095134" class="icon" viewBox="0 0 1024 1024" version="1.1" xmlns="http://www.w3.org/2000/svg" p-id="14859" xmlns:xlink="http://www.w3.org/1999/xlink" width="200" height="200"><defs><style type="text/css"></style></defs><path d="M512 0c282.772 0 512 229.228 512 512S794.772 1024 512 1024 0 794.772 0 512 229.228 0 512 0z" fill="#838383" p-id="14860"></path><path d="M298.084 403.176c0 155.772 126.29 282.058 282.058 282.058 155.78 0 282.052-126.286 282.052-282.058S735.922 121.122 580.142 121.122c-155.768 0-282.058 126.284-282.058 282.054z" fill="#8F8F8F" p-id="14861"></path><path d="M427.892 184.266a6.39 6.39 0 0 1 0 12.782 6.392 6.392 0 0 1 0-12.782z m206.914-34.308a3.5 3.5 0 1 1 0 7 3.5 3.5 0 0 1 0-7zM514.784 38.46a5.568 5.568 0 0 1 5.566 5.566 5.568 5.568 0 0 1-11.132 0 5.57 5.57 0 0 1 5.566-5.566z m323.414 822.736c1.928 0 3.5 1.566 3.5 3.496a3.5 3.5 0 0 1-6.996 0c0-1.93 1.564-3.496 3.496-3.496z m-593.964-11.34a3.498 3.498 0 1 1-0.004 6.996 3.498 3.498 0 0 1 0.004-6.996z m372.15 127.048l0 0z m325.424-488.14a3.5 3.5 0 1 1-0.004 6.996 3.5 3.5 0 0 1 0.004-6.996z m-56.996-66.14a3.498 3.498 0 1 1-0.004 6.996 3.498 3.498 0 0 1 0.004-6.996z m20.446 145.45c1.934 0 3.496 1.562 3.496 3.5a3.496 3.496 0 1 1-6.992 0c0-1.938 1.568-3.5 3.496-3.5z m-207.52 253.114a3.494 3.494 0 1 1 0.004 6.988 3.494 3.494 0 0 1-0.004-6.988zM170.078 214.26c1.934 0 3.496 1.562 3.496 3.496a3.496 3.496 0 1 1-6.992 0c0-1.934 1.568-3.496 3.496-3.496z m149.79-95.336a3.498 3.498 0 1 1-3.5 3.496 3.496 3.496 0 0 1 3.5-3.496zM43.384 495.76a3.5 3.5 0 0 1 0 7 3.5 3.5 0 0 1 0-7z m151.484 110.454a3.5 3.5 0 1 1-0.004 6.996 3.5 3.5 0 0 1 0.004-6.996z m14.728 126.62a3.5 3.5 0 1 1 0.002 6.998 3.5 3.5 0 0 1-0.002-6.998z m579.656-579.66l0 0z m42.806 59.958a13.66 13.66 0 1 1 0 27.322 13.66 13.66 0 0 1 0-27.322zM375.204 889.76a6.396 6.396 0 0 1 6.392 6.39 6.39 6.39 0 1 1-6.392-6.39z m512.554-221.902c13.748 0 24.894 11.15 24.894 24.896 0 13.752-11.146 24.904-24.894 24.904-13.752 0-24.9-11.15-24.9-24.904 0-13.746 11.148-24.896 24.9-24.896zM199.71 391.902a16.106 16.106 0 0 1 16.104 16.106 16.104 16.104 0 1 1-32.21 0 16.108 16.108 0 0 1 16.106-16.106z m81.354-152.994a6.4 6.4 0 0 1 6.392 6.396 6.396 6.396 0 0 1-6.392 6.39 6.394 6.394 0 0 1 0-12.786z" fill="#FAFBFC" p-id="14862"></path><path d="M677.676 167.376c88.908 0 160.98 72.076 160.98 160.986 0 88.908-72.072 160.984-160.98 160.984-88.912 0-160.986-72.076-160.986-160.984 0-88.91 72.074-160.986 160.986-160.986z" fill="#FBFBFB" p-id="14863"></path><path d="M677.676 187.278c77.916 0 141.084 63.166 141.084 141.084 0 77.922-63.168 141.084-141.084 141.084-77.924 0-141.084-63.162-141.084-141.084 0-77.92 63.16-141.084 141.084-141.084z" fill="#FFFFFF" p-id="14864"></path><path d="M743.422 203.508a141.826 141.826 0 0 1 56.006 53.542 38.778 38.778 0 0 1-25.326 9.36c-21.5 0-38.932-17.428-38.932-38.928a38.82 38.82 0 0 1 8.252-23.974z m-162.57 86.476c21.5 0 38.932 17.428 38.932 38.932 0 21.5-17.432 38.928-38.932 38.928-21.5 0-38.932-17.428-38.932-38.928 0-21.506 17.43-38.932 38.932-38.932z m106.1 3c21.496 0 38.932 17.436 38.932 38.932 0 21.504-17.436 38.936-38.932 38.936-21.504 0-38.936-17.432-38.936-38.936 0.002-21.496 17.432-38.932 38.936-38.932z" fill="#EFEFEF" p-id="14865"></path><path d="M146.44 870.432c28.656-37.918 57.498-72.85 87.002-104.342 23.396-24.986 65.402-26.644 92.354-9.012 130.646 85.458 206.05 173.252 256.558 262.088A516.382 516.382 0 0 1 512 1024c-143.196 0-272.644-58.81-365.56-153.568z" fill="#6C4C40" p-id="14866"></path><path d="M300.246 746.87c9.208 1.818 17.978 5.254 25.55 10.208 130.646 85.458 206.05 173.252 256.558 262.088A516.382 516.382 0 0 1 512 1024c-78.61 0-153.068-17.734-219.628-49.39 22.132-15.352 41.07-34.516 20.566-72.068-45.136-82.65-12.692-155.672-12.692-155.672z" fill="#4B342C" p-id="14867"></path><path d="M543.234 1023.024c51.938-128.61 125.252-263.934 266.028-420.472 6.516-7.244 13.58-12.938 20.79-17.028a522.9 522.9 0 0 1 143.04 149.294c-78.576 162.286-240.312 276.794-429.858 288.206z" fill="#6C4C40" p-id="14868"></path><path d="M859.066 888.38c15.076-36.128 18.186-73.392-14.72-91.098-60.61-32.614-19.094-158.85-2.236-203.128a522.824 522.824 0 0 1 130.982 140.664c-28.174 58.176-67.036 110.21-114.026 153.562z" fill="#5C4036" p-id="14869"></path><path d="M311.708 476.77a5.28 5.28 0 1 1-0.004 10.56 5.28 5.28 0 0 1 0.004-10.56zM466.434 563.57a5.28 5.28 0 0 1 5.278 5.282 5.28 5.28 0 1 1-5.278-5.282zM436.244 459.924a5.28 5.28 0 1 1-0.004 10.56 5.28 5.28 0 0 1 0.004-10.56zM584.168 568.606a5.28 5.28 0 1 1 0.002 10.56 5.28 5.28 0 0 1-0.002-10.56zM319.514 603.826a5.28 5.28 0 1 1 0.002 10.56 5.28 5.28 0 0 1-0.002-10.56zM518.758 734.644a5.28 5.28 0 1 1 0.004 10.56 5.28 5.28 0 0 1-0.004-10.56zM627.434 652.126a5.28 5.28 0 1 1 0.002 10.56 5.28 5.28 0 0 1-0.002-10.56zM432.218 669.238a5.28 5.28 0 1 1-5.282 5.278 5.28 5.28 0 0 1 5.282-5.278zM105.176 575.646a5.284 5.284 0 1 1-0.002 10.566 5.284 5.284 0 0 1 0.002-10.566zM729.072 558.542a5.28 5.28 0 1 1 0.002 10.56 5.28 5.28 0 0 1-0.002-10.56zM416.118 310.754a5.28 5.28 0 1 1 0.004 10.56 5.28 5.28 0 0 1-0.004-10.56zM129.576 326.098a5.28 5.28 0 1 1-0.004 10.56 5.28 5.28 0 0 1 0.004-10.56z" fill="#FFFFFF" p-id="14870"></path></svg>