<?xml version="1.0" standalone="no"?><!DOCTYPE svg PUBLIC "-//W3C//DTD SVG 1.1//EN" "http://www.w3.org/Graphics/SVG/1.1/DTD/svg11.dtd"><svg t="1660528190690" class="icon" viewBox="0 0 1024 1024" version="1.1" xmlns="http://www.w3.org/2000/svg" p-id="1171" xmlns:xlink="http://www.w3.org/1999/xlink" width="200" height="200"><defs><style type="text/css"></style></defs><path d="M840.533333 448c-12.8 0-21.333333 8.533333-21.333333 21.333333v337.066667c0 23.466667-19.2 42.666667-42.666667 42.666667H236.8c-23.466667 0-42.666667-19.2-42.666667-42.666667V217.6c0-23.466667 19.2-42.666667 42.666667-42.666667h46.933333v253.866667c0 8.533333 4.266667 14.933333 10.666667 19.2 6.4 4.266667 14.933333 4.266667 21.333333 0l113.066667-59.733333 113.066667 59.733333c2.133333 2.133333 6.4 2.133333 10.666666 2.133333s8.533333 0 10.666667-2.133333c6.4-4.266667 10.666667-10.666667 10.666667-19.2V174.933333h204.8c23.466667 0 42.666667 12.8 42.666666 29.866667V256c0 12.8 8.533333 21.333333 21.333334 21.333333s21.333333-8.533333 21.333333-21.333333V204.8c0-40.533333-38.4-72.533333-85.333333-72.533333H236.8c-46.933333 0-85.333333 38.4-85.333333 85.333333v588.8c0 46.933333 38.4 85.333333 85.333333 85.333333h537.6c46.933333 0 85.333333-38.4 85.333333-85.333333V469.333333c2.133333-12.8-8.533333-21.333333-19.2-21.333333zM529.066667 174.933333v219.733334l-91.733334-46.933334c-2.133333-2.133333-6.4-2.133333-10.666666-2.133333s-6.4 0-10.666667 2.133333l-91.733333 46.933334V174.933333h204.8z" fill="#666767" p-id="1172"></path><path d="M840.533333 366.933333m-32 0a32 32 0 1 0 64 0 32 32 0 1 0-64 0Z" fill="#666767" p-id="1173"></path><path d="M714.666667 716.8H305.066667c-12.8 0-21.333333 8.533333-21.333334 21.333333s8.533333 21.333333 21.333334 21.333334h407.466666c12.8 0 21.333333-8.533333 21.333334-21.333334s-8.533333-21.333333-19.2-21.333333zM714.666667 597.333333H305.066667c-12.8 0-21.333333 8.533333-21.333334 21.333334s8.533333 21.333333 21.333334 21.333333h407.466666c12.8 0 21.333333-8.533333 21.333334-21.333333s-8.533333-21.333333-19.2-21.333334z" fill="#666767" p-id="1174"></path></svg>