<?xml version="1.0" standalone="no"?><!DOCTYPE svg PUBLIC "-//W3C//DTD SVG 1.1//EN" "http://www.w3.org/Graphics/SVG/1.1/DTD/svg11.dtd"><svg t="1660528210427" class="icon" viewBox="0 0 1024 1024" version="1.1" xmlns="http://www.w3.org/2000/svg" p-id="2104" xmlns:xlink="http://www.w3.org/1999/xlink" width="200" height="200"><defs><style type="text/css"></style></defs><path d="M832 928H192c-52.8 0-96-43.2-96-96V224c0-52.8 43.2-96 96-96 17.6 0 32 14.4 32 32s-14.4 32-32 32-32 14.4-32 32v608c0 17.6 14.4 32 32 32h640c17.6 0 32-14.4 32-32V224c0-17.6-14.4-32-32-32s-32-14.4-32-32 14.4-32 32-32c52.8 0 96 43.2 96 96v608c0 52.8-43.2 96-96 96z" p-id="2105"></path><path d="M320 224c-17.6 0-32-14.4-32-32V128c0-17.6 14.4-32 32-32s32 14.4 32 32v64c0 17.6-14.4 32-32 32zM576 192h-128c-17.6 0-32-14.4-32-32s14.4-32 32-32h128c17.6 0 32 14.4 32 32s-14.4 32-32 32zM704 224c-17.6 0-32-14.4-32-32V128c0-17.6 14.4-32 32-32s32 14.4 32 32v64c0 17.6-14.4 32-32 32zM512 768c-3.2 0-6.4 0-9.6-1.6-16-4.8-25.6-24-20.8-40L595.2 384H384c-17.6 0-32-14.4-32-32s14.4-32 32-32h211.2c20.8 0 40 9.6 51.2 27.2 12.8 16 16 38.4 8 57.6l-113.6 342.4c-3.2 12.8-16 20.8-28.8 20.8z" p-id="2106"></path></svg>