<?xml version="1.0" standalone="no"?><!DOCTYPE svg PUBLIC "-//W3C//DTD SVG 1.1//EN" "http://www.w3.org/Graphics/SVG/1.1/DTD/svg11.dtd"><svg t="1660153478717" class="icon" viewBox="0 0 1024 1024" version="1.1" xmlns="http://www.w3.org/2000/svg" p-id="3952" xmlns:xlink="http://www.w3.org/1999/xlink" width="200" height="200"><defs><style type="text/css"></style></defs><path d="M153.296 992H464V641.952c-64-24.096-96.08-73.152-96.4-129.952 0.32-56.8 32.4-105.856 96.4-129.952V32H153.296s123.488 215.872 125.264 218.72c17.312 27.84 58.992 97.36 5.968 113.632-18.768 5.76-45.536-0.608-61.824-9.92-22.528-12.88 0.448-44.128 20.592-22.288 24.736 26.816 64.576-13.216 39.936-39.936-34.48-37.36-88.528-30.496-116.464 9.984-32.112 46.528 9.232 94.656 50.96 111.936a121.712 121.712 0 0 0 34.144 8.304c0.352 0.032 0.592 0.224 0.944 0.24 9.28 0.528 18.384 1.52 27.552 3.168 3.776 0.672 19.584 3.04 21.392 7.44 3.296 8.128-2.752 14.72-10.032 14.72H208a32 32 0 0 0-32 32v64a32 32 0 0 0 32 32h83.728c7.28 0 13.328 6.592 10 14.736-1.808 4.4-17.616 6.288-21.392 6.976a227.68 227.68 0 0 1-27.552 3.392c-0.352 0.016-0.592 0.32-0.944 0.368a121.792 121.792 0 0 0-34.144 8.352c-41.728 17.264-83.072 65.44-50.96 111.952 27.936 40.48 81.984 47.36 116.464 10 24.64-26.72-15.184-66.736-39.936-39.92-20.144 21.84-43.12-9.392-20.592-22.288 16.304-9.328 43.072-15.68 61.824-9.92 53.024 16.272 11.344 85.792-5.968 113.632C276.784 776.112 153.296 992 153.296 992zM848 32H544v350.048c64 24.096 96.08 73.152 96.4 129.952-0.32 56.8-32.4 105.856-96.4 129.952V992h304s-123.488-215.888-125.264-218.72c-17.312-27.84-58.992-97.36-5.968-113.632 18.768-5.76 45.536 0.592 61.84 9.92 22.528 12.88-0.448 44.112-20.592 22.288-24.736-26.816-64.576 13.216-39.936 39.92 34.48 37.36 88.528 30.48 116.464-10 32.112-46.528-9.232-94.688-50.96-111.952a121.248 121.248 0 0 0-34.144-8.352c-0.352-0.032-0.592-0.336-0.944-0.368-9.28-0.528-18.384-1.76-27.552-3.392-3.776-0.672-19.584-2.576-21.392-6.976-3.312-8.144 2.736-14.736 10.016-14.736H800a32 32 0 0 0 32-32v-64a32 32 0 0 0-32-32h-90.432c-7.28 0-13.328-6.592-10-14.736 1.808-4.4 17.616-6.768 21.392-7.44a230.512 230.512 0 0 1 27.552-3.168c0.352-0.016 0.592-0.208 0.944-0.24a121.712 121.712 0 0 0 34.144-8.304c41.728-17.264 83.072-65.408 50.96-111.936-27.936-40.48-81.984-47.344-116.464-9.984-24.64 26.72 15.184 66.752 39.936 39.936 20.144-21.84 43.12 9.408 20.592 22.288-16.304 9.328-43.072 15.68-61.84 9.92-53.024-16.272-11.344-85.792 5.968-113.632C724.512 247.872 848 32 848 32z" fill="#2c2c2c" p-id="3953"></path><path d="M504 512m-85.328 0a85.328 85.328 0 1 0 170.656 0 85.328 85.328 0 1 0-170.656 0Z" fill="#2c2c2c" p-id="3954"></path></svg>