<?xml version="1.0" standalone="no"?><!DOCTYPE svg PUBLIC "-//W3C//DTD SVG 1.1//EN" "http://www.w3.org/Graphics/SVG/1.1/DTD/svg11.dtd"><svg t="1638547431603" class="icon" viewBox="0 0 1024 1024" version="1.1" xmlns="http://www.w3.org/2000/svg" p-id="922" xmlns:xlink="http://www.w3.org/1999/xlink" width="200" height="200"><defs><style type="text/css"></style></defs><path d="M512 512m-64 0a64 64 0 1 0 128 0 64 64 0 1 0-128 0Z" fill="#E50001" p-id="923"></path><path d="M512 200a309.6 309.6 0 0 0-171.36 51.52 64 64 0 0 0-89.12 89.12A311.84 311.84 0 1 0 512 200z m0 576a263.68 263.68 0 0 1-220.16-409.28A60.32 60.32 0 0 0 304 368a64 64 0 0 0 64-64 60.32 60.32 0 0 0-1.28-12.16A263.84 263.84 0 1 1 512 776z" fill="#121244" p-id="924"></path><path d="M512 312A200 200 0 1 0 712 512 200.32 200.32 0 0 0 512 312z m0 352a152 152 0 1 1 152-152 152.16 152.16 0 0 1-152 152z" fill="#121244" p-id="925"></path><path d="M672 576m-32 0a32 32 0 1 0 64 0 32 32 0 1 0-64 0Z" fill="#E50001" p-id="926"></path></svg>