<?xml version="1.0" standalone="no"?><!DOCTYPE svg PUBLIC "-//W3C//DTD SVG 1.1//EN" "http://www.w3.org/Graphics/SVG/1.1/DTD/svg11.dtd"><svg t="1676130996432" class="icon" viewBox="0 0 1024 1024" version="1.1" xmlns="http://www.w3.org/2000/svg" p-id="19221" xmlns:xlink="http://www.w3.org/1999/xlink" width="200" height="200"><path d="M501.9392 939.56096c-81.64352 0-130.88768-34.0992-130.88768-34.0992l86.75328-8.51968c76.71296-18.74944 109.33248-55.05024 125.7728-72.192l32.76288 34.67776c-25.55904 46.03392-83.09248 80.13312-114.40128 80.13312z m104.1408-217.53856l6.8608-10.90048c173.89056-69.89312 152.17152-228.43904 150.62528-281.14944-3.54816-121.12384-104.75008-310.11328-311.79264-340.88448l-0.0256-7.02464a437.80608 437.80608 0 0 1 67.49696-5.2224c238.82752 0 435.7632 176.26624 438.98368 392.91904 0 143.03232-115.34336 259.35872-257.11104 259.35872l-95.03744-7.09632z" fill="#CCCCCC" p-id="19222"></path><path d="M519.13216 974.976c-253.11232 0-459.0336-206.45376-459.0336-460.2368 0-66.24256 13.77792-130.29888 40.94464-190.39744a26.39872 26.39872 0 0 1 34.95936-13.21984c13.26592 5.9392 19.20512 21.632 13.2352 34.9696-24.1152 53.1712-36.352 109.90592-36.352 168.6528 0 224.67584 182.23616 407.44448 406.23616 407.44448 38.53312 0 69.87776-31.34976 69.87776-69.88288 0-17.15712-6.09792-33.91488-15.90784-43.73504-13.09184-15.80544-18.31936-28.48256-18.31936-44.01152 0-36.01408 29.2608-65.32096 65.2032-65.32096h81.024c125.29152 0 227.22048-102.87104 227.22048-229.30432-3.06176-200.17664-186.56768-363.06944-409.088-363.06944-61.84448 0-121.216 13.6192-176.47616 40.48896a26.12224 26.12224 0 0 1-11.50464 2.65728 26.55744 26.55744 0 0 1-23.74656-14.86848 26.1632 26.1632 0 0 1-1.19296-20.15232 26.2144 26.2144 0 0 1 13.40928-15.08864c62.33088-30.336 129.45408-45.7216 199.5008-45.7216 251.14112 0 458.34752 186.38336 461.9008 415.48288 0 155.79136-125.60896 282.49088-280.0128 282.49088H619.9808c-6.72256 0-12.41088 5.7344-12.41088 12.51328 0 1.5616 0 3.0208 4.58752 8.64256 18.12992 17.98144 29.53728 48.39936 29.53728 79.09376 0.05632 32.64-12.65664 63.39072-35.78368 86.54848-23.18848 23.23456-54.01088 36.02432-86.77888 36.02432zM181.23776 270.01856a26.55232 26.55232 0 0 1-16.40448-5.72416c-11.33568-9.06752-13.21984-25.72288-4.224-37.13536a463.14496 463.14496 0 0 1 75.79136-75.34592 26.32704 26.32704 0 0 1 16.32768-5.64736c8.1664 0 15.71328 3.68128 20.7104 10.112a26.04544 26.04544 0 0 1 5.44256 19.40992 26.32704 26.32704 0 0 1-9.90208 17.59744c-24.5248 19.2512-47.10912 41.68704-67.13344 66.69824-4.7872 6.3488-12.32384 10.0352-20.608 10.0352z" fill="#666666" p-id="19223"></path><path d="M498.75968 599.424c-35.10272-0.32256-69.53472-5.51424-99.61472-15.0272-33.89952-10.71104-60.88704-26.39872-80.21504-46.6176-10.21952-10.72128-9.87136-27.79136 0.75776-38.0416a26.88 26.88 0 0 1 18.60608-7.46496 26.624 26.624 0 0 1 19.46112 8.3456c25.984 27.17184 80.18944 44.38016 141.47072 44.91776l2.93376 0.01536c61.90592 0 117.19168-16.9472 144.25088-44.21632a26.66496 26.66496 0 0 1 19.09248-8.00256c7.14752 0 13.88032 2.7904 18.9696 7.87968 10.5216 10.52672 10.56256 27.5968 0.10752 38.05696-37.32992 37.6576-105.49248 60.16-182.30272 60.16l-3.51744-0.00512zM315.008 364.89216c0 30.9504 25.088 56.0384 56.04352 56.0384 30.9504 0 56.0384-25.088 56.0384-56.0384 0.01536-30.9504-25.05728-56.05376-56.00768-56.07424-30.9504-0.01536-56.05376 25.0624-56.06912 56.00768l-0.00512 0.06656zM576.72192 364.89216c-0.0256 30.9504 25.05216 56.05376 56.00256 56.06912 30.95552 0.01536 56.04864-25.05728 56.06912-56.00768v-0.06144c0.02048-30.9504-25.0624-56.05376-56.00256-56.07424-30.94528-0.01536-56.04352 25.0624-56.064 56.00768l-0.00512 0.06656z" fill="#666666" p-id="19224"></path></svg>