<?xml version="1.0" standalone="no"?><!DOCTYPE svg PUBLIC "-//W3C//DTD SVG 1.1//EN" "http://www.w3.org/Graphics/SVG/1.1/DTD/svg11.dtd"><svg t="1676132658603" class="icon" viewBox="0 0 1024 1024" version="1.1" xmlns="http://www.w3.org/2000/svg" p-id="58656" xmlns:xlink="http://www.w3.org/1999/xlink" width="200" height="200"><path d="M383.505219 594.797698c-1.527734 45.832014-39.721079 81.988381-85.553093 80.969893-44.304281-1.018489-79.442158-36.665612-80.969892-80.969893-6.62018-44.813525 32.08241-83.006871 76.895935-83.00687 51.433705 0 89.62705 38.193345 89.62705 83.00687zM338.691694 428.783957c-45.832014-1.018489-82.497626-37.684101-83.00687-83.00687 0-44.813525 38.193345-89.62705 83.00687-89.627051 45.32277 1.018489 81.988381 37.684101 83.006871 83.006871 0.509245 51.433705-38.193345 89.62705-83.006871 89.62705zM677.848601 256.150036c-1.018489 45.32277-37.684101 81.988381-83.006871 83.006871-44.813525 6.62018-83.006871-32.08241-83.00687-83.006871s38.193345-83.006871 83.00687-83.00687c45.32277 1.018489 81.988381 37.684101 83.006871 83.00687z" p-id="58657"></path><path d="M166.567018 933.445361c198.096151 19.351295 127.820396-191.475971 306.565252-191.475972l76.895935 63.655576c25.46223 230.178561-268.881151 287.723202-383.461187 127.820396zM766.966407 626.880108c64.16482-95.737986 249.020612-415.543597 249.020611-415.543597 6.110935-14.258849 0.509245-30.554676-13.240359-38.193345-9.675647-6.62018-22.406763-6.62018-32.08241 0 0 0-281.103022 242.909676-364.619137 319.296367-63.655576 64.16482-63.655576 89.62705-89.117806 191.475971l70.275755 57.544641c102.86741-31.063921 128.838885-37.684101 179.763346-114.580037zM230.222593 831.087195c-178.235612-153.282626-198.605396-421.654533-45.322769-599.890144 0-0.509245 0.509245-0.509245 0.509244-1.01849C268.415939 140.551511 383.505219 83.006871 504.705435 83.006871c166.013741 0 274.992087 83.006871 274.992087 147.17169 25.46223-25.46223 50.92446-44.813525 70.275755-64.16482C811.779932 76.386691 677.339356 0 504.705435 0 226.148637 0.509245 0.044032 226.104605 0.044032 505.170648v13.24036c0.509245 119.672482 43.285791 235.271007 121.200216 325.916547 32.08241 19.351295 76.895935 12.731115 108.978345-13.24036zM773.586587 754.700504c44.813525 83.006871-57.54464 140.551511-153.282626 172.633921-6.62018 32.08241-25.46223 63.655576-57.544641 95.737986 223.558381-25.46223 383.461187-185.365036 268.371907-338.647662-13.24036 25.46223-32.08241 44.813525-57.54464 70.275755z" p-id="58658"></path></svg>