<?xml version="1.0" standalone="no"?><!DOCTYPE svg PUBLIC "-//W3C//DTD SVG 1.1//EN" "http://www.w3.org/Graphics/SVG/1.1/DTD/svg11.dtd"><svg t="1661099676187" class="icon" viewBox="0 0 1024 1024" version="1.1" xmlns="http://www.w3.org/2000/svg" p-id="5134" xmlns:xlink="http://www.w3.org/1999/xlink" width="200" height="200"><defs><style type="text/css"></style></defs><path d="M512 0c282.772 0 512 229.228 512 512S794.772 1024 512 1024 0 794.772 0 512 229.228 0 512 0z" fill="#7FC9C3" p-id="5135"></path><path d="M110.274 524.314l0.014 9.928c0.056 25.202 1.96 30.736 5.492 45.762l0.266-0.032c30.264 177.34 176.836 314.988 358.444 331.654l1.516 0.142c2.396 0.196 4.806 0.394 7.216 0.568l3.188 0.202c2.058 0.142 4.1 0.246 6.168 0.356 1.322 0.06 2.666 0.08 4 0.152 1.846 0.05 3.67 0.138 5.516 0.192 2.13 0.036 4.26 0.05 6.396 0.068 1.04 0.022 2.098 0.04 3.132 0.04l0.462-0.01c3.02 0 6.034-0.05 9.016-0.1l1.438-0.032c2.844-0.092 5.662-0.198 8.474-0.33l2.406-0.11c2.5-0.146 5.022-0.308 7.512-0.486l3.538-0.274c1.64-0.142 3.256-0.284 4.878-0.44 180.03-16.784 325.534-152.442 357.214-327.728 3.852-15.046 3.894-19.74 5.832-43.586h0.018l0.436-0.014h0.01c0.06-1.516 0.092-3 0.118-4.498V533.986h0.004V533.214c2.53-29.92-1.374-79.09-11.53-117.128l-0.532-2.04c-43.72-174.304-201.428-303.4-389.292-303.4-192.412 0-353.178 135.43-392.254 316.164h-0.004c-6.454 21.738-8.352 49.414-8.874 73.264a382.26 382.26 0 0 0-0.202 11.93v0.76c-0.016 4.064-0.016 7.922-0.016 11.55z" fill="#8CCEC9" p-id="5136"></path><path d="M212.908 521.168l0.01 7.388c0.04 18.764 1.462 22.884 4.092 34.072l0.196-0.022c22.532 132.036 131.662 234.512 266.872 246.924l1.132 0.106c1.782 0.146 3.574 0.292 5.37 0.42l2.372 0.152c1.53 0.106 3.056 0.184 4.59 0.266 0.986 0.046 1.984 0.06 2.978 0.114 1.374 0.036 2.736 0.102 4.11 0.142 1.584 0.028 3.17 0.04 4.758 0.05 0.774 0.018 1.562 0.032 2.332 0.032l0.348-0.004c2.244 0 4.49-0.036 6.712-0.078l1.072-0.022c2.116-0.07 4.214-0.148 6.308-0.248l1.786-0.084c1.864-0.11 3.744-0.228 5.598-0.362l2.628-0.202c1.224-0.106 2.424-0.212 3.634-0.33 134.032-12.494 242.366-113.492 265.956-244.002 2.868-11.196 2.9-14.692 4.338-32.448h0.014l0.324-0.01h0.01c0.04-1.132 0.064-2.236 0.088-3.348v-1.31h0.006v-0.582c1.878-22.274-1.028-58.884-8.586-87.204l-0.394-1.52c-32.554-129.768-149.972-225.882-289.842-225.882-143.254 0-262.944 100.832-292.04 235.388h-0.006c-4.804 16.184-6.216 36.792-6.606 54.548a285.256 285.256 0 0 0-0.152 8.884v0.564c-0.008 3.03-0.008 5.908-0.008 8.608z" fill="#98D3CE" p-id="5137"></path><path d="M325.222 517.722l0.01 4.618c0.024 11.714 0.908 14.288 2.552 21.274l0.124-0.014c14.07 82.452 82.22 146.448 166.656 154.2l0.704 0.064c1.114 0.092 2.236 0.184 3.354 0.266l1.484 0.092c0.954 0.068 1.906 0.114 2.868 0.164 0.614 0.032 1.238 0.04 1.86 0.074 0.856 0.022 1.704 0.064 2.562 0.088 0.994 0.018 1.984 0.026 2.976 0.032 0.482 0.014 0.972 0.018 1.452 0.018h0.22c1.402 0 2.804-0.024 4.188-0.05l0.672-0.014c1.32-0.04 2.63-0.092 3.94-0.15l1.114-0.056c1.168-0.068 2.338-0.142 3.496-0.224l1.644-0.13a199.26 199.26 0 0 0 2.268-0.2c83.704-7.806 151.356-70.878 166.084-152.378 1.792-6.994 1.81-9.176 2.712-20.262h0.01l0.202-0.01h0.004c0.028-0.706 0.04-1.392 0.056-2.09V522.216h0.004v-0.362c1.172-13.908-0.64-36.77-5.364-54.456l-0.248-0.948c-20.326-81.038-93.654-141.062-181-141.062-89.458 0-164.204 62.97-182.374 146.998-3 10.108-3.884 22.974-4.126 34.062a183.086 183.086 0 0 0-0.092 5.548v0.354c-0.012 1.89-0.012 3.686-0.012 5.372z" fill="#A2D7D3" p-id="5138"></path><path d="M540.554 89.44c144.694 0 261.988 117.294 261.988 261.988s-117.294 261.988-261.988 261.988-261.988-117.296-261.988-261.99S395.86 89.44 540.554 89.44z" fill="#FFFFFF" p-id="5139"></path><path d="M373.226 290.158c39.926 0 72.292 32.366 72.292 72.292 0 39.932-32.366 72.296-72.292 72.296-39.93 0-72.296-32.366-72.296-72.296-0.002-39.926 32.366-72.292 72.296-72.292z" fill="#F9F9F9" p-id="5140"></path><path d="M980.08 719.718c-84.236-16.63-168.7-48.008-253.842-41.524-62.714 4.778-122.394 29.97-185 36.042-132.146 12.8-263.816-60.29-394.4-36.294-35.514 6.528-71.738 20.154-107.678 30.716C116.258 893.818 298.912 1024 512 1024c208.818 0 388.41-125.024 468.08-304.282z" fill="#4CB5AB" p-id="5141"></path><path d="M570.246 295.742c39.926 0 72.292 32.366 72.292 72.292 0 39.932-32.366 72.296-72.292 72.296-39.93 0-72.296-32.366-72.296-72.296-0.002-39.924 32.366-72.292 72.296-72.292z" fill="#F9F9F9" p-id="5142"></path><path d="M195.756 875.444s146.058 1.59 348.588-62.666c92.738-29.426 187.394-57.046 284.604-52.388 40.81 1.952 81.414 7.792 121.642 15.898C860.944 924.742 698.072 1024 512 1024c-119.36 0-229.176-40.846-316.242-109.318v-39.238z" fill="#00877A" p-id="5143"></path><path d="M867.17 880.744c-65.146-3.692-232.42-17.652-391.004-67.966-92.738-29.426-187.396-57.046-284.604-52.388-39.752 1.902-79.306 7.49-118.516 15.274C162.612 924.464 325.672 1024 512 1024c137.932 0 263.11-54.564 355.17-143.256z" fill="#26A599" p-id="5144"></path><path d="M835.386 908.932c-102.012-12.978-204.324-29.654-303.842-42.248-71.92-9.102-145.06-15.384-216.72-4.384-46.826 7.188-92.056 21.6-136.636 37.91C267.82 977.352 384.458 1024 512 1024c122.654 0 235.216-43.15 323.386-115.068z" fill="#00786A" p-id="5145"></path><path d="M653.322 723.828c-19.648-23.722-18.788-54.82-16.066-72.81 1.122-4.874 2.144-9.74 3.144-14.582l0.004-0.014h-0.004c2.896-14.084 5.588-28.06 9.954-42.088 2.538-8.158-3.334-31.964-5.19-37.436-4.444-13.13-13.298-16.402-22.37-24.236-12.382-10.706-27.308-14.154-42.762-13.728-14.568 0.402-29.19-0.67-43.764-1.466-1.736-0.096-3.912-2.23-4.874-3.972-1.272-2.31-1.928-5.126-2.158-7.78-0.218-2.602-0.572-6.382 0.886-7.688 4.104-3.692 8.778-7.988 13.852-9.052 6.968-1.462 12.63-2.35 17.468-8.96 5.568-7.606 5.842-16.69-3.148-18.988-9.058-2.318-11.672-10.606-18.246-14.852-0.742-0.482-0.982-2.918-0.462-3.954 2.038-4.076 1.218-7.248-3.504-10.128 2.6-0.692 4.204-0.904 5.616-1.544 4.608-2.094 9.904-3.496 13.546-6.73 6.254-5.552 12.072-11.848 16.908-18.66 4.082-5.75 7.468-11.474 14.884-13.482 2.104-0.568 4.128-2.5 5.566-4.31 8.948-11.242 17.756-22.6 26.502-34.006 1.314-1.714 2.226-3.798 3.034-5.838 3.884-9.83 1.618-18.984-3.158-27.858-0.76 2.294-0.714 4.55-0.768 6.794-0.084 3.624 0.402 7.408-0.462 10.844-5.584 22.206-22.81 30.988-41.63 34.8-4.228 0.852-4.654-1.47-3.426-4.878 3.468-9.652 6.408-19.512 10.4-28.938 3.032-7.176 6.258-14.766 11.302-20.492 14.288-16.208 13.538-33.412 5.794-51.74-0.486-1.148-0.728-2.41-1.086-3.62-3.088 3.166-2.652 6.19-2.528 8.42 0.37 6.75 1.362 13.516 1.09 20.236-0.252 6.082-2.226 11.916-7.926 15.51-3.248 2.058-5.264 2.228-6.762-2.364-3.348-10.258-7.312-20.314-11.192-30.388-0.668-1.726-2.166-3.134-3.28-4.686-1.416 2.062-1.64 3.458-1.58 4.848 0.312 7.5 0.734 14.994 1.04 22.498 0.18 4.27 0.344 8.48-4.662 10.706-0.87 0.39-1.374 2.708-1.246 4.064 0.594 6.346-3.826 10-9.9 7.87-2.066-0.728-5.416-1.878-7.418-2.78-15.58-8.376-25.848-23.058-39.696-33.732 0.092 2.098 0.706 3.724 1.728 5.03 11.402 14.546 22.804 29.086 38.308 39.684 4.604 3.15 9.228 5.758 15.216 5.15 5.882-0.6 7.27 0.768 6.67 6.838-1.93 19.504-8.892 35.56-28.506 44.058-7.192 3.12-13.542 8.462-19.814 13.382-7.478 5.864-16.208 7.234-25.106 7.994-1.924 0.17-4.63-1.534-5.828-3.202-0.576-0.802 1.086-4.018 2.496-5.296 7.462-6.78 10.666-15.658 12.694-25.06 1.338-6.21-0.036-12.074-3.834-17.308-0.514 0.912-0.692 1.8-0.486 2.588 3.486 13.45-7.334 29.408-19.16 34.31-4.962 2.056-9.41 2.006-14.308 0.118a40.242 40.242 0 0 0-10.522-2.46c-3.066-0.302-4.278-1.498-5.31-4.366-1.772-4.934-4.214-12.59-6.44-17.354-0.696 0.28-2.382 0.73-2.194 3.858 1.122 3.678 2.03 7.44 3.426 11.018 1.54 3.934 0.848 6.34-3.72 5.904-18.036-1.746-35.51-5.392-50.582-16.336-1.296-0.94-2.662-2.186-3.27-3.606-3.812-8.884-8.36-17.582-7.33-27.794 0.238-2.372-0.302-4.824-0.48-7.244-0.71-1.992-1.65-1.842-2.452-1.9-0.756 7.528-1.47 16.778-2.222 24.302-0.578 0.046-1.16 0.088-1.738 0.13-11.842-12.38-20.584-26.36-19.112-44.49 0.972-11.994 3.148-23.89 4.844-35.82 0.53-3.756 1.268-7.486 1.91-11.224-0.692-0.214-1.384-0.432-2.08-0.646-2.158 5.122-4.352 10.22-6.454 15.366-2.218 5.402-4.136 10.94-6.652 16.194-0.646 1.352-3.472 2.974-4.6 2.562-9.098-3.326-16.684-8.15-17.024-19.414-0.164-5.576 0.49-9.62-0.046-15.182-0.452-3.05-2.4-4-2.854-4.15-0.816 2.712-2.396 7.646-2.298 10.322 0.298 8.384 0.994 16.766 1.996 25.1 0.61 5.068 0.958 15.53 2.034 20.542-14.87-6.862-13.648-25.014-21.87-34.492-0.358 6.578-0.728 13.252 1.234 19.15 3.94 11.874 11.192 21.728 21.788 28.87 1.756 1.188 3.152 2.968 4.546 4.618 2.322 2.748 4.188 5.97 6.812 8.37 7.536 6.9 15.658 13.168 22.998 20.26 22.802 22.012 49.648 35.288 81.236 38.784 9.062 1.002 9.968 2.772 8.008 11.806-1.992 9.186-3.228 18.462 2.484 27.08 0.7 1.058 0.862 2.892 0.522 4.164-2.168 8.078-4.564 16.09-6.844 24.134-1.992 7.024-4.178 14-5.842 21.106-3.198 13.652-6.138 27.358-9.048 41.076-0.476 2.264-0.44 4.696-0.27 7.014 0.71 9.83 1.846 19.63 2.286 29.47 0.618 13.864 0.536 27.758 1.174 41.616a177.7 177.7 0 0 0 2.454 22.358c1.732 9.91 4.138 19.406 11.888 27.07 7.192 7.114 10.876 16.056 10.32 26.836-0.302 5.85 1.604 11.926 3.112 17.744 2.466 9.53 6.652 18.778 7.86 28.432 1.704 13.532 1.25 27.332 1.93 41.006 0.228 4.546 1.098 9.062 1.69 13.584 0.308 2.35 0.944 4.696 0.94 7.032-0.014 2.872-0.044 5.74-0.088 8.612-0.412 8.928-1.392 28.838-2.24 33.282 0 0-7.216 6.872-7.216 13.194h14.014s0.664-6.596 4.128-12.094c0 0 1.49-28.272 4.434-43.206l-0.064 0.018c0.148-0.908 0.284-1.814 0.404-2.736 0.98-7.586 3.972-15.008 4.216-22.568 0.572-17.716-0.018-35.478-0.01-53.212 0-3.82 0.604-7.636 0.856-11.458 0.284-4.228 3.628-17.174 21.468-18.61 7.086-1.384 15.012 3.51 15.864 10.556 1.402 11.604 2.208 23.304 2.624 34.992 0.198 5.576-0.88 11.234-1.736 16.808-1.1 7.164-4.154 14.39-0.38 21.468 5.684 10.666 2.354 22.412 3.542 33.966-0.404 9.112-1.33 28.506-2.058 32.88 0 0-6.29 6.872-6.29 13.194h12.366s0.714-6.596 3.734-12.094c0 0 0.774-18.834 2.454-33.878 0.138-0.064 0.266-0.134 0.354-0.198 0-0.022-0.142-0.044-0.32-0.082 0.366-3.28 0.778-6.382 1.236-9.048l-0.274 0.1c1.318-6.28 2.808-14.948 2.602-27.982-0.274-17.18 3.632-33.352 7.76-49.648 0.312-1.242 1.42-2.276 2.158-3.408 1.086 0.842 2.428 1.498 3.22 2.566 3.93 5.264 7.238 11.082 11.64 15.902 10.522 11.514 26.91 26.076 29.744 41.786 0.358 1.974 1.178 4.884 1.788 7.528 0.022 27.02-5.634 54.626-5.634 54.626-7.698 5.952-13.19 13.83-13.19 13.83h18.686c1.648-9.894 4.328-9.438 4.328-9.438s3.18-12.168 6.784-28.572l0.202 0.206c0.156-0.962 0.266-1.868 0.354-2.754 5.85-27.034 12.438-63.98 8.346-78.032 0.096-0.59 0.198-1.156 0.288-1.694a60.51 60.51 0 0 0 5.346 9.988c17.39 25.934 2.932 96.466 2.932 96.466-7.698 5.952-13.19 13.83-13.19 13.83h18.686c1.648-9.894 4.328-9.438 4.328-9.438s25.786-98.65 13.774-113.144z m-60.426-346.384c-1.992 8.806-18.056 12.438-26.754 8.352 8.73-2.722 17.458-5.448 26.754-8.352z m-34.598 21.308l-28.84 9.074c2.636-8.368 20.104-13.858 28.84-9.074z" fill="#006064" p-id="5146"></path><path d="M775.902 236.218a77.342 77.342 0 0 1-38.446 10.17c-42.894 0-77.664-34.772-77.664-77.666a77.306 77.306 0 0 1 13.226-43.356c44.244 25.984 80.184 64.576 102.884 110.852z" fill="#F9F9F9" p-id="5147"></path><path d="M187.794 200.57a8.484 8.484 0 1 1 0 16.966 8.484 8.484 0 0 1 0-16.966z m753.55 205.878a8.484 8.484 0 1 1 0 16.97 8.484 8.484 0 0 1 0-16.97zM123.556 358.158a8.484 8.484 0 1 1 0 16.966 8.484 8.484 0 0 1 0-16.966z m740.214-167.468a8.484 8.484 0 1 1 0 16.966 8.484 8.484 0 0 1 0-16.966z m-16.968 155.152a8.484 8.484 0 1 1 0 16.966 8.484 8.484 0 0 1 0-16.966zM677.094 65.228a8.484 8.484 0 1 1 0 16.966 8.484 8.484 0 0 1 0-16.966z m-279.19-3.642a8.484 8.484 0 1 1 0 16.966 8.484 8.484 0 0 1 0-16.966z m-171.71 284.256a8.484 8.484 0 1 1 0 16.966 8.484 8.484 0 0 1 0-16.966z" fill="#FFFFFF" p-id="5148"></path></svg>